<svg width="722" height="274" viewBox="0 0 722 274" fill="none" xmlns="http://www.w3.org/2000/svg">
<path d="M676 0C675.448 0 675 0.447715 675 1C675 1.55228 675.448 2 676 2V0ZM48.4489 266.707C48.8394 266.317 48.8394 265.683 48.4489 265.293L42.0849 258.929C41.6944 258.538 41.0612 258.538 40.6707 258.929C40.2802 259.319 40.2802 259.953 40.6707 260.343L46.3275 266L40.6707 271.657C40.2802 272.047 40.2802 272.681 40.6707 273.071C41.0612 273.462 41.6944 273.462 42.0849 273.071L48.4489 266.707ZM349.071 200C349.624 200 350.071 199.552 350.071 199C350.071 198.448 349.624 198 349.071 198V200ZM366.94 198C366.387 198 365.94 198.448 365.94 199C365.94 199.552 366.387 200 366.94 200V198ZM676 2C676.015 2 676.03 2 676.044 2C676.059 2 676.074 2 676.089 2C676.103 2 676.118 2 676.133 2C676.148 2 676.163 2 676.177 2C676.192 2 676.207 2 676.222 2C676.237 2 676.252 2 676.266 2C676.281 2 676.296 2 676.311 2C676.326 2 676.34 2 676.355 2C676.37 2 676.385 2 676.4 2C676.415 2 676.43 2 676.444 2C676.459 2 676.474 2 676.489 2C676.504 2 676.519 2 676.534 2C676.548 2 676.563 2 676.578 2C676.593 2 676.608 2 676.623 2C676.638 2 676.653 2 676.668 2C676.682 2 676.697 2 676.712 2C676.727 2 676.742 2 676.757 2C676.772 2 676.787 2 676.802 2C676.817 2 676.832 2 676.846 2C676.861 2 676.876 2 676.891 2C676.906 2 676.921 2 676.936 2C676.951 2 676.966 2 676.981 2C676.996 2 677.011 2 677.026 2C677.041 2 677.056 2 677.071 2C677.086 2 677.101 2 677.116 2C677.131 2 677.146 2 677.161 2C677.176 2 677.191 2 677.206 2C677.221 2 677.236 2 677.251 2C677.266 2 677.281 2 677.296 2C677.311 2 677.326 2 677.341 2C677.356 2 677.371 2 677.386 2C677.401 2 677.416 2 677.431 2C677.446 2 677.461 2 677.476 2C677.491 2 677.506 2 677.521 2C677.536 2 677.551 2 677.566 2C677.581 2 677.596 2 677.611 2C677.627 2 677.642 2 677.657 2C677.672 2 677.687 2 677.702 2C677.717 2 677.732 2 677.747 2C677.762 2 677.777 2 677.792 2C677.807 2 677.823 2 677.838 2C677.853 2 677.868 2 677.883 2C677.898 2 677.913 2 677.928 2C677.943 2 677.959 2 677.974 2C677.989 2 678.004 2 678.019 2C678.034 2 678.049 2 678.065 2C678.08 2 678.095 2 678.11 2C678.125 2 678.14 2 678.155 2C678.171 2 678.186 2 678.201 2C678.216 2 678.231 2 678.246 2C678.262 2 678.277 2 678.292 2C678.307 2 678.322 2 678.337 2C678.353 2 678.368 2 678.383 2C678.398 2 678.413 2 678.429 2C678.444 2 678.459 2 678.474 2C678.489 2 678.505 2 678.52 2C678.535 2 678.55 2 678.565 2C678.581 2 678.596 2 678.611 2C678.626 2 678.642 2 678.657 2C678.672 2 678.687 2 678.702 2C678.718 2 678.733 2 678.748 2C678.763 2 678.779 2 678.794 2C678.809 2 678.824 2 678.84 2C678.855 2 678.87 2 678.885 2C678.901 2 678.916 2 678.931 2C678.947 2 678.962 2 678.977 2C678.992 2 679.008 2 679.023 2C679.038 2 679.054 2 679.069 2C679.084 2 679.099 2 679.115 2C679.13 2 679.145 2 679.161 2C679.176 2 679.191 2 679.207 2C679.222 2 679.237 2 679.253 2C679.268 2 679.283 2 679.298 2C679.314 2 679.329 2 679.344 2C679.36 2 679.375 2 679.39 2C679.406 2 679.421 2 679.436 2C679.452 2 679.467 2 679.483 2C679.498 2 679.513 2 679.529 2C679.544 2 679.559 2 679.575 2C679.59 2 679.605 2 679.621 2C679.636 2 679.651 2 679.667 2C679.682 2 679.698 2 679.713 2C679.728 2 679.744 2 679.759 2C679.775 2 679.79 2 679.805 2C679.821 2 679.836 2 679.852 2C679.867 2 679.882 2 679.898 2C679.913 2 679.929 2 679.944 2C679.959 2 679.975 2 679.99 2C680.006 2 680.021 2 680.036 2C680.052 2 680.067 2 680.083 2C680.098 2 680.114 2 680.129 2C680.144 2 680.16 2 680.175 2C680.191 2 680.206 2 680.222 2C680.237 2 680.253 2 680.268 2C680.284 2 680.299 2 680.314 2C680.33 2 680.345 2 680.361 2C680.376 2 680.392 2 680.407 2C680.423 2 680.438 2 680.454 2C680.469 2 680.485 2 680.5 2C680.516 2 680.531 2 680.547 2C680.562 2 680.578 2 680.593 2C680.608 2 680.624 2 680.639 2C680.655 2 680.67 2 680.686 2C680.701 2 680.717 2 680.732 2C680.748 2 680.763 2 680.779 2C680.795 2 680.81 2 680.826 2C680.841 2 680.857 2 680.872 2C680.888 2 680.903 2 680.919 2C680.934 2 680.95 2 680.965 2C680.981 2 680.996 2 681.012 2C681.027 2 681.043 2 681.059 2C681.074 2 681.09 2 681.105 2C681.121 2 681.136 2 681.152 2C681.167 2 681.183 2 681.199 2C681.214 2 681.23 2 681.245 2C681.261 2 681.276 2 681.292 2C681.308 2 681.323 2 681.339 2C681.354 2 681.37 2 681.385 2C681.401 2 681.417 2 681.432 2C681.448 2 681.463 2 681.479 2C681.495 2 681.51 2 681.526 2C681.541 2 681.557 2 681.573 2C681.588 2 681.604 2 681.619 2C681.635 2 681.651 2 681.666 2C681.682 2 681.697 2 681.713 2C681.729 2 681.744 2 681.76 2C681.776 2 681.791 2 681.807 2C681.822 2 681.838 2 681.854 2C681.869 2 681.885 2 681.901 2C681.916 2 681.932 2 681.947 2C681.963 2 681.979 2 681.994 2C682.01 2 682.026 2 682.041 2C682.057 2 682.073 2 682.088 2C682.104 2 682.12 2 682.135 2C682.151 2 682.167 2 682.182 2C682.198 2 682.214 2 682.229 2C682.245 2 682.261 2 682.276 2C682.292 2 682.308 2 682.323 2C682.339 2 682.355 2 682.37 2C682.386 2 682.402 2 682.417 2C682.433 2 682.449 2 682.464 2C682.48 2 682.496 2 682.512 2C682.527 2 682.543 2 682.559 2C682.574 2 682.59 2 682.606 2C682.621 2 682.637 2 682.653 2C682.669 2 682.684 2 682.7 2C682.716 2 682.731 2 682.747 2C682.763 2 682.779 2 682.794 2C682.81 2 682.826 2 682.841 2C682.857 2 682.873 2 682.889 2C682.904 2 682.92 2 682.936 2C682.951 2 682.967 2 682.983 2C682.999 2 683.014 2 683.03 2C683.046 2 683.062 2 683.077 2C683.093 2 683.109 2 683.125 2C683.14 2 683.156 2 683.172 2C683.188 2 683.203 2 683.219 2C683.235 2 683.251 2 683.266 2C683.282 2 683.298 2 683.314 2C683.329 2 683.345 2 683.361 2C683.377 2 683.393 2 683.408 2C683.424 2 683.44 2 683.456 2C683.471 2 683.487 2 683.503 2C683.519 2 683.534 2 683.55 2C683.566 2 683.582 2 683.598 2C683.613 2 683.629 2 683.645 2C683.661 2 683.677 2 683.692 2C683.708 2 683.724 2 683.74 2C683.755 2 683.771 2 683.787 2C683.803 2 683.819 2 683.834 2C683.85 2 683.866 2 683.882 2C683.898 2 683.913 2 683.929 2C683.945 2 683.961 2 683.977 2C683.992 2 684.008 2 684.024 2C684.04 2 684.056 2 684.072 2C684.087 2 684.103 2 684.119 2C684.135 2 684.151 2 684.167 2C684.182 2 684.198 2 684.214 2C684.23 2 684.246 2 684.261 2C684.277 2 684.293 2 684.309 2C684.325 2 684.341 2 684.356 2C684.372 2 684.388 2 684.404 2C684.42 2 684.436 2 684.451 2C684.467 2 684.483 2 684.499 2C684.515 2 684.531 2 684.547 2C684.562 2 684.578 2 684.594 2C684.61 2 684.626 2 684.642 2C684.658 2 684.673 2 684.689 2C684.705 2 684.721 2 684.737 2C684.753 2 684.769 2 684.784 2C684.8 2 684.816 2 684.832 2C684.848 2 684.864 2 684.88 2C684.895 2 684.911 2 684.927 2C684.943 2 684.959 2 684.975 2C684.991 2 685.007 2 685.022 2C685.038 2 685.054 2 685.07 2C685.086 2 685.102 2 685.118 2C685.134 2 685.149 2 685.165 2C685.181 2 685.197 2 685.213 2C685.229 2 685.245 2 685.261 2C685.276 2 685.292 2 685.308 2C685.324 2 685.34 2 685.356 2C685.372 2 685.388 2 685.404 2C685.42 2 685.435 2 685.451 2C685.467 2 685.483 2 685.499 2C685.515 2 685.531 2 685.547 2C685.563 2 685.579 2 685.594 2C685.61 2 685.626 2 685.642 2C685.658 2 685.674 2 685.69 2C685.706 2 685.722 2 685.738 2C685.753 2 685.769 2 685.785 2C685.801 2 685.817 2 685.833 2C685.849 2 685.865 2 685.881 2C685.897 2 685.913 2 685.929 2C685.944 2 685.96 2 685.976 2C685.992 2 686.008 2 686.024 2C686.04 2 686.056 2 686.072 2C686.088 2 686.104 2 686.12 2C686.136 2 686.151 2 686.167 2C686.183 2 686.199 2 686.215 2C686.231 2 686.247 2 686.263 2C686.279 2 686.295 2 686.311 2C686.327 2 686.343 2 686.359 2C686.375 2 686.39 2 686.406 2C686.422 2 686.438 2 686.454 2C686.47 2 686.486 2 686.502 2C686.518 2 686.534 2 686.55 2C686.566 2 686.582 2 686.598 2C686.614 2 686.63 2 686.646 2C686.661 2 686.677 2 686.693 2C686.709 2 686.725 2 686.741 2C686.757 2 686.773 2 686.789 2C686.805 2 686.821 2 686.837 2C686.853 2 686.869 2 686.885 2C686.901 2 686.917 2 686.933 2C686.949 2 686.964 2 686.98 2C686.996 2 687.012 2 687.028 2C687.044 2 687.06 2 687.076 2C687.092 2 687.108 2 687.124 2C687.14 2 687.156 2 687.172 2C687.188 2 687.204 2 687.22 2C687.236 2 687.252 2 687.268 2C687.284 2 687.3 2 687.316 2C687.331 2 687.347 2 687.363 2C687.379 2 687.395 2 687.411 2C687.427 2 687.443 2 687.459 2C687.475 2 687.491 2 687.507 2C687.523 2 687.539 2 687.555 2C687.571 2 687.587 2 687.603 2C687.619 2 687.635 2 687.651 2C687.667 2 687.683 2 687.699 2C687.715 2 687.731 2 687.747 2C687.763 2 687.779 2 687.795 2C687.811 2 687.826 2 687.842 2C687.858 2 687.874 2 687.89 2C687.906 2 687.922 2 687.938 2C687.954 2 687.97 2 687.986 2C688.002 2 688.018 2 688.034 2C688.05 2 688.066 2 688.082 2C688.098 2 688.114 2 688.13 2C688.146 2 688.162 2 688.178 2C688.194 2 688.21 2 688.226 2C688.242 2 688.258 2 688.274 2C688.29 2 688.306 2 688.322 2C688.338 2 688.354 2 688.37 2C688.386 2 688.402 2 688.418 2C688.434 2 688.45 2 688.466 2C688.482 2 688.497 2 688.513 2C688.529 2 688.545 2 688.561 2C688.577 2 688.593 2 688.609 2C688.625 2 688.641 2 688.657 2C688.673 2 688.689 2 688.705 2C688.721 2 688.737 2 688.753 2C688.769 2 688.785 2 688.801 2C688.817 2 688.833 2 688.849 2C688.865 2 688.881 2 688.897 2C688.913 2 688.929 2 688.945 2C688.961 2 688.977 2 688.993 2C689.009 2 689.025 2 689.041 2C689.057 2 689.073 2 689.089 2C689.105 2 689.121 2 689.137 2C689.153 2 689.169 2 689.185 2C689.201 2 689.217 2 689.232 2C689.248 2 689.264 2 689.28 2C689.296 2 689.312 2 689.328 2C689.344 2 689.36 2 689.376 2C689.392 2 689.408 2 689.424 2C689.44 2 689.456 2 689.472 2C689.488 2 689.504 2 689.52 2C689.536 2 689.552 2 689.568 2C689.584 2 689.6 2 689.616 2C689.632 2 689.648 2 689.664 2C689.68 2 689.696 2 689.712 2C689.728 2 689.744 2 689.76 2C689.776 2 689.792 2 689.808 2C689.824 2 689.84 2 689.856 2C689.872 2 689.888 2 689.904 2C689.919 2 689.935 2 689.951 2C689.967 2 689.983 2 689.999 2C690.015 2 690.031 2 690.047 2C690.063 2 690.079 2 690.095 2C690.111 2 690.127 2 690.143 2C690.159 2 690.175 2 690.191 2C690.207 2 690.223 2 690.239 2C690.255 2 690.271 2 690.287 2C690.303 2 690.319 2 690.335 2C690.351 2 690.367 2 690.383 2C690.399 2 690.414 2 690.43 2C690.446 2 690.462 2 690.478 2C690.494 2 690.51 2 690.526 2C690.542 2 690.558 2 690.574 2C690.59 2 690.606 2 690.622 2C690.638 2 690.654 2 690.67 2C690.686 2 690.702 2 690.718 2C690.734 2 690.75 2 690.766 2C690.782 2 690.798 2 690.813 2C690.829 2 690.845 2 690.861 2C690.877 2 690.893 2 690.909 2C690.925 2 690.941 2 690.957 2C690.973 2 690.989 2 691.005 2C691.021 2 691.037 2 691.053 2C691.069 2 691.085 2 691.101 2C691.117 2 691.133 2 691.148 2C691.164 2 691.18 2 691.196 2C691.212 2 691.228 2 691.244 2C691.26 2 691.276 2 691.292 2C691.308 2 691.324 2 691.34 2C691.356 2 691.372 2 691.388 2C691.404 2 691.419 2 691.435 2C691.451 2 691.467 2 691.483 2C691.499 2 691.515 2 691.531 2C691.547 2 691.563 2 691.579 2C691.595 2 691.611 2 691.627 2C691.642 2 691.658 2 691.674 2C691.69 2 691.706 2 691.722 2C691.738 2 691.754 2 691.77 2C691.786 2 691.802 2 691.818 2C691.834 2 691.849 2 691.865 2C691.881 2 691.897 2 691.913 2C691.929 2 691.945 2 691.961 2C691.977 2 691.993 2 692.009 2C692.025 2 692.04 2 692.056 2C692.072 2 692.088 2 692.104 2C692.12 2 692.136 2 692.152 2C692.168 2 692.184 2 692.2 2C692.215 2 692.231 2 692.247 2C692.263 2 692.279 2 692.295 2C692.311 2 692.327 2 692.343 2C692.359 2 692.374 2 692.39 2C692.406 2 692.422 2 692.438 2C692.454 2 692.47 2 692.486 2C692.502 2 692.518 2 692.533 2C692.549 2 692.565 2 692.581 2C692.597 2 692.613 2 692.629 2C692.645 2 692.66 2 692.676 2C692.692 2 692.708 2 692.724 2C692.74 2 692.756 2 692.772 2C692.787 2 692.803 2 692.819 2C692.835 2 692.851 2 692.867 2C692.883 2 692.899 2 692.914 2C692.93 2 692.946 2 692.962 2C692.978 2 692.994 2 693.01 2C693.026 2 693.041 2 693.057 2C693.073 2 693.089 2 693.105 2C693.121 2 693.137 2 693.152 2C693.168 2 693.184 2 693.2 2C693.216 2 693.232 2 693.247 2C693.263 2 693.279 2 693.295 2C693.311 2 693.327 2 693.343 2C693.358 2 693.374 2 693.39 2C693.406 2 693.422 2 693.438 2C693.453 2 693.469 2 693.485 2C693.501 2 693.517 2 693.533 2C693.548 2 693.564 2 693.58 2C693.596 2 693.612 2 693.628 2C693.643 2 693.659 2 693.675 2C693.691 2 693.707 2 693.723 2C693.738 2 693.754 2 693.77 2C693.786 2 693.802 2 693.817 2C693.833 2 693.849 2 693.865 2C693.881 2 693.896 2 693.912 2C693.928 2 693.944 2 693.96 2C693.976 2 693.991 2 694.007 2C694.023 2 694.039 2 694.055 2C694.07 2 694.086 2 694.102 2C694.118 2 694.133 2 694.149 2C694.165 2 694.181 2 694.197 2C694.212 2 694.228 2 694.244 2C694.26 2 694.276 2 694.291 2C694.307 2 694.323 2 694.339 2C694.354 2 694.37 2 694.386 2C694.402 2 694.417 2 694.433 2C694.449 2 694.465 2 694.481 2C694.496 2 694.512 2 694.528 2C694.544 2 694.559 2 694.575 2C694.591 2 694.607 2 694.622 2C694.638 2 694.654 2 694.67 2C694.685 2 694.701 2 694.717 2C694.733 2 694.748 2 694.764 2C694.78 2 694.796 2 694.811 2C694.827 2 694.843 2 694.859 2C694.874 2 694.89 2 694.906 2C694.921 2 694.937 2 694.953 2C694.969 2 694.984 2 695 2C695.016 2 695.031 2 695.047 2C695.063 2 695.079 2 695.094 2C695.11 2 695.126 2 695.141 2C695.157 2 695.173 2 695.189 2C695.204 2 695.22 2 695.236 2C695.251 2 695.267 2 695.283 2C695.299 2 695.314 2 695.33 2C695.346 2 695.361 2 695.377 2C695.393 2 695.408 2 695.424 2C695.44 2 695.455 2 695.471 2C695.487 2 695.502 2 695.518 2C695.534 2 695.549 2 695.565 2C695.581 2 695.596 2 695.612 2C695.628 2 695.643 2 695.659 2C695.675 2 695.69 2 695.706 2C695.722 2 695.737 2 695.753 2C695.769 2 695.784 2 695.8 2C695.816 2 695.831 2 695.847 2C695.863 2 695.878 2 695.894 2C695.909 2 695.925 2 695.941 2C695.956 2 695.972 2 695.988 2C696.003 2 696.019 2 696.034 2C696.05 2 696.066 2 696.081 2C696.097 2 696.113 2 696.128 2C696.144 2 696.159 2 696.175 2C696.191 2 696.206 2 696.222 2C696.237 2 696.253 2 696.269 2C696.284 2 696.3 2 696.315 2C696.331 2 696.347 2 696.362 2C696.378 2 696.393 2 696.409 2C696.425 2 696.44 2 696.456 2C696.471 2 696.487 2 696.503 2C696.518 2 696.534 2 696.549 2C696.565 2 696.58 2 696.596 2C696.612 2 696.627 2 696.643 2C696.658 2 696.674 2 696.689 2C696.705 2 696.72 2 696.736 2C696.752 2 696.767 2 696.783 2C696.798 2 696.814 2 696.829 2C696.845 2 696.86 2 696.876 2C696.891 2 696.907 2 696.922 2C696.938 2 696.953 2 696.969 2C696.984 2 697 2 697.016 2C697.031 2 697.047 2 697.062 2C697.078 2 697.093 2 697.109 2C697.124 2 697.14 2 697.155 2C697.171 2 697.186 2 697.202 2C697.217 2 697.233 2 697.248 2C697.264 2 697.279 2 697.295 2C697.31 2 697.326 2 697.341 2C697.357 2 697.372 2 697.387 2C697.403 2 697.418 2 697.434 2C697.449 2 697.465 2 697.48 2C697.496 2 697.511 2 697.527 2C697.542 2 697.558 2 697.573 2C697.588 2 697.604 2 697.619 2C697.635 2 697.65 2 697.666 2C697.681 2 697.697 2 697.712 2C697.727 2 697.743 2 697.758 2C697.774 2 697.789 2 697.805 2C697.82 2 697.835 2 697.851 2C697.866 2 697.882 2 697.897 2C697.912 2 697.928 2 697.943 2C697.959 2 697.974 2 697.989 2C698.005 2 698.02 2 698.036 2C698.051 2 698.066 2 698.082 2C698.097 2 698.113 2 698.128 2C698.143 2 698.159 2 698.174 2C698.189 2 698.205 2 698.22 2C698.236 2 698.251 2 698.266 2C698.282 2 698.297 2 698.312 2C698.328 2 698.343 2 698.358 2C698.374 2 698.389 2 698.404 2C698.42 2 698.435 2 698.45 2C698.466 2 698.481 2 698.496 2C698.512 2 698.527 2 698.542 2C698.558 2 698.573 2 698.588 2C698.604 2 698.619 2 698.634 2C698.65 2 698.665 2 698.68 2C698.695 2 698.711 2 698.726 2C698.741 2 698.757 2 698.772 2C698.787 2 698.803 2 698.818 2C698.833 2 698.848 2 698.864 2C698.879 2 698.894 2 698.909 2C698.925 2 698.94 2 698.955 2C698.971 2 698.986 2 699.001 2C699.016 2 699.032 2 699.047 2C699.062 2 699.077 2 699.093 2C699.108 2 699.123 2 699.138 2C699.154 2 699.169 2 699.184 2C699.199 2 699.214 2 699.23 2C699.245 2 699.26 2 699.275 2C699.29 2 699.306 2 699.321 2C699.336 2 699.351 2 699.367 2C699.382 2 699.397 2 699.412 2C699.427 2 699.443 2 699.458 2C699.473 2 699.488 2 699.503 2C699.518 2 699.534 2 699.549 2C699.564 2 699.579 2 699.594 2C699.609 2 699.625 2 699.64 2C699.655 2 699.67 2 699.685 2C699.7 2 699.716 2 699.731 2C699.746 2 699.761 2 699.776 2C699.791 2 699.806 2 699.821 2C699.837 2 699.852 2 699.867 2C699.882 2 699.897 2 699.912 2C699.927 2 699.942 2 699.958 2C699.973 2 699.988 2 700.003 2V0C699.988 0 699.973 0 699.958 0C699.942 0 699.927 0 699.912 0C699.897 0 699.882 0 699.867 0C699.852 0 699.837 0 699.821 0C699.806 0 699.791 0 699.776 0C699.761 0 699.746 0 699.731 0C699.716 0 699.7 0 699.685 0C699.67 0 699.655 0 699.64 0C699.625 0 699.609 0 699.594 0C699.579 0 699.564 0 699.549 0C699.534 0 699.518 0 699.503 0C699.488 0 699.473 0 699.458 0C699.443 0 699.427 0 699.412 0C699.397 0 699.382 0 699.367 0C699.351 0 699.336 0 699.321 0C699.306 0 699.29 0 699.275 0C699.26 0 699.245 0 699.23 0C699.214 0 699.199 0 699.184 0C699.169 0 699.154 0 699.138 0C699.123 0 699.108 0 699.093 0C699.077 0 699.062 0 699.047 0C699.032 0 699.016 0 699.001 0C698.986 0 698.971 0 698.955 0C698.94 0 698.925 0 698.909 0C698.894 0 698.879 0 698.864 0C698.848 0 698.833 0 698.818 0C698.803 0 698.787 0 698.772 0C698.757 0 698.741 0 698.726 0C698.711 0 698.695 0 698.68 0C698.665 0 698.65 0 698.634 0C698.619 0 698.604 0 698.588 0C698.573 0 698.558 0 698.542 0C698.527 0 698.512 0 698.496 0C698.481 0 698.466 0 698.45 0C698.435 0 698.42 0 698.404 0C698.389 0 698.374 0 698.358 0C698.343 0 698.328 0 698.312 0C698.297 0 698.282 0 698.266 0C698.251 0 698.236 0 698.22 0C698.205 0 698.189 0 698.174 0C698.159 0 698.143 0 698.128 0C698.113 0 698.097 0 698.082 0C698.066 0 698.051 0 698.036 0C698.02 0 698.005 0 697.989 0C697.974 0 697.959 0 697.943 0C697.928 0 697.912 0 697.897 0C697.882 0 697.866 0 697.851 0C697.835 0 697.82 0 697.805 0C697.789 0 697.774 0 697.758 0C697.743 0 697.727 0 697.712 0C697.697 0 697.681 0 697.666 0C697.65 0 697.635 0 697.619 0C697.604 0 697.588 0 697.573 0C697.558 0 697.542 0 697.527 0C697.511 0 697.496 0 697.48 0C697.465 0 697.449 0 697.434 0C697.418 0 697.403 0 697.387 0C697.372 0 697.357 0 697.341 0C697.326 0 697.31 0 697.295 0C697.279 0 697.264 0 697.248 0C697.233 0 697.217 0 697.202 0C697.186 0 697.171 0 697.155 0C697.14 0 697.124 0 697.109 0C697.093 0 697.078 0 697.062 0C697.047 0 697.031 0 697.016 0C697 0 696.984 0 696.969 0C696.953 0 696.938 0 696.922 0C696.907 0 696.891 0 696.876 0C696.86 0 696.845 0 696.829 0C696.814 0 696.798 0 696.783 0C696.767 0 696.752 0 696.736 0C696.72 0 696.705 0 696.689 0C696.674 0 696.658 0 696.643 0C696.627 0 696.612 0 696.596 0C696.58 0 696.565 0 696.549 0C696.534 0 696.518 0 696.503 0C696.487 0 696.471 0 696.456 0C696.44 0 696.425 0 696.409 0C696.393 0 696.378 0 696.362 0C696.347 0 696.331 0 696.315 0C696.3 0 696.284 0 696.269 0C696.253 0 696.237 0 696.222 0C696.206 0 696.191 0 696.175 0C696.159 0 696.144 0 696.128 0C696.113 0 696.097 0 696.081 0C696.066 0 696.05 0 696.034 0C696.019 0 696.003 0 695.988 0C695.972 0 695.956 0 695.941 0C695.925 0 695.909 0 695.894 0C695.878 0 695.863 0 695.847 0C695.831 0 695.816 0 695.8 0C695.784 0 695.769 0 695.753 0C695.737 0 695.722 0 695.706 0C695.69 0 695.675 0 695.659 0C695.643 0 695.628 0 695.612 0C695.596 0 695.581 0 695.565 0C695.549 0 695.534 0 695.518 0C695.502 0 695.487 0 695.471 0C695.455 0 695.44 0 695.424 0C695.408 0 695.393 0 695.377 0C695.361 0 695.346 0 695.33 0C695.314 0 695.299 0 695.283 0C695.267 0 695.251 0 695.236 0C695.22 0 695.204 0 695.189 0C695.173 0 695.157 0 695.141 0C695.126 0 695.11 0 695.094 0C695.079 0 695.063 0 695.047 0C695.031 0 695.016 0 695 0C694.984 0 694.969 0 694.953 0C694.937 0 694.921 0 694.906 0C694.89 0 694.874 0 694.859 0C694.843 0 694.827 0 694.811 0C694.796 0 694.78 0 694.764 0C694.748 0 694.733 0 694.717 0C694.701 0 694.685 0 694.67 0C694.654 0 694.638 0 694.622 0C694.607 0 694.591 0 694.575 0C694.559 0 694.544 0 694.528 0C694.512 0 694.496 0 694.481 0C694.465 0 694.449 0 694.433 0C694.417 0 694.402 0 694.386 0C694.37 0 694.354 0 694.339 0C694.323 0 694.307 0 694.291 0C694.276 0 694.26 0 694.244 0C694.228 0 694.212 0 694.197 0C694.181 0 694.165 0 694.149 0C694.133 0 694.118 0 694.102 0C694.086 0 694.07 0 694.055 0C694.039 0 694.023 0 694.007 0C693.991 0 693.976 0 693.96 0C693.944 0 693.928 0 693.912 0C693.896 0 693.881 0 693.865 0C693.849 0 693.833 0 693.817 0C693.802 0 693.786 0 693.77 0C693.754 0 693.738 0 693.723 0C693.707 0 693.691 0 693.675 0C693.659 0 693.643 0 693.628 0C693.612 0 693.596 0 693.58 0C693.564 0 693.548 0 693.533 0C693.517 0 693.501 0 693.485 0C693.469 0 693.453 0 693.438 0C693.422 0 693.406 0 693.39 0C693.374 0 693.358 0 693.343 0C693.327 0 693.311 0 693.295 0C693.279 0 693.263 0 693.247 0C693.232 0 693.216 0 693.2 0C693.184 0 693.168 0 693.152 0C693.137 0 693.121 0 693.105 0C693.089 0 693.073 0 693.057 0C693.041 0 693.026 0 693.01 0C692.994 0 692.978 0 692.962 0C692.946 0 692.93 0 692.914 0C692.899 0 692.883 0 692.867 0C692.851 0 692.835 0 692.819 0C692.803 0 692.787 0 692.772 0C692.756 0 692.74 0 692.724 0C692.708 0 692.692 0 692.676 0C692.66 0 692.645 0 692.629 0C692.613 0 692.597 0 692.581 0C692.565 0 692.549 0 692.533 0C692.518 0 692.502 0 692.486 0C692.47 0 692.454 0 692.438 0C692.422 0 692.406 0 692.39 0C692.374 0 692.359 0 692.343 0C692.327 0 692.311 0 692.295 0C692.279 0 692.263 0 692.247 0C692.231 0 692.215 0 692.2 0C692.184 0 692.168 0 692.152 0C692.136 0 692.12 0 692.104 0C692.088 0 692.072 0 692.056 0C692.04 0 692.025 0 692.009 0C691.993 0 691.977 0 691.961 0C691.945 0 691.929 0 691.913 0C691.897 0 691.881 0 691.865 0C691.849 0 691.834 0 691.818 0C691.802 0 691.786 0 691.77 0C691.754 0 691.738 0 691.722 0C691.706 0 691.69 0 691.674 0C691.658 0 691.642 0 691.627 0C691.611 0 691.595 0 691.579 0C691.563 0 691.547 0 691.531 0C691.515 0 691.499 0 691.483 0C691.467 0 691.451 0 691.435 0C691.419 0 691.404 0 691.388 0C691.372 0 691.356 0 691.34 0C691.324 0 691.308 0 691.292 0C691.276 0 691.26 0 691.244 0C691.228 0 691.212 0 691.196 0C691.18 0 691.164 0 691.148 0C691.133 0 691.117 0 691.101 0C691.085 0 691.069 0 691.053 0C691.037 0 691.021 0 691.005 0C690.989 0 690.973 0 690.957 0C690.941 0 690.925 0 690.909 0C690.893 0 690.877 0 690.861 0C690.845 0 690.829 0 690.813 0C690.798 0 690.782 0 690.766 0C690.75 0 690.734 0 690.718 0C690.702 0 690.686 0 690.67 0C690.654 0 690.638 0 690.622 0C690.606 0 690.59 0 690.574 0C690.558 0 690.542 0 690.526 0C690.51 0 690.494 0 690.478 0C690.462 0 690.446 0 690.43 0C690.414 0 690.399 0 690.383 0C690.367 0 690.351 0 690.335 0C690.319 0 690.303 0 690.287 0C690.271 0 690.255 0 690.239 0C690.223 0 690.207 0 690.191 0C690.175 0 690.159 0 690.143 0C690.127 0 690.111 0 690.095 0C690.079 0 690.063 0 690.047 0C690.031 0 690.015 0 689.999 0C689.983 0 689.967 0 689.951 0C689.935 0 689.919 0 689.904 0C689.888 0 689.872 0 689.856 0C689.84 0 689.824 0 689.808 0C689.792 0 689.776 0 689.76 0C689.744 0 689.728 0 689.712 0C689.696 0 689.68 0 689.664 0C689.648 0 689.632 0 689.616 0C689.6 0 689.584 0 689.568 0C689.552 0 689.536 0 689.52 0C689.504 0 689.488 0 689.472 0C689.456 0 689.44 0 689.424 0C689.408 0 689.392 0 689.376 0C689.36 0 689.344 0 689.328 0C689.312 0 689.296 0 689.28 0C689.264 0 689.248 0 689.232 0C689.217 0 689.201 0 689.185 0C689.169 0 689.153 0 689.137 0C689.121 0 689.105 0 689.089 0C689.073 0 689.057 0 689.041 0C689.025 0 689.009 0 688.993 0C688.977 0 688.961 0 688.945 0C688.929 0 688.913 0 688.897 0C688.881 0 688.865 0 688.849 0C688.833 0 688.817 0 688.801 0C688.785 0 688.769 0 688.753 0C688.737 0 688.721 0 688.705 0C688.689 0 688.673 0 688.657 0C688.641 0 688.625 0 688.609 0C688.593 0 688.577 0 688.561 0C688.545 0 688.529 0 688.513 0C688.497 0 688.482 0 688.466 0C688.45 0 688.434 0 688.418 0C688.402 0 688.386 0 688.37 0C688.354 0 688.338 0 688.322 0C688.306 0 688.29 0 688.274 0C688.258 0 688.242 0 688.226 0C688.21 0 688.194 0 688.178 0C688.162 0 688.146 0 688.13 0C688.114 0 688.098 0 688.082 0C688.066 0 688.05 0 688.034 0C688.018 0 688.002 0 687.986 0C687.97 0 687.954 0 687.938 0C687.922 0 687.906 0 687.89 0C687.874 0 687.858 0 687.842 0C687.826 0 687.811 0 687.795 0C687.779 0 687.763 0 687.747 0C687.731 0 687.715 0 687.699 0C687.683 0 687.667 0 687.651 0C687.635 0 687.619 0 687.603 0C687.587 0 687.571 0 687.555 0C687.539 0 687.523 0 687.507 0C687.491 0 687.475 0 687.459 0C687.443 0 687.427 0 687.411 0C687.395 0 687.379 0 687.363 0C687.347 0 687.331 0 687.316 0C687.3 0 687.284 0 687.268 0C687.252 0 687.236 0 687.22 0C687.204 0 687.188 0 687.172 0C687.156 0 687.14 0 687.124 0C687.108 0 687.092 0 687.076 0C687.06 0 687.044 0 687.028 0C687.012 0 686.996 0 686.98 0C686.964 0 686.949 0 686.933 0C686.917 0 686.901 0 686.885 0C686.869 0 686.853 0 686.837 0C686.821 0 686.805 0 686.789 0C686.773 0 686.757 0 686.741 0C686.725 0 686.709 0 686.693 0C686.677 0 686.661 0 686.646 0C686.63 0 686.614 0 686.598 0C686.582 0 686.566 0 686.55 0C686.534 0 686.518 0 686.502 0C686.486 0 686.47 0 686.454 0C686.438 0 686.422 0 686.406 0C686.39 0 686.375 0 686.359 0C686.343 0 686.327 0 686.311 0C686.295 0 686.279 0 686.263 0C686.247 0 686.231 0 686.215 0C686.199 0 686.183 0 686.167 0C686.151 0 686.136 0 686.12 0C686.104 0 686.088 0 686.072 0C686.056 0 686.04 0 686.024 0C686.008 0 685.992 0 685.976 0C685.96 0 685.944 0 685.929 0C685.913 0 685.897 0 685.881 0C685.865 0 685.849 0 685.833 0C685.817 0 685.801 0 685.785 0C685.769 0 685.753 0 685.738 0C685.722 0 685.706 0 685.69 0C685.674 0 685.658 0 685.642 0C685.626 0 685.61 0 685.594 0C685.579 0 685.563 0 685.547 0C685.531 0 685.515 0 685.499 0C685.483 0 685.467 0 685.451 0C685.435 0 685.42 0 685.404 0C685.388 0 685.372 0 685.356 0C685.34 0 685.324 0 685.308 0C685.292 0 685.276 0 685.261 0C685.245 0 685.229 0 685.213 0C685.197 0 685.181 0 685.165 0C685.149 0 685.134 0 685.118 0C685.102 0 685.086 0 685.07 0C685.054 0 685.038 0 685.022 0C685.007 0 684.991 0 684.975 0C684.959 0 684.943 0 684.927 0C684.911 0 684.895 0 684.88 0C684.864 0 684.848 0 684.832 0C684.816 0 684.8 0 684.784 0C684.769 0 684.753 0 684.737 0C684.721 0 684.705 0 684.689 0C684.673 0 684.658 0 684.642 0C684.626 0 684.61 0 684.594 0C684.578 0 684.562 0 684.547 0C684.531 0 684.515 0 684.499 0C684.483 0 684.467 0 684.451 0C684.436 0 684.42 0 684.404 0C684.388 0 684.372 0 684.356 0C684.341 0 684.325 0 684.309 0C684.293 0 684.277 0 684.261 0C684.246 0 684.23 0 684.214 0C684.198 0 684.182 0 684.167 0C684.151 0 684.135 0 684.119 0C684.103 0 684.087 0 684.072 0C684.056 0 684.04 0 684.024 0C684.008 0 683.992 0 683.977 0C683.961 0 683.945 0 683.929 0C683.913 0 683.898 0 683.882 0C683.866 0 683.85 0 683.834 0C683.819 0 683.803 0 683.787 0C683.771 0 683.755 0 683.74 0C683.724 0 683.708 0 683.692 0C683.677 0 683.661 0 683.645 0C683.629 0 683.613 0 683.598 0C683.582 0 683.566 0 683.55 0C683.534 0 683.519 0 683.503 0C683.487 0 683.471 0 683.456 0C683.44 0 683.424 0 683.408 0C683.393 0 683.377 0 683.361 0C683.345 0 683.329 0 683.314 0C683.298 0 683.282 0 683.266 0C683.251 0 683.235 0 683.219 0C683.203 0 683.188 0 683.172 0C683.156 0 683.14 0 683.125 0C683.109 0 683.093 0 683.077 0C683.062 0 683.046 0 683.03 0C683.014 0 682.999 0 682.983 0C682.967 0 682.951 0 682.936 0C682.92 0 682.904 0 682.889 0C682.873 0 682.857 0 682.841 0C682.826 0 682.81 0 682.794 0C682.779 0 682.763 0 682.747 0C682.731 0 682.716 0 682.7 0C682.684 0 682.669 0 682.653 0C682.637 0 682.621 0 682.606 0C682.59 0 682.574 0 682.559 0C682.543 0 682.527 0 682.512 0C682.496 0 682.48 0 682.464 0C682.449 0 682.433 0 682.417 0C682.402 0 682.386 0 682.37 0C682.355 0 682.339 0 682.323 0C682.308 0 682.292 0 682.276 0C682.261 0 682.245 0 682.229 0C682.214 0 682.198 0 682.182 0C682.167 0 682.151 0 682.135 0C682.12 0 682.104 0 682.088 0C682.073 0 682.057 0 682.041 0C682.026 0 682.01 0 681.994 0C681.979 0 681.963 0 681.947 0C681.932 0 681.916 0 681.901 0C681.885 0 681.869 0 681.854 0C681.838 0 681.822 0 681.807 0C681.791 0 681.776 0 681.76 0C681.744 0 681.729 0 681.713 0C681.697 0 681.682 0 681.666 0C681.651 0 681.635 0 681.619 0C681.604 0 681.588 0 681.573 0C681.557 0 681.541 0 681.526 0C681.51 0 681.495 0 681.479 0C681.463 0 681.448 0 681.432 0C681.417 0 681.401 0 681.385 0C681.37 0 681.354 0 681.339 0C681.323 0 681.308 0 681.292 0C681.276 0 681.261 0 681.245 0C681.23 0 681.214 0 681.199 0C681.183 0 681.167 0 681.152 0C681.136 0 681.121 0 681.105 0C681.09 0 681.074 0 681.059 0C681.043 0 681.027 0 681.012 0C680.996 0 680.981 0 680.965 0C680.95 0 680.934 0 680.919 0C680.903 0 680.888 0 680.872 0C680.857 0 680.841 0 680.826 0C680.81 0 680.795 0 680.779 0C680.763 0 680.748 0 680.732 0C680.717 0 680.701 0 680.686 0C680.67 0 680.655 0 680.639 0C680.624 0 680.608 0 680.593 0C680.578 0 680.562 0 680.547 0C680.531 0 680.516 0 680.5 0C680.485 0 680.469 0 680.454 0C680.438 0 680.423 0 680.407 0C680.392 0 680.376 0 680.361 0C680.345 0 680.33 0 680.314 0C680.299 0 680.284 0 680.268 0C680.253 0 680.237 0 680.222 0C680.206 0 680.191 0 680.175 0C680.16 0 680.144 0 680.129 0C680.114 0 680.098 0 680.083 0C680.067 0 680.052 0 680.036 0C680.021 0 680.006 0 679.99 0C679.975 0 679.959 0 679.944 0C679.929 0 679.913 0 679.898 0C679.882 0 679.867 0 679.852 0C679.836 0 679.821 0 679.805 0C679.79 0 679.775 0 679.759 0C679.744 0 679.728 0 679.713 0C679.698 0 679.682 0 679.667 0C679.651 0 679.636 0 679.621 0C679.605 0 679.59 0 679.575 0C679.559 0 679.544 0 679.529 0C679.513 0 679.498 0 679.483 0C679.467 0 679.452 0 679.436 0C679.421 0 679.406 0 679.39 0C679.375 0 679.36 0 679.344 0C679.329 0 679.314 0 679.298 0C679.283 0 679.268 0 679.253 0C679.237 0 679.222 0 679.207 0C679.191 0 679.176 0 679.161 0C679.145 0 679.13 0 679.115 0C679.099 0 679.084 0 679.069 0C679.054 0 679.038 0 679.023 0C679.008 0 678.992 0 678.977 0C678.962 0 678.947 0 678.931 0C678.916 0 678.901 0 678.885 0C678.87 0 678.855 0 678.84 0C678.824 0 678.809 0 678.794 0C678.779 0 678.763 0 678.748 0C678.733 0 678.718 0 678.702 0C678.687 0 678.672 0 678.657 0C678.642 0 678.626 0 678.611 0C678.596 0 678.581 0 678.565 0C678.55 0 678.535 0 678.52 0C678.505 0 678.489 0 678.474 0C678.459 0 678.444 0 678.429 0C678.413 0 678.398 0 678.383 0C678.368 0 678.353 0 678.337 0C678.322 0 678.307 0 678.292 0C678.277 0 678.262 0 678.246 0C678.231 0 678.216 0 678.201 0C678.186 0 678.171 0 678.155 0C678.14 0 678.125 0 678.11 0C678.095 0 678.08 0 678.065 0C678.049 0 678.034 0 678.019 0C678.004 0 677.989 0 677.974 0C677.959 0 677.943 0 677.928 0C677.913 0 677.898 0 677.883 0C677.868 0 677.853 0 677.838 0C677.823 0 677.807 0 677.792 0C677.777 0 677.762 0 677.747 0C677.732 0 677.717 0 677.702 0C677.687 0 677.672 0 677.657 0C677.642 0 677.627 0 677.611 0C677.596 0 677.581 0 677.566 0C677.551 0 677.536 0 677.521 0C677.506 0 677.491 0 677.476 0C677.461 0 677.446 0 677.431 0C677.416 0 677.401 0 677.386 0C677.371 0 677.356 0 677.341 0C677.326 0 677.311 0 677.296 0C677.281 0 677.266 0 677.251 0C677.236 0 677.221 0 677.206 0C677.191 0 677.176 0 677.161 0C677.146 0 677.131 0 677.116 0C677.101 0 677.086 0 677.071 0C677.056 0 677.041 0 677.026 0C677.011 0 676.996 0 676.981 0C676.966 0 676.951 0 676.936 0C676.921 0 676.906 0 676.891 0C676.876 0 676.861 0 676.846 0C676.832 0 676.817 0 676.802 0C676.787 0 676.772 0 676.757 0C676.742 0 676.727 0 676.712 0C676.697 0 676.682 0 676.668 0C676.653 0 676.638 0 676.623 0C676.608 0 676.593 0 676.578 0C676.563 0 676.548 0 676.534 0C676.519 0 676.504 0 676.489 0C676.474 0 676.459 0 676.444 0C676.43 0 676.415 0 676.4 0C676.385 0 676.37 0 676.355 0C676.34 0 676.326 0 676.311 0C676.296 0 676.281 0 676.266 0C676.252 0 676.237 0 676.222 0C676.207 0 676.192 0 676.177 0C676.163 0 676.148 0 676.133 0C676.118 0 676.103 0 676.089 0C676.074 0 676.059 0 676.044 0C676.03 0 676.015 0 676 0V2ZM720 22V178H722V22H720ZM0 220V245H2V220H0ZM22 267H47.7418V265H22V267ZM349.071 198H22V200H349.071V198ZM700 198H366.94V200H700V198ZM0 245C0 257.15 9.84974 267 22 267V265C10.9543 265 2 256.046 2 245H0ZM2 220C2 208.954 10.9543 200 22 200V198C9.84975 198 0 207.85 0 220H2ZM720 178C720 189.046 711.046 198 700 198V200C712.15 200 722 190.15 722 178H720ZM700.003 2C711.048 2 720 10.9541 720 22H722C722 9.84991 712.153 0 700.003 0V2Z" fill="url(#paint0_linear_19_9726)"/>
<path d="M357 198C357.552 198 358 198.448 358 199C358 199.552 357.552 200 357 200V198ZM355.293 199.707C354.902 199.317 354.902 198.683 355.293 198.293L361.657 191.929C362.047 191.538 362.681 191.538 363.071 191.929C363.462 192.319 363.462 192.953 363.071 193.343L357.414 199L363.071 204.657C363.462 205.047 363.462 205.681 363.071 206.071C362.681 206.462 362.047 206.462 361.657 206.071L355.293 199.707ZM357 200H356V198H357V200Z" fill="url(#paint1_linear_19_9726)"/>
<defs>
<linearGradient id="paint0_linear_19_9726" x1="1424.33" y1="-91.4559" x2="1374.69" y2="-91.4559" gradientUnits="userSpaceOnUse">
<stop stop-color="#00FFFF"/>
<stop offset="0.521875" stop-color="#00FFFF"/>
<stop offset="1" stop-color="#00FFFF"/>
</linearGradient>
<linearGradient id="paint1_linear_19_9726" x1="347.975" y1="199.497" x2="349" y2="199.497" gradientUnits="userSpaceOnUse">
<stop stop-color="#00FFFF"/>
<stop offset="0.521875" stop-color="#00FFFF"/>
<stop offset="1" stop-color="#00FFFF"/>
</linearGradient>
</defs>
</svg>
