<svg width="1169" height="336" viewBox="0 0 1169 336" fill="none" xmlns="http://www.w3.org/2000/svg">
<path d="M1116 0C1115.45 0 1115 0.447715 1115 1C1115 1.55228 1115.45 2 1116 2V0ZM64.7071 328.707C65.0976 328.317 65.0976 327.683 64.7071 327.293L58.3431 320.929C57.9526 320.538 57.3195 320.538 56.9289 320.929C56.5384 321.319 56.5384 321.953 56.9289 322.343L62.5858 328L56.9289 333.657C56.5384 334.047 56.5384 334.681 56.9289 335.071C57.3195 335.462 57.9526 335.462 58.3431 335.071L64.7071 328.707ZM554 262C554.552 262 555 261.552 555 261C555 260.448 554.552 260 554 260V262ZM578 260C577.448 260 577 260.448 577 261C577 261.552 577.448 262 578 262V260ZM1116 2C1116.02 2 1116.03 2 1116.05 2C1116.07 2 1116.08 2 1116.1 2C1116.12 2 1116.13 2 1116.15 2C1116.17 2 1116.19 2 1116.2 2C1116.22 2 1116.24 2 1116.25 2C1116.27 2 1116.29 2 1116.3 2C1116.32 2 1116.34 2 1116.35 2C1116.37 2 1116.39 2 1116.4 2C1116.42 2 1116.44 2 1116.46 2C1116.47 2 1116.49 2 1116.51 2C1116.52 2 1116.54 2 1116.56 2C1116.57 2 1116.59 2 1116.61 2C1116.63 2 1116.64 2 1116.66 2C1116.68 2 1116.69 2 1116.71 2C1116.73 2 1116.75 2 1116.76 2C1116.78 2 1116.8 2 1116.81 2C1116.83 2 1116.85 2 1116.87 2C1116.88 2 1116.9 2 1116.92 2C1116.93 2 1116.95 2 1116.97 2C1116.99 2 1117 2 1117.02 2C1117.04 2 1117.05 2 1117.07 2C1117.09 2 1117.11 2 1117.12 2C1117.14 2 1117.16 2 1117.17 2C1117.19 2 1117.21 2 1117.23 2C1117.24 2 1117.26 2 1117.28 2C1117.3 2 1117.31 2 1117.33 2C1117.35 2 1117.37 2 1117.38 2C1117.4 2 1117.42 2 1117.43 2C1117.45 2 1117.47 2 1117.49 2C1117.5 2 1117.52 2 1117.54 2C1117.56 2 1117.57 2 1117.59 2C1117.61 2 1117.63 2 1117.64 2C1117.66 2 1117.68 2 1117.7 2C1117.71 2 1117.73 2 1117.75 2C1117.77 2 1117.78 2 1117.8 2C1117.82 2 1117.84 2 1117.85 2C1117.87 2 1117.89 2 1117.91 2C1117.92 2 1117.94 2 1117.96 2C1117.98 2 1117.99 2 1118.01 2C1118.03 2 1118.05 2 1118.06 2C1118.08 2 1118.1 2 1118.12 2C1118.13 2 1118.15 2 1118.17 2C1118.19 2 1118.21 2 1118.22 2C1118.24 2 1118.26 2 1118.28 2C1118.29 2 1118.31 2 1118.33 2C1118.35 2 1118.36 2 1118.38 2C1118.4 2 1118.42 2 1118.44 2C1118.45 2 1118.47 2 1118.49 2C1118.51 2 1118.52 2 1118.54 2C1118.56 2 1118.58 2 1118.6 2C1118.61 2 1118.63 2 1118.65 2C1118.67 2 1118.68 2 1118.7 2C1118.72 2 1118.74 2 1118.76 2C1118.77 2 1118.79 2 1118.81 2C1118.83 2 1118.84 2 1118.86 2C1118.88 2 1118.9 2 1118.92 2C1118.93 2 1118.95 2 1118.97 2C1118.99 2 1119.01 2 1119.02 2C1119.04 2 1119.06 2 1119.08 2C1119.1 2 1119.11 2 1119.13 2C1119.15 2 1119.17 2 1119.19 2C1119.2 2 1119.22 2 1119.24 2C1119.26 2 1119.28 2 1119.29 2C1119.31 2 1119.33 2 1119.35 2C1119.37 2 1119.38 2 1119.4 2C1119.42 2 1119.44 2 1119.46 2C1119.47 2 1119.49 2 1119.51 2C1119.53 2 1119.55 2 1119.56 2C1119.58 2 1119.6 2 1119.62 2C1119.64 2 1119.66 2 1119.67 2C1119.69 2 1119.71 2 1119.73 2C1119.75 2 1119.76 2 1119.78 2C1119.8 2 1119.82 2 1119.84 2C1119.86 2 1119.87 2 1119.89 2C1119.91 2 1119.93 2 1119.95 2C1119.96 2 1119.98 2 1120 2C1120.02 2 1120.04 2 1120.06 2C1120.07 2 1120.09 2 1120.11 2C1120.13 2 1120.15 2 1120.17 2C1120.18 2 1120.2 2 1120.22 2C1120.24 2 1120.26 2 1120.28 2C1120.29 2 1120.31 2 1120.33 2C1120.35 2 1120.37 2 1120.39 2C1120.4 2 1120.42 2 1120.44 2C1120.46 2 1120.48 2 1120.5 2C1120.51 2 1120.53 2 1120.55 2C1120.57 2 1120.59 2 1120.61 2C1120.62 2 1120.64 2 1120.66 2C1120.68 2 1120.7 2 1120.72 2C1120.74 2 1120.75 2 1120.77 2C1120.79 2 1120.81 2 1120.83 2C1120.85 2 1120.87 2 1120.88 2C1120.9 2 1120.92 2 1120.94 2C1120.96 2 1120.98 2 1120.99 2C1121.01 2 1121.03 2 1121.05 2C1121.07 2 1121.09 2 1121.11 2C1121.12 2 1121.14 2 1121.16 2C1121.18 2 1121.2 2 1121.22 2C1121.24 2 1121.25 2 1121.27 2C1121.29 2 1121.31 2 1121.33 2C1121.35 2 1121.37 2 1121.39 2C1121.4 2 1121.42 2 1121.44 2C1121.46 2 1121.48 2 1121.5 2C1121.52 2 1121.53 2 1121.55 2C1121.57 2 1121.59 2 1121.61 2C1121.63 2 1121.65 2 1121.67 2C1121.68 2 1121.7 2 1121.72 2C1121.74 2 1121.76 2 1121.78 2C1121.8 2 1121.82 2 1121.83 2C1121.85 2 1121.87 2 1121.89 2C1121.91 2 1121.93 2 1121.95 2C1121.97 2 1121.98 2 1122 2C1122.02 2 1122.04 2 1122.06 2C1122.08 2 1122.1 2 1122.12 2C1122.14 2 1122.15 2 1122.17 2C1122.19 2 1122.21 2 1122.23 2C1122.25 2 1122.27 2 1122.29 2C1122.31 2 1122.32 2 1122.34 2C1122.36 2 1122.38 2 1122.4 2C1122.42 2 1122.44 2 1122.46 2C1122.48 2 1122.49 2 1122.51 2C1122.53 2 1122.55 2 1122.57 2C1122.59 2 1122.61 2 1122.63 2C1122.65 2 1122.67 2 1122.68 2C1122.7 2 1122.72 2 1122.74 2C1122.76 2 1122.78 2 1122.8 2C1122.82 2 1122.84 2 1122.86 2C1122.87 2 1122.89 2 1122.91 2C1122.93 2 1122.95 2 1122.97 2C1122.99 2 1123.01 2 1123.03 2C1123.05 2 1123.06 2 1123.08 2C1123.1 2 1123.12 2 1123.14 2C1123.16 2 1123.18 2 1123.2 2C1123.22 2 1123.24 2 1123.26 2C1123.27 2 1123.29 2 1123.31 2C1123.33 2 1123.35 2 1123.37 2C1123.39 2 1123.41 2 1123.43 2C1123.45 2 1123.47 2 1123.49 2C1123.5 2 1123.52 2 1123.54 2C1123.56 2 1123.58 2 1123.6 2C1123.62 2 1123.64 2 1123.66 2C1123.68 2 1123.7 2 1123.72 2C1123.74 2 1123.75 2 1123.77 2C1123.79 2 1123.81 2 1123.83 2C1123.85 2 1123.87 2 1123.89 2C1123.91 2 1123.93 2 1123.95 2C1123.97 2 1123.99 2 1124 2C1124.02 2 1124.04 2 1124.06 2C1124.08 2 1124.1 2 1124.12 2C1124.14 2 1124.16 2 1124.18 2C1124.2 2 1124.22 2 1124.24 2C1124.26 2 1124.28 2 1124.29 2C1124.31 2 1124.33 2 1124.35 2C1124.37 2 1124.39 2 1124.41 2C1124.43 2 1124.45 2 1124.47 2C1124.49 2 1124.51 2 1124.53 2C1124.55 2 1124.57 2 1124.59 2C1124.6 2 1124.62 2 1124.64 2C1124.66 2 1124.68 2 1124.7 2C1124.72 2 1124.74 2 1124.76 2C1124.78 2 1124.8 2 1124.82 2C1124.84 2 1124.86 2 1124.88 2C1124.9 2 1124.92 2 1124.94 2C1124.95 2 1124.97 2 1124.99 2C1125.01 2 1125.03 2 1125.05 2C1125.07 2 1125.09 2 1125.11 2C1125.13 2 1125.15 2 1125.17 2C1125.19 2 1125.21 2 1125.23 2C1125.25 2 1125.27 2 1125.29 2C1125.31 2 1125.33 2 1125.34 2C1125.36 2 1125.38 2 1125.4 2C1125.42 2 1125.44 2 1125.46 2C1125.48 2 1125.5 2 1125.52 2C1125.54 2 1125.56 2 1125.58 2C1125.6 2 1125.62 2 1125.64 2C1125.66 2 1125.68 2 1125.7 2C1125.72 2 1125.74 2 1125.76 2C1125.78 2 1125.8 2 1125.82 2C1125.83 2 1125.85 2 1125.87 2C1125.89 2 1125.91 2 1125.93 2C1125.95 2 1125.97 2 1125.99 2C1126.01 2 1126.03 2 1126.05 2C1126.07 2 1126.09 2 1126.11 2C1126.13 2 1126.15 2 1126.17 2C1126.19 2 1126.21 2 1126.23 2C1126.25 2 1126.27 2 1126.29 2C1126.31 2 1126.33 2 1126.35 2C1126.37 2 1126.39 2 1126.41 2C1126.43 2 1126.45 2 1126.46 2C1126.48 2 1126.5 2 1126.52 2C1126.54 2 1126.56 2 1126.58 2C1126.6 2 1126.62 2 1126.64 2C1126.66 2 1126.68 2 1126.7 2C1126.72 2 1126.74 2 1126.76 2C1126.78 2 1126.8 2 1126.82 2C1126.84 2 1126.86 2 1126.88 2C1126.9 2 1126.92 2 1126.94 2C1126.96 2 1126.98 2 1127 2C1127.02 2 1127.04 2 1127.06 2C1127.08 2 1127.1 2 1127.12 2C1127.14 2 1127.16 2 1127.18 2C1127.2 2 1127.22 2 1127.24 2C1127.26 2 1127.28 2 1127.3 2C1127.32 2 1127.34 2 1127.36 2C1127.38 2 1127.4 2 1127.42 2C1127.44 2 1127.46 2 1127.48 2C1127.5 2 1127.52 2 1127.54 2C1127.56 2 1127.58 2 1127.6 2C1127.62 2 1127.64 2 1127.66 2C1127.67 2 1127.69 2 1127.71 2C1127.73 2 1127.75 2 1127.77 2C1127.79 2 1127.81 2 1127.83 2C1127.85 2 1127.87 2 1127.89 2C1127.91 2 1127.93 2 1127.95 2C1127.97 2 1127.99 2 1128.01 2C1128.03 2 1128.05 2 1128.07 2C1128.09 2 1128.11 2 1128.13 2C1128.15 2 1128.17 2 1128.19 2C1128.21 2 1128.23 2 1128.25 2C1128.27 2 1128.29 2 1128.31 2C1128.33 2 1128.35 2 1128.37 2C1128.39 2 1128.41 2 1128.43 2C1128.45 2 1128.47 2 1128.49 2C1128.51 2 1128.53 2 1128.55 2C1128.57 2 1128.59 2 1128.61 2C1128.63 2 1128.65 2 1128.67 2C1128.69 2 1128.71 2 1128.73 2C1128.75 2 1128.77 2 1128.79 2C1128.81 2 1128.83 2 1128.86 2C1128.88 2 1128.9 2 1128.92 2C1128.94 2 1128.96 2 1128.98 2C1129 2 1129.02 2 1129.04 2C1129.06 2 1129.08 2 1129.1 2C1129.12 2 1129.14 2 1129.16 2C1129.18 2 1129.2 2 1129.22 2C1129.24 2 1129.26 2 1129.28 2C1129.3 2 1129.32 2 1129.34 2C1129.36 2 1129.38 2 1129.4 2C1129.42 2 1129.44 2 1129.46 2C1129.48 2 1129.5 2 1129.52 2C1129.54 2 1129.56 2 1129.58 2C1129.6 2 1129.62 2 1129.64 2C1129.66 2 1129.68 2 1129.7 2C1129.72 2 1129.74 2 1129.76 2C1129.78 2 1129.8 2 1129.82 2C1129.84 2 1129.86 2 1129.88 2C1129.9 2 1129.92 2 1129.94 2C1129.96 2 1129.98 2 1130 2C1130.02 2 1130.04 2 1130.06 2C1130.08 2 1130.1 2 1130.12 2C1130.14 2 1130.16 2 1130.18 2C1130.2 2 1130.23 2 1130.25 2C1130.27 2 1130.29 2 1130.31 2C1130.33 2 1130.35 2 1130.37 2C1130.39 2 1130.41 2 1130.43 2C1130.45 2 1130.47 2 1130.49 2C1130.51 2 1130.53 2 1130.55 2C1130.57 2 1130.59 2 1130.61 2C1130.63 2 1130.65 2 1130.67 2C1130.69 2 1130.71 2 1130.73 2C1130.75 2 1130.77 2 1130.79 2C1130.81 2 1130.83 2 1130.85 2C1130.87 2 1130.89 2 1130.91 2C1130.93 2 1130.95 2 1130.97 2C1130.99 2 1131.01 2 1131.04 2C1131.06 2 1131.08 2 1131.1 2C1131.12 2 1131.14 2 1131.16 2C1131.18 2 1131.2 2 1131.22 2C1131.24 2 1131.26 2 1131.28 2C1131.3 2 1131.32 2 1131.34 2C1131.36 2 1131.38 2 1131.4 2C1131.42 2 1131.44 2 1131.46 2C1131.48 2 1131.5 2 1131.52 2C1131.54 2 1131.56 2 1131.58 2C1131.6 2 1131.62 2 1131.64 2C1131.66 2 1131.69 2 1131.71 2C1131.73 2 1131.75 2 1131.77 2C1131.79 2 1131.81 2 1131.83 2C1131.85 2 1131.87 2 1131.89 2C1131.91 2 1131.93 2 1131.95 2C1131.97 2 1131.99 2 1132.01 2C1132.03 2 1132.05 2 1132.07 2C1132.09 2 1132.11 2 1132.13 2C1132.15 2 1132.17 2 1132.19 2C1132.21 2 1132.23 2 1132.25 2C1132.28 2 1132.3 2 1132.32 2C1132.34 2 1132.36 2 1132.38 2C1132.4 2 1132.42 2 1132.44 2C1132.46 2 1132.48 2 1132.5 2C1132.52 2 1132.54 2 1132.56 2C1132.58 2 1132.6 2 1132.62 2C1132.64 2 1132.66 2 1132.68 2C1132.7 2 1132.72 2 1132.74 2C1132.76 2 1132.78 2 1132.81 2C1132.83 2 1132.85 2 1132.87 2C1132.89 2 1132.91 2 1132.93 2C1132.95 2 1132.97 2 1132.99 2C1133.01 2 1133.03 2 1133.05 2C1133.07 2 1133.09 2 1133.11 2C1133.13 2 1133.15 2 1133.17 2C1133.19 2 1133.21 2 1133.23 2C1133.25 2 1133.27 2 1133.29 2C1133.32 2 1133.34 2 1133.36 2C1133.38 2 1133.4 2 1133.42 2C1133.44 2 1133.46 2 1133.48 2C1133.5 2 1133.52 2 1133.54 2C1133.56 2 1133.58 2 1133.6 2C1133.62 2 1133.64 2 1133.66 2C1133.68 2 1133.7 2 1133.72 2C1133.74 2 1133.76 2 1133.78 2C1133.81 2 1133.83 2 1133.85 2C1133.87 2 1133.89 2 1133.91 2C1133.93 2 1133.95 2 1133.97 2C1133.99 2 1134.01 2 1134.03 2C1134.05 2 1134.07 2 1134.09 2C1134.11 2 1134.13 2 1134.15 2C1134.17 2 1134.19 2 1134.21 2C1134.23 2 1134.25 2 1134.28 2C1134.3 2 1134.32 2 1134.34 2C1134.36 2 1134.38 2 1134.4 2C1134.42 2 1134.44 2 1134.46 2C1134.48 2 1134.5 2 1134.52 2C1134.54 2 1134.56 2 1134.58 2C1134.6 2 1134.62 2 1134.64 2C1134.66 2 1134.68 2 1134.7 2C1134.72 2 1134.75 2 1134.77 2C1134.79 2 1134.81 2 1134.83 2C1134.85 2 1134.87 2 1134.89 2C1134.91 2 1134.93 2 1134.95 2C1134.97 2 1134.99 2 1135.01 2C1135.03 2 1135.05 2 1135.07 2C1135.09 2 1135.11 2 1135.13 2C1135.15 2 1135.17 2 1135.2 2C1135.22 2 1135.24 2 1135.26 2C1135.28 2 1135.3 2 1135.32 2C1135.34 2 1135.36 2 1135.38 2C1135.4 2 1135.42 2 1135.44 2C1135.46 2 1135.48 2 1135.5 2C1135.52 2 1135.54 2 1135.56 2C1135.58 2 1135.6 2 1135.62 2C1135.65 2 1135.67 2 1135.69 2C1135.71 2 1135.73 2 1135.75 2C1135.77 2 1135.79 2 1135.81 2C1135.83 2 1135.85 2 1135.87 2C1135.89 2 1135.91 2 1135.93 2C1135.95 2 1135.97 2 1135.99 2C1136.01 2 1136.03 2 1136.05 2C1136.07 2 1136.1 2 1136.12 2C1136.14 2 1136.16 2 1136.18 2C1136.2 2 1136.22 2 1136.24 2C1136.26 2 1136.28 2 1136.3 2C1136.32 2 1136.34 2 1136.36 2C1136.38 2 1136.4 2 1136.42 2C1136.44 2 1136.46 2 1136.48 2C1136.5 2 1136.52 2 1136.55 2C1136.57 2 1136.59 2 1136.61 2C1136.63 2 1136.65 2 1136.67 2C1136.69 2 1136.71 2 1136.73 2C1136.75 2 1136.77 2 1136.79 2C1136.81 2 1136.83 2 1136.85 2C1136.87 2 1136.89 2 1136.91 2C1136.93 2 1136.95 2 1136.97 2C1136.99 2 1137.02 2 1137.04 2C1137.06 2 1137.08 2 1137.1 2C1137.12 2 1137.14 2 1137.16 2C1137.18 2 1137.2 2 1137.22 2C1137.24 2 1137.26 2 1137.28 2C1137.3 2 1137.32 2 1137.34 2C1137.36 2 1137.38 2 1137.4 2C1137.42 2 1137.44 2 1137.46 2C1137.48 2 1137.51 2 1137.53 2C1137.55 2 1137.57 2 1137.59 2C1137.61 2 1137.63 2 1137.65 2C1137.67 2 1137.69 2 1137.71 2C1137.73 2 1137.75 2 1137.77 2C1137.79 2 1137.81 2 1137.83 2C1137.85 2 1137.87 2 1137.89 2C1137.91 2 1137.93 2 1137.95 2C1137.97 2 1137.99 2 1138.02 2C1138.04 2 1138.06 2 1138.08 2C1138.1 2 1138.12 2 1138.14 2C1138.16 2 1138.18 2 1138.2 2C1138.22 2 1138.24 2 1138.26 2C1138.28 2 1138.3 2 1138.32 2C1138.34 2 1138.36 2 1138.38 2C1138.4 2 1138.42 2 1138.44 2C1138.46 2 1138.48 2 1138.5 2C1138.53 2 1138.55 2 1138.57 2C1138.59 2 1138.61 2 1138.63 2C1138.65 2 1138.67 2 1138.69 2C1138.71 2 1138.73 2 1138.75 2C1138.77 2 1138.79 2 1138.81 2C1138.83 2 1138.85 2 1138.87 2C1138.89 2 1138.91 2 1138.93 2C1138.95 2 1138.97 2 1138.99 2C1139.01 2 1139.03 2 1139.05 2C1139.07 2 1139.09 2 1139.12 2C1139.14 2 1139.16 2 1139.18 2C1139.2 2 1139.22 2 1139.24 2C1139.26 2 1139.28 2 1139.3 2C1139.32 2 1139.34 2 1139.36 2C1139.38 2 1139.4 2 1139.42 2C1139.44 2 1139.46 2 1139.48 2C1139.5 2 1139.52 2 1139.54 2C1139.56 2 1139.58 2 1139.6 2C1139.62 2 1139.64 2 1139.66 2C1139.68 2 1139.7 2 1139.72 2C1139.74 2 1139.77 2 1139.79 2C1139.81 2 1139.83 2 1139.85 2C1139.87 2 1139.89 2 1139.91 2C1139.93 2 1139.95 2 1139.97 2C1139.99 2 1140.01 2 1140.03 2C1140.05 2 1140.07 2 1140.09 2C1140.11 2 1140.13 2 1140.15 2C1140.17 2 1140.19 2 1140.21 2C1140.23 2 1140.25 2 1140.27 2C1140.29 2 1140.31 2 1140.33 2C1140.35 2 1140.37 2 1140.39 2C1140.41 2 1140.43 2 1140.45 2C1140.47 2 1140.49 2 1140.52 2C1140.54 2 1140.56 2 1140.58 2C1140.6 2 1140.62 2 1140.64 2C1140.66 2 1140.68 2 1140.7 2C1140.72 2 1140.74 2 1140.76 2C1140.78 2 1140.8 2 1140.82 2C1140.84 2 1140.86 2 1140.88 2C1140.9 2 1140.92 2 1140.94 2C1140.96 2 1140.98 2 1141 2C1141.02 2 1141.04 2 1141.06 2C1141.08 2 1141.1 2 1141.12 2C1141.14 2 1141.16 2 1141.18 2C1141.2 2 1141.22 2 1141.24 2C1141.26 2 1141.28 2 1141.3 2C1141.32 2 1141.34 2 1141.36 2C1141.38 2 1141.4 2 1141.42 2C1141.44 2 1141.46 2 1141.48 2C1141.5 2 1141.52 2 1141.54 2C1141.56 2 1141.58 2 1141.6 2C1141.62 2 1141.64 2 1141.66 2C1141.69 2 1141.71 2 1141.73 2C1141.75 2 1141.77 2 1141.79 2C1141.81 2 1141.83 2 1141.85 2C1141.87 2 1141.89 2 1141.91 2C1141.93 2 1141.95 2 1141.97 2C1141.99 2 1142.01 2 1142.03 2C1142.05 2 1142.07 2 1142.09 2C1142.11 2 1142.13 2 1142.15 2C1142.17 2 1142.19 2 1142.21 2C1142.23 2 1142.25 2 1142.27 2C1142.29 2 1142.31 2 1142.33 2C1142.35 2 1142.37 2 1142.39 2C1142.41 2 1142.43 2 1142.45 2C1142.47 2 1142.49 2 1142.51 2C1142.53 2 1142.55 2 1142.57 2C1142.59 2 1142.61 2 1142.63 2C1142.65 2 1142.67 2 1142.69 2C1142.71 2 1142.73 2 1142.75 2C1142.77 2 1142.79 2 1142.81 2C1142.83 2 1142.85 2 1142.87 2C1142.89 2 1142.91 2 1142.93 2C1142.95 2 1142.97 2 1142.99 2C1143.01 2 1143.03 2 1143.05 2C1143.07 2 1143.09 2 1143.11 2C1143.13 2 1143.15 2 1143.17 2C1143.19 2 1143.21 2 1143.23 2C1143.25 2 1143.27 2 1143.29 2C1143.31 2 1143.33 2 1143.35 2C1143.37 2 1143.39 2 1143.41 2C1143.43 2 1143.45 2 1143.47 2C1143.49 2 1143.51 2 1143.53 2C1143.55 2 1143.57 2 1143.58 2C1143.6 2 1143.62 2 1143.64 2C1143.66 2 1143.68 2 1143.7 2C1143.72 2 1143.74 2 1143.76 2C1143.78 2 1143.8 2 1143.82 2C1143.84 2 1143.86 2 1143.88 2C1143.9 2 1143.92 2 1143.94 2C1143.96 2 1143.98 2 1144 2C1144.02 2 1144.04 2 1144.06 2C1144.08 2 1144.1 2 1144.12 2C1144.14 2 1144.16 2 1144.18 2C1144.2 2 1144.22 2 1144.24 2C1144.26 2 1144.28 2 1144.3 2C1144.32 2 1144.34 2 1144.36 2C1144.38 2 1144.4 2 1144.42 2C1144.44 2 1144.46 2 1144.48 2C1144.5 2 1144.52 2 1144.54 2C1144.56 2 1144.57 2 1144.59 2C1144.61 2 1144.63 2 1144.65 2C1144.67 2 1144.69 2 1144.71 2C1144.73 2 1144.75 2 1144.77 2C1144.79 2 1144.81 2 1144.83 2C1144.85 2 1144.87 2 1144.89 2C1144.91 2 1144.93 2 1144.95 2C1144.97 2 1144.99 2 1145.01 2C1145.03 2 1145.05 2 1145.07 2C1145.09 2 1145.11 2 1145.13 2C1145.15 2 1145.16 2 1145.18 2C1145.2 2 1145.22 2 1145.24 2C1145.26 2 1145.28 2 1145.3 2C1145.32 2 1145.34 2 1145.36 2C1145.38 2 1145.4 2 1145.42 2C1145.44 2 1145.46 2 1145.48 2C1145.5 2 1145.52 2 1145.54 2C1145.56 2 1145.58 2 1145.6 2C1145.62 2 1145.63 2 1145.65 2C1145.67 2 1145.69 2 1145.71 2C1145.73 2 1145.75 2 1145.77 2C1145.79 2 1145.81 2 1145.83 2C1145.85 2 1145.87 2 1145.89 2C1145.91 2 1145.93 2 1145.95 2C1145.97 2 1145.99 2 1146.01 2V0C1145.99 0 1145.97 0 1145.95 0C1145.93 0 1145.91 0 1145.89 0C1145.87 0 1145.85 0 1145.83 0C1145.81 0 1145.79 0 1145.77 0C1145.75 0 1145.73 0 1145.71 0C1145.69 0 1145.67 0 1145.65 0C1145.63 0 1145.62 0 1145.6 0C1145.58 0 1145.56 0 1145.54 0C1145.52 0 1145.5 0 1145.48 0C1145.46 0 1145.44 0 1145.42 0C1145.4 0 1145.38 0 1145.36 0C1145.34 0 1145.32 0 1145.3 0C1145.28 0 1145.26 0 1145.24 0C1145.22 0 1145.2 0 1145.18 0C1145.16 0 1145.15 0 1145.13 0C1145.11 0 1145.09 0 1145.07 0C1145.05 0 1145.03 0 1145.01 0C1144.99 0 1144.97 0 1144.95 0C1144.93 0 1144.91 0 1144.89 0C1144.87 0 1144.85 0 1144.83 0C1144.81 0 1144.79 0 1144.77 0C1144.75 0 1144.73 0 1144.71 0C1144.69 0 1144.67 0 1144.65 0C1144.63 0 1144.61 0 1144.59 0C1144.57 0 1144.56 0 1144.54 0C1144.52 0 1144.5 0 1144.48 0C1144.46 0 1144.44 0 1144.42 0C1144.4 0 1144.38 0 1144.36 0C1144.34 0 1144.32 0 1144.3 0C1144.28 0 1144.26 0 1144.24 0C1144.22 0 1144.2 0 1144.18 0C1144.16 0 1144.14 0 1144.12 0C1144.1 0 1144.08 0 1144.06 0C1144.04 0 1144.02 0 1144 0C1143.98 0 1143.96 0 1143.94 0C1143.92 0 1143.9 0 1143.88 0C1143.86 0 1143.84 0 1143.82 0C1143.8 0 1143.78 0 1143.76 0C1143.74 0 1143.72 0 1143.7 0C1143.68 0 1143.66 0 1143.64 0C1143.62 0 1143.6 0 1143.58 0C1143.57 0 1143.55 0 1143.53 0C1143.51 0 1143.49 0 1143.47 0C1143.45 0 1143.43 0 1143.41 0C1143.39 0 1143.37 0 1143.35 0C1143.33 0 1143.31 0 1143.29 0C1143.27 0 1143.25 0 1143.23 0C1143.21 0 1143.19 0 1143.17 0C1143.15 0 1143.13 0 1143.11 0C1143.09 0 1143.07 0 1143.05 0C1143.03 0 1143.01 0 1142.99 0C1142.97 0 1142.95 0 1142.93 0C1142.91 0 1142.89 0 1142.87 0C1142.85 0 1142.83 0 1142.81 0C1142.79 0 1142.77 0 1142.75 0C1142.73 0 1142.71 0 1142.69 0C1142.67 0 1142.65 0 1142.63 0C1142.61 0 1142.59 0 1142.57 0C1142.55 0 1142.53 0 1142.51 0C1142.49 0 1142.47 0 1142.45 0C1142.43 0 1142.41 0 1142.39 0C1142.37 0 1142.35 0 1142.33 0C1142.31 0 1142.29 0 1142.27 0C1142.25 0 1142.23 0 1142.21 0C1142.19 0 1142.17 0 1142.15 0C1142.13 0 1142.11 0 1142.09 0C1142.07 0 1142.05 0 1142.03 0C1142.01 0 1141.99 0 1141.97 0C1141.95 0 1141.93 0 1141.91 0C1141.89 0 1141.87 0 1141.85 0C1141.83 0 1141.81 0 1141.79 0C1141.77 0 1141.75 0 1141.73 0C1141.71 0 1141.69 0 1141.66 0C1141.64 0 1141.62 0 1141.6 0C1141.58 0 1141.56 0 1141.54 0C1141.52 0 1141.5 0 1141.48 0C1141.46 0 1141.44 0 1141.42 0C1141.4 0 1141.38 0 1141.36 0C1141.34 0 1141.32 0 1141.3 0C1141.28 0 1141.26 0 1141.24 0C1141.22 0 1141.2 0 1141.18 0C1141.16 0 1141.14 0 1141.12 0C1141.1 0 1141.08 0 1141.06 0C1141.04 0 1141.02 0 1141 0C1140.98 0 1140.96 0 1140.94 0C1140.92 0 1140.9 0 1140.88 0C1140.86 0 1140.84 0 1140.82 0C1140.8 0 1140.78 0 1140.76 0C1140.74 0 1140.72 0 1140.7 0C1140.68 0 1140.66 0 1140.64 0C1140.62 0 1140.6 0 1140.58 0C1140.56 0 1140.54 0 1140.52 0C1140.49 0 1140.47 0 1140.45 0C1140.43 0 1140.41 0 1140.39 0C1140.37 0 1140.35 0 1140.33 0C1140.31 0 1140.29 0 1140.27 0C1140.25 0 1140.23 0 1140.21 0C1140.19 0 1140.17 0 1140.15 0C1140.13 0 1140.11 0 1140.09 0C1140.07 0 1140.05 0 1140.03 0C1140.01 0 1139.99 0 1139.97 0C1139.95 0 1139.93 0 1139.91 0C1139.89 0 1139.87 0 1139.85 0C1139.83 0 1139.81 0 1139.79 0C1139.77 0 1139.74 0 1139.72 0C1139.7 0 1139.68 0 1139.66 0C1139.64 0 1139.62 0 1139.6 0C1139.58 0 1139.56 0 1139.54 0C1139.52 0 1139.5 0 1139.48 0C1139.46 0 1139.44 0 1139.42 0C1139.4 0 1139.38 0 1139.36 0C1139.34 0 1139.32 0 1139.3 0C1139.28 0 1139.26 0 1139.24 0C1139.22 0 1139.2 0 1139.18 0C1139.16 0 1139.14 0 1139.12 0C1139.09 0 1139.07 0 1139.05 0C1139.03 0 1139.01 0 1138.99 0C1138.97 0 1138.95 0 1138.93 0C1138.91 0 1138.89 0 1138.87 0C1138.85 0 1138.83 0 1138.81 0C1138.79 0 1138.77 0 1138.75 0C1138.73 0 1138.71 0 1138.69 0C1138.67 0 1138.65 0 1138.63 0C1138.61 0 1138.59 0 1138.57 0C1138.55 0 1138.53 0 1138.5 0C1138.48 0 1138.46 0 1138.44 0C1138.42 0 1138.4 0 1138.38 0C1138.36 0 1138.34 0 1138.32 0C1138.3 0 1138.28 0 1138.26 0C1138.24 0 1138.22 0 1138.2 0C1138.18 0 1138.16 0 1138.14 0C1138.12 0 1138.1 0 1138.08 0C1138.06 0 1138.04 0 1138.02 0C1137.99 0 1137.97 0 1137.95 0C1137.93 0 1137.91 0 1137.89 0C1137.87 0 1137.85 0 1137.83 0C1137.81 0 1137.79 0 1137.77 0C1137.75 0 1137.73 0 1137.71 0C1137.69 0 1137.67 0 1137.65 0C1137.63 0 1137.61 0 1137.59 0C1137.57 0 1137.55 0 1137.53 0C1137.51 0 1137.48 0 1137.46 0C1137.44 0 1137.42 0 1137.4 0C1137.38 0 1137.36 0 1137.34 0C1137.32 0 1137.3 0 1137.28 0C1137.26 0 1137.24 0 1137.22 0C1137.2 0 1137.18 0 1137.16 0C1137.14 0 1137.12 0 1137.1 0C1137.08 0 1137.06 0 1137.04 0C1137.02 0 1136.99 0 1136.97 0C1136.95 0 1136.93 0 1136.91 0C1136.89 0 1136.87 0 1136.85 0C1136.83 0 1136.81 0 1136.79 0C1136.77 0 1136.75 0 1136.73 0C1136.71 0 1136.69 0 1136.67 0C1136.65 0 1136.63 0 1136.61 0C1136.59 0 1136.57 0 1136.55 0C1136.52 0 1136.5 0 1136.48 0C1136.46 0 1136.44 0 1136.42 0C1136.4 0 1136.38 0 1136.36 0C1136.34 0 1136.32 0 1136.3 0C1136.28 0 1136.26 0 1136.24 0C1136.22 0 1136.2 0 1136.18 0C1136.16 0 1136.14 0 1136.12 0C1136.1 0 1136.07 0 1136.05 0C1136.03 0 1136.01 0 1135.99 0C1135.97 0 1135.95 0 1135.93 0C1135.91 0 1135.89 0 1135.87 0C1135.85 0 1135.83 0 1135.81 0C1135.79 0 1135.77 0 1135.75 0C1135.73 0 1135.71 0 1135.69 0C1135.67 0 1135.65 0 1135.62 0C1135.6 0 1135.58 0 1135.56 0C1135.54 0 1135.52 0 1135.5 0C1135.48 0 1135.46 0 1135.44 0C1135.42 0 1135.4 0 1135.38 0C1135.36 0 1135.34 0 1135.32 0C1135.3 0 1135.28 0 1135.26 0C1135.24 0 1135.22 0 1135.2 0C1135.17 0 1135.15 0 1135.13 0C1135.11 0 1135.09 0 1135.07 0C1135.05 0 1135.03 0 1135.01 0C1134.99 0 1134.97 0 1134.95 0C1134.93 0 1134.91 0 1134.89 0C1134.87 0 1134.85 0 1134.83 0C1134.81 0 1134.79 0 1134.77 0C1134.75 0 1134.72 0 1134.7 0C1134.68 0 1134.66 0 1134.64 0C1134.62 0 1134.6 0 1134.58 0C1134.56 0 1134.54 0 1134.52 0C1134.5 0 1134.48 0 1134.46 0C1134.44 0 1134.42 0 1134.4 0C1134.38 0 1134.36 0 1134.34 0C1134.32 0 1134.3 0 1134.28 0C1134.25 0 1134.23 0 1134.21 0C1134.19 0 1134.17 0 1134.15 0C1134.13 0 1134.11 0 1134.09 0C1134.07 0 1134.05 0 1134.03 0C1134.01 0 1133.99 0 1133.97 0C1133.95 0 1133.93 0 1133.91 0C1133.89 0 1133.87 0 1133.85 0C1133.83 0 1133.81 0 1133.78 0C1133.76 0 1133.74 0 1133.72 0C1133.7 0 1133.68 0 1133.66 0C1133.64 0 1133.62 0 1133.6 0C1133.58 0 1133.56 0 1133.54 0C1133.52 0 1133.5 0 1133.48 0C1133.46 0 1133.44 0 1133.42 0C1133.4 0 1133.38 0 1133.36 0C1133.34 0 1133.32 0 1133.29 0C1133.27 0 1133.25 0 1133.23 0C1133.21 0 1133.19 0 1133.17 0C1133.15 0 1133.13 0 1133.11 0C1133.09 0 1133.07 0 1133.05 0C1133.03 0 1133.01 0 1132.99 0C1132.97 0 1132.95 0 1132.93 0C1132.91 0 1132.89 0 1132.87 0C1132.85 0 1132.83 0 1132.81 0C1132.78 0 1132.76 0 1132.74 0C1132.72 0 1132.7 0 1132.68 0C1132.66 0 1132.64 0 1132.62 0C1132.6 0 1132.58 0 1132.56 0C1132.54 0 1132.52 0 1132.5 0C1132.48 0 1132.46 0 1132.44 0C1132.42 0 1132.4 0 1132.38 0C1132.36 0 1132.34 0 1132.32 0C1132.3 0 1132.28 0 1132.25 0C1132.23 0 1132.21 0 1132.19 0C1132.17 0 1132.15 0 1132.13 0C1132.11 0 1132.09 0 1132.07 0C1132.05 0 1132.03 0 1132.01 0C1131.99 0 1131.97 0 1131.95 0C1131.93 0 1131.91 0 1131.89 0C1131.87 0 1131.85 0 1131.83 0C1131.81 0 1131.79 0 1131.77 0C1131.75 0 1131.73 0 1131.71 0C1131.69 0 1131.66 0 1131.64 0C1131.62 0 1131.6 0 1131.58 0C1131.56 0 1131.54 0 1131.52 0C1131.5 0 1131.48 0 1131.46 0C1131.44 0 1131.42 0 1131.4 0C1131.38 0 1131.36 0 1131.34 0C1131.32 0 1131.3 0 1131.28 0C1131.26 0 1131.24 0 1131.22 0C1131.2 0 1131.18 0 1131.16 0C1131.14 0 1131.12 0 1131.1 0C1131.08 0 1131.06 0 1131.04 0C1131.01 0 1130.99 0 1130.97 0C1130.95 0 1130.93 0 1130.91 0C1130.89 0 1130.87 0 1130.85 0C1130.83 0 1130.81 0 1130.79 0C1130.77 0 1130.75 0 1130.73 0C1130.71 0 1130.69 0 1130.67 0C1130.65 0 1130.63 0 1130.61 0C1130.59 0 1130.57 0 1130.55 0C1130.53 0 1130.51 0 1130.49 0C1130.47 0 1130.45 0 1130.43 0C1130.41 0 1130.39 0 1130.37 0C1130.35 0 1130.33 0 1130.31 0C1130.29 0 1130.27 0 1130.25 0C1130.23 0 1130.2 0 1130.18 0C1130.16 0 1130.14 0 1130.12 0C1130.1 0 1130.08 0 1130.06 0C1130.04 0 1130.02 0 1130 0C1129.98 0 1129.96 0 1129.94 0C1129.92 0 1129.9 0 1129.88 0C1129.86 0 1129.84 0 1129.82 0C1129.8 0 1129.78 0 1129.76 0C1129.74 0 1129.72 0 1129.7 0C1129.68 0 1129.66 0 1129.64 0C1129.62 0 1129.6 0 1129.58 0C1129.56 0 1129.54 0 1129.52 0C1129.5 0 1129.48 0 1129.46 0C1129.44 0 1129.42 0 1129.4 0C1129.38 0 1129.36 0 1129.34 0C1129.32 0 1129.3 0 1129.28 0C1129.26 0 1129.24 0 1129.22 0C1129.2 0 1129.18 0 1129.16 0C1129.14 0 1129.12 0 1129.1 0C1129.08 0 1129.06 0 1129.04 0C1129.02 0 1129 0 1128.98 0C1128.96 0 1128.94 0 1128.92 0C1128.9 0 1128.88 0 1128.86 0C1128.83 0 1128.81 0 1128.79 0C1128.77 0 1128.75 0 1128.73 0C1128.71 0 1128.69 0 1128.67 0C1128.65 0 1128.63 0 1128.61 0C1128.59 0 1128.57 0 1128.55 0C1128.53 0 1128.51 0 1128.49 0C1128.47 0 1128.45 0 1128.43 0C1128.41 0 1128.39 0 1128.37 0C1128.35 0 1128.33 0 1128.31 0C1128.29 0 1128.27 0 1128.25 0C1128.23 0 1128.21 0 1128.19 0C1128.17 0 1128.15 0 1128.13 0C1128.11 0 1128.09 0 1128.07 0C1128.05 0 1128.03 0 1128.01 0C1127.99 0 1127.97 0 1127.95 0C1127.93 0 1127.91 0 1127.89 0C1127.87 0 1127.85 0 1127.83 0C1127.81 0 1127.79 0 1127.77 0C1127.75 0 1127.73 0 1127.71 0C1127.69 0 1127.67 0 1127.66 0C1127.64 0 1127.62 0 1127.6 0C1127.58 0 1127.56 0 1127.54 0C1127.52 0 1127.5 0 1127.48 0C1127.46 0 1127.44 0 1127.42 0C1127.4 0 1127.38 0 1127.36 0C1127.34 0 1127.32 0 1127.3 0C1127.28 0 1127.26 0 1127.24 0C1127.22 0 1127.2 0 1127.18 0C1127.16 0 1127.14 0 1127.12 0C1127.1 0 1127.08 0 1127.06 0C1127.04 0 1127.02 0 1127 0C1126.98 0 1126.96 0 1126.94 0C1126.92 0 1126.9 0 1126.88 0C1126.86 0 1126.84 0 1126.82 0C1126.8 0 1126.78 0 1126.76 0C1126.74 0 1126.72 0 1126.7 0C1126.68 0 1126.66 0 1126.64 0C1126.62 0 1126.6 0 1126.58 0C1126.56 0 1126.54 0 1126.52 0C1126.5 0 1126.48 0 1126.46 0C1126.45 0 1126.43 0 1126.41 0C1126.39 0 1126.37 0 1126.35 0C1126.33 0 1126.31 0 1126.29 0C1126.27 0 1126.25 0 1126.23 0C1126.21 0 1126.19 0 1126.17 0C1126.15 0 1126.13 0 1126.11 0C1126.09 0 1126.07 0 1126.05 0C1126.03 0 1126.01 0 1125.99 0C1125.97 0 1125.95 0 1125.93 0C1125.91 0 1125.89 0 1125.87 0C1125.85 0 1125.83 0 1125.82 0C1125.8 0 1125.78 0 1125.76 0C1125.74 0 1125.72 0 1125.7 0C1125.68 0 1125.66 0 1125.64 0C1125.62 0 1125.6 0 1125.58 0C1125.56 0 1125.54 0 1125.52 0C1125.5 0 1125.48 0 1125.46 0C1125.44 0 1125.42 0 1125.4 0C1125.38 0 1125.36 0 1125.34 0C1125.33 0 1125.31 0 1125.29 0C1125.27 0 1125.25 0 1125.23 0C1125.21 0 1125.19 0 1125.17 0C1125.15 0 1125.13 0 1125.11 0C1125.09 0 1125.07 0 1125.05 0C1125.03 0 1125.01 0 1124.99 0C1124.97 0 1124.95 0 1124.94 0C1124.92 0 1124.9 0 1124.88 0C1124.86 0 1124.84 0 1124.82 0C1124.8 0 1124.78 0 1124.76 0C1124.74 0 1124.72 0 1124.7 0C1124.68 0 1124.66 0 1124.64 0C1124.62 0 1124.6 0 1124.59 0C1124.57 0 1124.55 0 1124.53 0C1124.51 0 1124.49 0 1124.47 0C1124.45 0 1124.43 0 1124.41 0C1124.39 0 1124.37 0 1124.35 0C1124.33 0 1124.31 0 1124.29 0C1124.28 0 1124.26 0 1124.24 0C1124.22 0 1124.2 0 1124.18 0C1124.16 0 1124.14 0 1124.12 0C1124.1 0 1124.08 0 1124.06 0C1124.04 0 1124.02 0 1124 0C1123.99 0 1123.97 0 1123.95 0C1123.93 0 1123.91 0 1123.89 0C1123.87 0 1123.85 0 1123.83 0C1123.81 0 1123.79 0 1123.77 0C1123.75 0 1123.74 0 1123.72 0C1123.7 0 1123.68 0 1123.66 0C1123.64 0 1123.62 0 1123.6 0C1123.58 0 1123.56 0 1123.54 0C1123.52 0 1123.5 0 1123.49 0C1123.47 0 1123.45 0 1123.43 0C1123.41 0 1123.39 0 1123.37 0C1123.35 0 1123.33 0 1123.31 0C1123.29 0 1123.27 0 1123.26 0C1123.24 0 1123.22 0 1123.2 0C1123.18 0 1123.16 0 1123.14 0C1123.12 0 1123.1 0 1123.08 0C1123.06 0 1123.05 0 1123.03 0C1123.01 0 1122.99 0 1122.97 0C1122.95 0 1122.93 0 1122.91 0C1122.89 0 1122.87 0 1122.86 0C1122.84 0 1122.82 0 1122.8 0C1122.78 0 1122.76 0 1122.74 0C1122.72 0 1122.7 0 1122.68 0C1122.67 0 1122.65 0 1122.63 0C1122.61 0 1122.59 0 1122.57 0C1122.55 0 1122.53 0 1122.51 0C1122.49 0 1122.48 0 1122.46 0C1122.44 0 1122.42 0 1122.4 0C1122.38 0 1122.36 0 1122.34 0C1122.32 0 1122.31 0 1122.29 0C1122.27 0 1122.25 0 1122.23 0C1122.21 0 1122.19 0 1122.17 0C1122.15 0 1122.14 0 1122.12 0C1122.1 0 1122.08 0 1122.06 0C1122.04 0 1122.02 0 1122 0C1121.98 0 1121.97 0 1121.95 0C1121.93 0 1121.91 0 1121.89 0C1121.87 0 1121.85 0 1121.83 0C1121.82 0 1121.8 0 1121.78 0C1121.76 0 1121.74 0 1121.72 0C1121.7 0 1121.68 0 1121.67 0C1121.65 0 1121.63 0 1121.61 0C1121.59 0 1121.57 0 1121.55 0C1121.53 0 1121.52 0 1121.5 0C1121.48 0 1121.46 0 1121.44 0C1121.42 0 1121.4 0 1121.39 0C1121.37 0 1121.35 0 1121.33 0C1121.31 0 1121.29 0 1121.27 0C1121.25 0 1121.24 0 1121.22 0C1121.2 0 1121.18 0 1121.16 0C1121.14 0 1121.12 0 1121.11 0C1121.09 0 1121.07 0 1121.05 0C1121.03 0 1121.01 0 1120.99 0C1120.98 0 1120.96 0 1120.94 0C1120.92 0 1120.9 0 1120.88 0C1120.87 0 1120.85 0 1120.83 0C1120.81 0 1120.79 0 1120.77 0C1120.75 0 1120.74 0 1120.72 0C1120.7 0 1120.68 0 1120.66 0C1120.64 0 1120.62 0 1120.61 0C1120.59 0 1120.57 0 1120.55 0C1120.53 0 1120.51 0 1120.5 0C1120.48 0 1120.46 0 1120.44 0C1120.42 0 1120.4 0 1120.39 0C1120.37 0 1120.35 0 1120.33 0C1120.31 0 1120.29 0 1120.28 0C1120.26 0 1120.24 0 1120.22 0C1120.2 0 1120.18 0 1120.17 0C1120.15 0 1120.13 0 1120.11 0C1120.09 0 1120.07 0 1120.06 0C1120.04 0 1120.02 0 1120 0C1119.98 0 1119.96 0 1119.95 0C1119.93 0 1119.91 0 1119.89 0C1119.87 0 1119.86 0 1119.84 0C1119.82 0 1119.8 0 1119.78 0C1119.76 0 1119.75 0 1119.73 0C1119.71 0 1119.69 0 1119.67 0C1119.66 0 1119.64 0 1119.62 0C1119.6 0 1119.58 0 1119.56 0C1119.55 0 1119.53 0 1119.51 0C1119.49 0 1119.47 0 1119.46 0C1119.44 0 1119.42 0 1119.4 0C1119.38 0 1119.37 0 1119.35 0C1119.33 0 1119.31 0 1119.29 0C1119.28 0 1119.26 0 1119.24 0C1119.22 0 1119.2 0 1119.19 0C1119.17 0 1119.15 0 1119.13 0C1119.11 0 1119.1 0 1119.08 0C1119.06 0 1119.04 0 1119.02 0C1119.01 0 1118.99 0 1118.97 0C1118.95 0 1118.93 0 1118.92 0C1118.9 0 1118.88 0 1118.86 0C1118.84 0 1118.83 0 1118.81 0C1118.79 0 1118.77 0 1118.76 0C1118.74 0 1118.72 0 1118.7 0C1118.68 0 1118.67 0 1118.65 0C1118.63 0 1118.61 0 1118.6 0C1118.58 0 1118.56 0 1118.54 0C1118.52 0 1118.51 0 1118.49 0C1118.47 0 1118.45 0 1118.44 0C1118.42 0 1118.4 0 1118.38 0C1118.36 0 1118.35 0 1118.33 0C1118.31 0 1118.29 0 1118.28 0C1118.26 0 1118.24 0 1118.22 0C1118.21 0 1118.19 0 1118.17 0C1118.15 0 1118.13 0 1118.12 0C1118.1 0 1118.08 0 1118.06 0C1118.05 0 1118.03 0 1118.01 0C1117.99 0 1117.98 0 1117.96 0C1117.94 0 1117.92 0 1117.91 0C1117.89 0 1117.87 0 1117.85 0C1117.84 0 1117.82 0 1117.8 0C1117.78 0 1117.77 0 1117.75 0C1117.73 0 1117.71 0 1117.7 0C1117.68 0 1117.66 0 1117.64 0C1117.63 0 1117.61 0 1117.59 0C1117.57 0 1117.56 0 1117.54 0C1117.52 0 1117.5 0 1117.49 0C1117.47 0 1117.45 0 1117.43 0C1117.42 0 1117.4 0 1117.38 0C1117.37 0 1117.35 0 1117.33 0C1117.31 0 1117.3 0 1117.28 0C1117.26 0 1117.24 0 1117.23 0C1117.21 0 1117.19 0 1117.17 0C1117.16 0 1117.14 0 1117.12 0C1117.11 0 1117.09 0 1117.07 0C1117.05 0 1117.04 0 1117.02 0C1117 0 1116.99 0 1116.97 0C1116.95 0 1116.93 0 1116.92 0C1116.9 0 1116.88 0 1116.87 0C1116.85 0 1116.83 0 1116.81 0C1116.8 0 1116.78 0 1116.76 0C1116.75 0 1116.73 0 1116.71 0C1116.69 0 1116.68 0 1116.66 0C1116.64 0 1116.63 0 1116.61 0C1116.59 0 1116.57 0 1116.56 0C1116.54 0 1116.52 0 1116.51 0C1116.49 0 1116.47 0 1116.46 0C1116.44 0 1116.42 0 1116.4 0C1116.39 0 1116.37 0 1116.35 0C1116.34 0 1116.32 0 1116.3 0C1116.29 0 1116.27 0 1116.25 0C1116.24 0 1116.22 0 1116.2 0C1116.19 0 1116.17 0 1116.15 0C1116.13 0 1116.12 0 1116.1 0C1116.08 0 1116.07 0 1116.05 0C1116.03 0 1116.02 0 1116 0V2ZM1167 23V239H1169V23H1167ZM0 283V306H2V283H0ZM23 329H64V327H23V329ZM554 260H23V262H554V260ZM1146 260H578V262H1146V260ZM0 306C0 318.703 10.2975 329 23 329V327C11.402 327 2 317.598 2 306H0ZM2 283C2 271.402 11.402 262 23 262V260C10.2975 260 0 270.297 0 283H2ZM1167 239C1167 250.598 1157.6 260 1146 260V262C1158.7 262 1169 251.703 1169 239H1167ZM1146.01 2C1157.6 2 1167 11.4017 1167 23H1169C1169 10.2978 1158.71 0 1146.01 0V2Z" fill="url(#paint0_linear_19_9662)"/>
<path d="M564 260C564.552 260 565 260.448 565 261C565 261.552 564.552 262 564 262V260ZM562.293 261.707C561.902 261.317 561.902 260.683 562.293 260.293L568.657 253.929C569.047 253.538 569.681 253.538 570.071 253.929C570.462 254.319 570.462 254.953 570.071 255.343L564.414 261L570.071 266.657C570.462 267.047 570.462 267.681 570.071 268.071C569.681 268.462 569.047 268.462 568.657 268.071L562.293 261.707ZM564 262H563V260H564V262Z" fill="url(#paint1_linear_19_9662)"/>
<defs>
<linearGradient id="paint0_linear_19_9662" x1="1261.21" y1="53.5302" x2="1211.31" y2="53.5302" gradientUnits="userSpaceOnUse">
<stop stop-color="#00FFFF"/>
<stop offset="0.521875" stop-color="#00FFFF"/>
<stop offset="1" stop-color="#00FFFF"/>
</linearGradient>
<linearGradient id="paint1_linear_19_9662" x1="562.975" y1="261.497" x2="564" y2="261.497" gradientUnits="userSpaceOnUse">
<stop stop-color="#00FFFF"/>
<stop offset="0.521875" stop-color="#00FFFF"/>
<stop offset="1" stop-color="#00FFFF"/>
</linearGradient>
</defs>
</svg>
