<svg width="900" height="356" viewBox="0 0 900 356" fill="none" xmlns="http://www.w3.org/2000/svg">
<path d="M834.981 0C834.428 0 833.981 0.447715 833.981 1C833.981 1.55228 834.428 2 834.981 2V0ZM65.7071 348.707C66.0976 348.317 66.0976 347.683 65.7071 347.293L59.3431 340.929C58.9526 340.538 58.3195 340.538 57.9289 340.929C57.5384 341.319 57.5384 341.953 57.9289 342.343L63.5858 348L57.9289 353.657C57.5384 354.047 57.5384 354.681 57.9289 355.071C58.3195 355.462 58.9526 355.462 59.3431 355.071L65.7071 348.707ZM432 259C432.552 259 433 258.552 433 258C433 257.448 432.552 257 432 257V259ZM452.154 257C451.602 257 451.154 257.448 451.154 258C451.154 258.552 451.602 259 452.154 259V257ZM834.981 2C834.993 2 835.006 2 835.019 2C835.031 2 835.044 2 835.057 2C835.069 2 835.082 2 835.095 2C835.108 2 835.12 2 835.133 2C835.146 2 835.159 2 835.172 2C835.185 2 835.198 2 835.211 2C835.224 2 835.237 2 835.25 2C835.263 2 835.276 2 835.289 2C835.302 2 835.316 2 835.329 2C835.342 2 835.355 2 835.369 2C835.382 2 835.395 2 835.409 2C835.422 2 835.435 2 835.449 2C835.462 2 835.476 2 835.489 2C835.503 2 835.516 2 835.53 2C835.543 2 835.557 2 835.571 2C835.584 2 835.598 2 835.612 2C835.625 2 835.639 2 835.653 2C835.667 2 835.681 2 835.695 2C835.708 2 835.722 2 835.736 2C835.75 2 835.764 2 835.778 2C835.792 2 835.806 2 835.82 2C835.834 2 835.848 2 835.863 2C835.877 2 835.891 2 835.905 2C835.919 2 835.934 2 835.948 2C835.962 2 835.977 2 835.991 2C836.005 2 836.02 2 836.034 2C836.048 2 836.063 2 836.077 2C836.092 2 836.106 2 836.121 2C836.136 2 836.15 2 836.165 2C836.179 2 836.194 2 836.209 2C836.224 2 836.238 2 836.253 2C836.268 2 836.283 2 836.297 2C836.312 2 836.327 2 836.342 2C836.357 2 836.372 2 836.387 2C836.402 2 836.417 2 836.432 2C836.447 2 836.462 2 836.477 2C836.492 2 836.507 2 836.523 2C836.538 2 836.553 2 836.568 2C836.584 2 836.599 2 836.614 2C836.629 2 836.645 2 836.66 2C836.676 2 836.691 2 836.706 2C836.722 2 836.737 2 836.753 2C836.768 2 836.784 2 836.8 2C836.815 2 836.831 2 836.846 2C836.862 2 836.878 2 836.893 2C836.909 2 836.925 2 836.941 2C836.957 2 836.972 2 836.988 2C837.004 2 837.02 2 837.036 2C837.052 2 837.068 2 837.084 2C837.1 2 837.116 2 837.132 2C837.148 2 837.164 2 837.18 2C837.196 2 837.212 2 837.228 2C837.245 2 837.261 2 837.277 2C837.293 2 837.31 2 837.326 2C837.342 2 837.359 2 837.375 2C837.391 2 837.408 2 837.424 2C837.441 2 837.457 2 837.474 2C837.49 2 837.507 2 837.523 2C837.54 2 837.556 2 837.573 2C837.59 2 837.606 2 837.623 2C837.64 2 837.656 2 837.673 2C837.69 2 837.707 2 837.724 2C837.74 2 837.757 2 837.774 2C837.791 2 837.808 2 837.825 2C837.842 2 837.859 2 837.876 2C837.893 2 837.91 2 837.927 2C837.944 2 837.961 2 837.978 2C837.995 2 838.013 2 838.03 2C838.047 2 838.064 2 838.081 2C838.099 2 838.116 2 838.133 2C838.151 2 838.168 2 838.185 2C838.203 2 838.22 2 838.238 2C838.255 2 838.273 2 838.29 2C838.308 2 838.325 2 838.343 2C838.36 2 838.378 2 838.396 2C838.413 2 838.431 2 838.448 2C838.466 2 838.484 2 838.502 2C838.519 2 838.537 2 838.555 2C838.573 2 838.591 2 838.609 2C838.626 2 838.644 2 838.662 2C838.68 2 838.698 2 838.716 2C838.734 2 838.752 2 838.77 2C838.788 2 838.806 2 838.825 2C838.843 2 838.861 2 838.879 2C838.897 2 838.915 2 838.934 2C838.952 2 838.97 2 838.988 2C839.007 2 839.025 2 839.043 2C839.062 2 839.08 2 839.099 2C839.117 2 839.135 2 839.154 2C839.172 2 839.191 2 839.209 2C839.228 2 839.247 2 839.265 2C839.284 2 839.302 2 839.321 2C839.34 2 839.358 2 839.377 2C839.396 2 839.414 2 839.433 2C839.452 2 839.471 2 839.49 2C839.508 2 839.527 2 839.546 2C839.565 2 839.584 2 839.603 2C839.622 2 839.641 2 839.66 2C839.679 2 839.698 2 839.717 2C839.736 2 839.755 2 839.774 2C839.793 2 839.812 2 839.832 2C839.851 2 839.87 2 839.889 2C839.908 2 839.928 2 839.947 2C839.966 2 839.986 2 840.005 2C840.024 2 840.044 2 840.063 2C840.082 2 840.102 2 840.121 2C840.141 2 840.16 2 840.18 2C840.199 2 840.219 2 840.238 2C840.258 2 840.277 2 840.297 2C840.317 2 840.336 2 840.356 2C840.376 2 840.395 2 840.415 2C840.435 2 840.455 2 840.474 2C840.494 2 840.514 2 840.534 2C840.554 2 840.574 2 840.594 2C840.613 2 840.633 2 840.653 2C840.673 2 840.693 2 840.713 2C840.733 2 840.753 2 840.773 2C840.793 2 840.813 2 840.834 2C840.854 2 840.874 2 840.894 2C840.914 2 840.934 2 840.955 2C840.975 2 840.995 2 841.015 2C841.036 2 841.056 2 841.076 2C841.096 2 841.117 2 841.137 2C841.158 2 841.178 2 841.198 2C841.219 2 841.239 2 841.26 2C841.28 2 841.301 2 841.321 2C841.342 2 841.362 2 841.383 2C841.404 2 841.424 2 841.445 2C841.466 2 841.486 2 841.507 2C841.528 2 841.548 2 841.569 2C841.59 2 841.611 2 841.631 2C841.652 2 841.673 2 841.694 2C841.715 2 841.736 2 841.757 2C841.777 2 841.798 2 841.819 2C841.84 2 841.861 2 841.882 2C841.903 2 841.924 2 841.945 2C841.966 2 841.988 2 842.009 2C842.03 2 842.051 2 842.072 2C842.093 2 842.114 2 842.136 2C842.157 2 842.178 2 842.199 2C842.221 2 842.242 2 842.263 2C842.284 2 842.306 2 842.327 2C842.349 2 842.37 2 842.391 2C842.413 2 842.434 2 842.456 2C842.477 2 842.499 2 842.52 2C842.542 2 842.563 2 842.585 2C842.606 2 842.628 2 842.649 2C842.671 2 842.693 2 842.714 2C842.736 2 842.758 2 842.779 2C842.801 2 842.823 2 842.845 2C842.866 2 842.888 2 842.91 2C842.932 2 842.953 2 842.975 2C842.997 2 843.019 2 843.041 2C843.063 2 843.085 2 843.107 2C843.129 2 843.151 2 843.173 2C843.195 2 843.217 2 843.239 2C843.261 2 843.283 2 843.305 2C843.327 2 843.349 2 843.371 2C843.393 2 843.416 2 843.438 2C843.46 2 843.482 2 843.504 2C843.527 2 843.549 2 843.571 2C843.593 2 843.616 2 843.638 2C843.66 2 843.683 2 843.705 2C843.727 2 843.75 2 843.772 2C843.795 2 843.817 2 843.84 2C843.862 2 843.885 2 843.907 2C843.93 2 843.952 2 843.975 2C843.997 2 844.02 2 844.042 2C844.065 2 844.088 2 844.11 2C844.133 2 844.156 2 844.178 2C844.201 2 844.224 2 844.246 2C844.269 2 844.292 2 844.315 2C844.338 2 844.36 2 844.383 2C844.406 2 844.429 2 844.452 2C844.475 2 844.497 2 844.52 2C844.543 2 844.566 2 844.589 2C844.612 2 844.635 2 844.658 2C844.681 2 844.704 2 844.727 2C844.75 2 844.773 2 844.796 2C844.82 2 844.843 2 844.866 2C844.889 2 844.912 2 844.935 2C844.958 2 844.982 2 845.005 2C845.028 2 845.051 2 845.075 2C845.098 2 845.121 2 845.144 2C845.168 2 845.191 2 845.214 2C845.238 2 845.261 2 845.285 2C845.308 2 845.331 2 845.355 2C845.378 2 845.402 2 845.425 2C845.449 2 845.472 2 845.496 2C845.519 2 845.543 2 845.566 2C845.59 2 845.613 2 845.637 2C845.661 2 845.684 2 845.708 2C845.732 2 845.755 2 845.779 2C845.803 2 845.826 2 845.85 2C845.874 2 845.898 2 845.921 2C845.945 2 845.969 2 845.993 2C846.016 2 846.04 2 846.064 2C846.088 2 846.112 2 846.136 2C846.16 2 846.184 2 846.207 2C846.231 2 846.255 2 846.279 2C846.303 2 846.327 2 846.351 2C846.375 2 846.399 2 846.423 2C846.447 2 846.471 2 846.496 2C846.52 2 846.544 2 846.568 2C846.592 2 846.616 2 846.64 2C846.665 2 846.689 2 846.713 2C846.737 2 846.761 2 846.786 2C846.81 2 846.834 2 846.858 2C846.883 2 846.907 2 846.931 2C846.956 2 846.98 2 847.004 2C847.029 2 847.053 2 847.078 2C847.102 2 847.126 2 847.151 2C847.175 2 847.2 2 847.224 2C847.249 2 847.273 2 847.298 2C847.322 2 847.347 2 847.371 2C847.396 2 847.42 2 847.445 2C847.47 2 847.494 2 847.519 2C847.544 2 847.568 2 847.593 2C847.617 2 847.642 2 847.667 2C847.692 2 847.716 2 847.741 2C847.766 2 847.791 2 847.815 2C847.84 2 847.865 2 847.89 2C847.914 2 847.939 2 847.964 2C847.989 2 848.014 2 848.039 2C848.064 2 848.089 2 848.114 2C848.138 2 848.163 2 848.188 2C848.213 2 848.238 2 848.263 2C848.288 2 848.313 2 848.338 2C848.363 2 848.388 2 848.413 2C848.438 2 848.464 2 848.489 2C848.514 2 848.539 2 848.564 2C848.589 2 848.614 2 848.639 2C848.665 2 848.69 2 848.715 2C848.74 2 848.765 2 848.791 2C848.816 2 848.841 2 848.866 2C848.892 2 848.917 2 848.942 2C848.968 2 848.993 2 849.018 2C849.044 2 849.069 2 849.094 2C849.12 2 849.145 2 849.171 2C849.196 2 849.221 2 849.247 2C849.272 2 849.298 2 849.323 2C849.349 2 849.374 2 849.4 2C849.425 2 849.451 2 849.476 2C849.502 2 849.527 2 849.553 2C849.578 2 849.604 2 849.63 2C849.655 2 849.681 2 849.707 2C849.732 2 849.758 2 849.784 2C849.809 2 849.835 2 849.861 2C849.886 2 849.912 2 849.938 2C849.963 2 849.989 2 850.015 2C850.041 2 850.067 2 850.092 2C850.118 2 850.144 2 850.17 2C850.196 2 850.221 2 850.247 2C850.273 2 850.299 2 850.325 2C850.351 2 850.377 2 850.403 2C850.429 2 850.454 2 850.48 2C850.506 2 850.532 2 850.558 2C850.584 2 850.61 2 850.636 2C850.662 2 850.688 2 850.714 2C850.74 2 850.767 2 850.793 2C850.819 2 850.845 2 850.871 2C850.897 2 850.923 2 850.949 2C850.975 2 851.002 2 851.028 2C851.054 2 851.08 2 851.106 2C851.132 2 851.159 2 851.185 2C851.211 2 851.237 2 851.264 2C851.29 2 851.316 2 851.342 2C851.369 2 851.395 2 851.421 2C851.448 2 851.474 2 851.5 2C851.526 2 851.553 2 851.579 2C851.606 2 851.632 2 851.658 2C851.685 2 851.711 2 851.738 2C851.764 2 851.79 2 851.817 2C851.843 2 851.87 2 851.896 2C851.923 2 851.949 2 851.976 2C852.002 2 852.029 2 852.055 2C852.082 2 852.108 2 852.135 2C852.161 2 852.188 2 852.215 2C852.241 2 852.268 2 852.294 2C852.321 2 852.348 2 852.374 2C852.401 2 852.428 2 852.454 2C852.481 2 852.508 2 852.534 2C852.561 2 852.588 2 852.614 2C852.641 2 852.668 2 852.695 2C852.721 2 852.748 2 852.775 2C852.802 2 852.828 2 852.855 2C852.882 2 852.909 2 852.936 2C852.963 2 852.989 2 853.016 2C853.043 2 853.07 2 853.097 2C853.124 2 853.151 2 853.177 2C853.204 2 853.231 2 853.258 2C853.285 2 853.312 2 853.339 2C853.366 2 853.393 2 853.42 2C853.447 2 853.474 2 853.501 2C853.528 2 853.555 2 853.582 2C853.609 2 853.636 2 853.663 2C853.69 2 853.717 2 853.744 2C853.771 2 853.798 2 853.825 2C853.852 2 853.879 2 853.907 2C853.934 2 853.961 2 853.988 2C854.015 2 854.042 2 854.069 2C854.097 2 854.124 2 854.151 2C854.178 2 854.205 2 854.232 2C854.26 2 854.287 2 854.314 2C854.341 2 854.369 2 854.396 2C854.423 2 854.45 2 854.478 2C854.505 2 854.532 2 854.559 2C854.587 2 854.614 2 854.641 2C854.669 2 854.696 2 854.723 2C854.751 2 854.778 2 854.805 2C854.833 2 854.86 2 854.888 2C854.915 2 854.942 2 854.97 2C854.997 2 855.025 2 855.052 2C855.079 2 855.107 2 855.134 2C855.162 2 855.189 2 855.217 2C855.244 2 855.272 2 855.299 2C855.327 2 855.354 2 855.382 2C855.409 2 855.437 2 855.464 2C855.492 2 855.519 2 855.547 2C855.574 2 855.602 2 855.629 2C855.657 2 855.685 2 855.712 2C855.74 2 855.767 2 855.795 2C855.822 2 855.85 2 855.878 2C855.905 2 855.933 2 855.961 2C855.988 2 856.016 2 856.044 2C856.071 2 856.099 2 856.127 2C856.154 2 856.182 2 856.21 2C856.237 2 856.265 2 856.293 2C856.32 2 856.348 2 856.376 2C856.404 2 856.431 2 856.459 2C856.487 2 856.515 2 856.542 2C856.57 2 856.598 2 856.626 2C856.654 2 856.681 2 856.709 2C856.737 2 856.765 2 856.793 2C856.82 2 856.848 2 856.876 2C856.904 2 856.932 2 856.96 2C856.988 2 857.016 2 857.043 2C857.071 2 857.099 2 857.127 2C857.155 2 857.183 2 857.211 2C857.239 2 857.267 2 857.294 2C857.322 2 857.35 2 857.378 2C857.406 2 857.434 2 857.462 2C857.49 2 857.518 2 857.546 2C857.574 2 857.602 2 857.63 2C857.658 2 857.686 2 857.714 2C857.742 2 857.77 2 857.798 2C857.826 2 857.854 2 857.882 2C857.91 2 857.938 2 857.966 2C857.994 2 858.022 2 858.05 2C858.079 2 858.107 2 858.135 2C858.163 2 858.191 2 858.219 2C858.247 2 858.275 2 858.303 2C858.331 2 858.359 2 858.388 2C858.416 2 858.444 2 858.472 2C858.5 2 858.528 2 858.556 2C858.585 2 858.613 2 858.641 2C858.669 2 858.697 2 858.725 2C858.754 2 858.782 2 858.81 2C858.838 2 858.866 2 858.895 2C858.923 2 858.951 2 858.979 2C859.008 2 859.036 2 859.064 2C859.092 2 859.12 2 859.149 2C859.177 2 859.205 2 859.233 2C859.262 2 859.29 2 859.318 2C859.347 2 859.375 2 859.403 2C859.431 2 859.46 2 859.488 2C859.516 2 859.545 2 859.573 2C859.601 2 859.63 2 859.658 2C859.686 2 859.714 2 859.743 2C859.771 2 859.799 2 859.828 2C859.856 2 859.885 2 859.913 2C859.941 2 859.97 2 859.998 2C860.026 2 860.055 2 860.083 2C860.111 2 860.14 2 860.168 2C860.197 2 860.225 2 860.253 2C860.282 2 860.31 2 860.339 2C860.367 2 860.395 2 860.424 2C860.452 2 860.481 2 860.509 2C860.538 2 860.566 2 860.594 2C860.623 2 860.651 2 860.68 2C860.708 2 860.737 2 860.765 2C860.794 2 860.822 2 860.85 2C860.879 2 860.907 2 860.936 2C860.964 2 860.993 2 861.021 2C861.05 2 861.078 2 861.107 2C861.135 2 861.164 2 861.192 2C861.221 2 861.249 2 861.278 2C861.306 2 861.335 2 861.363 2C861.392 2 861.42 2 861.449 2C861.477 2 861.506 2 861.534 2C861.563 2 861.592 2 861.62 2C861.649 2 861.677 2 861.706 2C861.734 2 861.763 2 861.791 2C861.82 2 861.849 2 861.877 2C861.906 2 861.934 2 861.963 2C861.991 2 862.02 2 862.049 2C862.077 2 862.106 2 862.134 2C862.163 2 862.191 2 862.22 2C862.249 2 862.277 2 862.306 2C862.334 2 862.363 2 862.392 2C862.42 2 862.449 2 862.478 2C862.506 2 862.535 2 862.563 2C862.592 2 862.621 2 862.649 2C862.678 2 862.706 2 862.735 2C862.764 2 862.792 2 862.821 2C862.85 2 862.878 2 862.907 2C862.936 2 862.964 2 862.993 2C863.021 2 863.05 2 863.079 2C863.107 2 863.136 2 863.165 2C863.193 2 863.222 2 863.251 2C863.279 2 863.308 2 863.337 2C863.365 2 863.394 2 863.423 2C863.451 2 863.48 2 863.509 2C863.537 2 863.566 2 863.595 2C863.623 2 863.652 2 863.681 2C863.709 2 863.738 2 863.767 2C863.796 2 863.824 2 863.853 2C863.882 2 863.91 2 863.939 2C863.968 2 863.996 2 864.025 2C864.054 2 864.082 2 864.111 2C864.14 2 864.169 2 864.197 2C864.226 2 864.255 2 864.283 2C864.312 2 864.341 2 864.369 2C864.398 2 864.427 2 864.456 2C864.484 2 864.513 2 864.542 2C864.57 2 864.599 2 864.628 2C864.656 2 864.685 2 864.714 2C864.743 2 864.771 2 864.8 2C864.829 2 864.857 2 864.886 2C864.915 2 864.944 2 864.972 2C865.001 2 865.03 2 865.059 2C865.087 2 865.116 2 865.145 2C865.173 2 865.202 2 865.231 2C865.26 2 865.288 2 865.317 2C865.346 2 865.374 2 865.403 2C865.432 2 865.461 2 865.489 2C865.518 2 865.547 2 865.576 2C865.604 2 865.633 2 865.662 2C865.69 2 865.719 2 865.748 2C865.777 2 865.805 2 865.834 2C865.863 2 865.891 2 865.92 2C865.949 2 865.978 2 866.006 2C866.035 2 866.064 2 866.092 2C866.121 2 866.15 2 866.179 2C866.207 2 866.236 2 866.265 2C866.293 2 866.322 2 866.351 2C866.38 2 866.408 2 866.437 2C866.466 2 866.494 2 866.523 2C866.552 2 866.581 2 866.609 2C866.638 2 866.667 2 866.695 2C866.724 2 866.753 2 866.781 2C866.81 2 866.839 2 866.868 2C866.896 2 866.925 2 866.954 2C866.982 2 867.011 2 867.04 2C867.068 2 867.097 2 867.126 2C867.155 2 867.183 2 867.212 2C867.241 2 867.269 2 867.298 2C867.327 2 867.355 2 867.384 2C867.413 2 867.441 2 867.47 2C867.499 2 867.527 2 867.556 2C867.585 2 867.613 2 867.642 2C867.671 2 867.7 2 867.728 2C867.757 2 867.786 2 867.814 2C867.843 2 867.871 2 867.9 2C867.929 2 867.957 2 867.986 2C868.015 2 868.043 2 868.072 2C868.101 2 868.129 2 868.158 2C868.187 2 868.215 2 868.244 2C868.273 2 868.301 2 868.33 2C868.358 2 868.387 2 868.416 2C868.444 2 868.473 2 868.502 2C868.53 2 868.559 2 868.587 2C868.616 2 868.645 2 868.673 2C868.702 2 868.731 2 868.759 2C868.788 2 868.816 2 868.845 2C868.873 2 868.902 2 868.931 2C868.959 2 868.988 2 869.016 2C869.045 2 869.074 2 869.102 2C869.131 2 869.159 2 869.188 2C869.216 2 869.245 2 869.274 2C869.302 2 869.331 2 869.359 2C869.388 2 869.416 2 869.445 2C869.473 2 869.502 2 869.531 2C869.559 2 869.588 2 869.616 2C869.645 2 869.673 2 869.702 2C869.73 2 869.759 2 869.787 2C869.816 2 869.844 2 869.873 2C869.901 2 869.93 2 869.958 2C869.987 2 870.015 2 870.044 2C870.072 2 870.101 2 870.129 2C870.158 2 870.186 2 870.215 2C870.243 2 870.272 2 870.3 2C870.329 2 870.357 2 870.385 2C870.414 2 870.442 2 870.471 2C870.499 2 870.528 2 870.556 2C870.585 2 870.613 2 870.641 2C870.67 2 870.698 2 870.727 2C870.755 2 870.784 2 870.812 2C870.84 2 870.869 2 870.897 2C870.925 2 870.954 2 870.982 2C871.011 2 871.039 2 871.067 2C871.096 2 871.124 2 871.152 2C871.181 2 871.209 2 871.238 2C871.266 2 871.294 2 871.323 2C871.351 2 871.379 2 871.408 2C871.436 2 871.464 2 871.493 2C871.521 2 871.549 2 871.577 2C871.606 2 871.634 2 871.662 2C871.691 2 871.719 2 871.747 2C871.776 2 871.804 2 871.832 2C871.86 2 871.889 2 871.917 2C871.945 2 871.973 2 872.002 2V0C871.973 0 871.945 0 871.917 0C871.889 0 871.86 0 871.832 0C871.804 0 871.776 0 871.747 0C871.719 0 871.691 0 871.662 0C871.634 0 871.606 0 871.577 0C871.549 0 871.521 0 871.493 0C871.464 0 871.436 0 871.408 0C871.379 0 871.351 0 871.323 0C871.294 0 871.266 0 871.238 0C871.209 0 871.181 0 871.152 0C871.124 0 871.096 0 871.067 0C871.039 0 871.011 0 870.982 0C870.954 0 870.925 0 870.897 0C870.869 0 870.84 0 870.812 0C870.784 0 870.755 0 870.727 0C870.698 0 870.67 0 870.641 0C870.613 0 870.585 0 870.556 0C870.528 0 870.499 0 870.471 0C870.442 0 870.414 0 870.385 0C870.357 0 870.329 0 870.3 0C870.272 0 870.243 0 870.215 0C870.186 0 870.158 0 870.129 0C870.101 0 870.072 0 870.044 0C870.015 0 869.987 0 869.958 0C869.93 0 869.901 0 869.873 0C869.844 0 869.816 0 869.787 0C869.759 0 869.73 0 869.702 0C869.673 0 869.645 0 869.616 0C869.588 0 869.559 0 869.531 0C869.502 0 869.473 0 869.445 0C869.416 0 869.388 0 869.359 0C869.331 0 869.302 0 869.274 0C869.245 0 869.216 0 869.188 0C869.159 0 869.131 0 869.102 0C869.074 0 869.045 0 869.016 0C868.988 0 868.959 0 868.931 0C868.902 0 868.873 0 868.845 0C868.816 0 868.788 0 868.759 0C868.731 0 868.702 0 868.673 0C868.645 0 868.616 0 868.587 0C868.559 0 868.53 0 868.502 0C868.473 0 868.444 0 868.416 0C868.387 0 868.358 0 868.33 0C868.301 0 868.273 0 868.244 0C868.215 0 868.187 0 868.158 0C868.129 0 868.101 0 868.072 0C868.043 0 868.015 0 867.986 0C867.957 0 867.929 0 867.9 0C867.871 0 867.843 0 867.814 0C867.786 0 867.757 0 867.728 0C867.7 0 867.671 0 867.642 0C867.613 0 867.585 0 867.556 0C867.527 0 867.499 0 867.47 0C867.441 0 867.413 0 867.384 0C867.355 0 867.327 0 867.298 0C867.269 0 867.241 0 867.212 0C867.183 0 867.155 0 867.126 0C867.097 0 867.068 0 867.04 0C867.011 0 866.982 0 866.954 0C866.925 0 866.896 0 866.868 0C866.839 0 866.81 0 866.781 0C866.753 0 866.724 0 866.695 0C866.667 0 866.638 0 866.609 0C866.581 0 866.552 0 866.523 0C866.494 0 866.466 0 866.437 0C866.408 0 866.38 0 866.351 0C866.322 0 866.293 0 866.265 0C866.236 0 866.207 0 866.179 0C866.15 0 866.121 0 866.092 0C866.064 0 866.035 0 866.006 0C865.978 0 865.949 0 865.92 0C865.891 0 865.863 0 865.834 0C865.805 0 865.777 0 865.748 0C865.719 0 865.69 0 865.662 0C865.633 0 865.604 0 865.576 0C865.547 0 865.518 0 865.489 0C865.461 0 865.432 0 865.403 0C865.374 0 865.346 0 865.317 0C865.288 0 865.26 0 865.231 0C865.202 0 865.173 0 865.145 0C865.116 0 865.087 0 865.059 0C865.03 0 865.001 0 864.972 0C864.944 0 864.915 0 864.886 0C864.857 0 864.829 0 864.8 0C864.771 0 864.743 0 864.714 0C864.685 0 864.656 0 864.628 0C864.599 0 864.57 0 864.542 0C864.513 0 864.484 0 864.456 0C864.427 0 864.398 0 864.369 0C864.341 0 864.312 0 864.283 0C864.255 0 864.226 0 864.197 0C864.169 0 864.14 0 864.111 0C864.082 0 864.054 0 864.025 0C863.996 0 863.968 0 863.939 0C863.91 0 863.882 0 863.853 0C863.824 0 863.796 0 863.767 0C863.738 0 863.709 0 863.681 0C863.652 0 863.623 0 863.595 0C863.566 0 863.537 0 863.509 0C863.48 0 863.451 0 863.423 0C863.394 0 863.365 0 863.337 0C863.308 0 863.279 0 863.251 0C863.222 0 863.193 0 863.165 0C863.136 0 863.107 0 863.079 0C863.05 0 863.021 0 862.993 0C862.964 0 862.936 0 862.907 0C862.878 0 862.85 0 862.821 0C862.792 0 862.764 0 862.735 0C862.706 0 862.678 0 862.649 0C862.621 0 862.592 0 862.563 0C862.535 0 862.506 0 862.478 0C862.449 0 862.42 0 862.392 0C862.363 0 862.334 0 862.306 0C862.277 0 862.249 0 862.22 0C862.191 0 862.163 0 862.134 0C862.106 0 862.077 0 862.049 0C862.02 0 861.991 0 861.963 0C861.934 0 861.906 0 861.877 0C861.849 0 861.82 0 861.791 0C861.763 0 861.734 0 861.706 0C861.677 0 861.649 0 861.62 0C861.592 0 861.563 0 861.534 0C861.506 0 861.477 0 861.449 0C861.42 0 861.392 0 861.363 0C861.335 0 861.306 0 861.278 0C861.249 0 861.221 0 861.192 0C861.164 0 861.135 0 861.107 0C861.078 0 861.05 0 861.021 0C860.993 0 860.964 0 860.936 0C860.907 0 860.879 0 860.85 0C860.822 0 860.794 0 860.765 0C860.737 0 860.708 0 860.68 0C860.651 0 860.623 0 860.594 0C860.566 0 860.538 0 860.509 0C860.481 0 860.452 0 860.424 0C860.395 0 860.367 0 860.339 0C860.31 0 860.282 0 860.253 0C860.225 0 860.197 0 860.168 0C860.14 0 860.111 0 860.083 0C860.055 0 860.026 0 859.998 0C859.97 0 859.941 0 859.913 0C859.885 0 859.856 0 859.828 0C859.799 0 859.771 0 859.743 0C859.714 0 859.686 0 859.658 0C859.63 0 859.601 0 859.573 0C859.545 0 859.516 0 859.488 0C859.46 0 859.431 0 859.403 0C859.375 0 859.347 0 859.318 0C859.29 0 859.262 0 859.233 0C859.205 0 859.177 0 859.149 0C859.12 0 859.092 0 859.064 0C859.036 0 859.008 0 858.979 0C858.951 0 858.923 0 858.895 0C858.866 0 858.838 0 858.81 0C858.782 0 858.754 0 858.725 0C858.697 0 858.669 0 858.641 0C858.613 0 858.585 0 858.556 0C858.528 0 858.5 0 858.472 0C858.444 0 858.416 0 858.388 0C858.359 0 858.331 0 858.303 0C858.275 0 858.247 0 858.219 0C858.191 0 858.163 0 858.135 0C858.107 0 858.079 0 858.05 0C858.022 0 857.994 0 857.966 0C857.938 0 857.91 0 857.882 0C857.854 0 857.826 0 857.798 0C857.77 0 857.742 0 857.714 0C857.686 0 857.658 0 857.63 0C857.602 0 857.574 0 857.546 0C857.518 0 857.49 0 857.462 0C857.434 0 857.406 0 857.378 0C857.35 0 857.322 0 857.294 0C857.267 0 857.239 0 857.211 0C857.183 0 857.155 0 857.127 0C857.099 0 857.071 0 857.043 0C857.016 0 856.988 0 856.96 0C856.932 0 856.904 0 856.876 0C856.848 0 856.82 0 856.793 0C856.765 0 856.737 0 856.709 0C856.681 0 856.654 0 856.626 0C856.598 0 856.57 0 856.542 0C856.515 0 856.487 0 856.459 0C856.431 0 856.404 0 856.376 0C856.348 0 856.32 0 856.293 0C856.265 0 856.237 0 856.21 0C856.182 0 856.154 0 856.127 0C856.099 0 856.071 0 856.044 0C856.016 0 855.988 0 855.961 0C855.933 0 855.905 0 855.878 0C855.85 0 855.822 0 855.795 0C855.767 0 855.74 0 855.712 0C855.685 0 855.657 0 855.629 0C855.602 0 855.574 0 855.547 0C855.519 0 855.492 0 855.464 0C855.437 0 855.409 0 855.382 0C855.354 0 855.327 0 855.299 0C855.272 0 855.244 0 855.217 0C855.189 0 855.162 0 855.134 0C855.107 0 855.079 0 855.052 0C855.025 0 854.997 0 854.97 0C854.942 0 854.915 0 854.888 0C854.86 0 854.833 0 854.805 0C854.778 0 854.751 0 854.723 0C854.696 0 854.669 0 854.641 0C854.614 0 854.587 0 854.559 0C854.532 0 854.505 0 854.478 0C854.45 0 854.423 0 854.396 0C854.369 0 854.341 0 854.314 0C854.287 0 854.26 0 854.232 0C854.205 0 854.178 0 854.151 0C854.124 0 854.097 0 854.069 0C854.042 0 854.015 0 853.988 0C853.961 0 853.934 0 853.907 0C853.879 0 853.852 0 853.825 0C853.798 0 853.771 0 853.744 0C853.717 0 853.69 0 853.663 0C853.636 0 853.609 0 853.582 0C853.555 0 853.528 0 853.501 0C853.474 0 853.447 0 853.42 0C853.393 0 853.366 0 853.339 0C853.312 0 853.285 0 853.258 0C853.231 0 853.204 0 853.177 0C853.151 0 853.124 0 853.097 0C853.07 0 853.043 0 853.016 0C852.989 0 852.963 0 852.936 0C852.909 0 852.882 0 852.855 0C852.828 0 852.802 0 852.775 0C852.748 0 852.721 0 852.695 0C852.668 0 852.641 0 852.614 0C852.588 0 852.561 0 852.534 0C852.508 0 852.481 0 852.454 0C852.428 0 852.401 0 852.374 0C852.348 0 852.321 0 852.294 0C852.268 0 852.241 0 852.215 0C852.188 0 852.161 0 852.135 0C852.108 0 852.082 0 852.055 0C852.029 0 852.002 0 851.976 0C851.949 0 851.923 0 851.896 0C851.87 0 851.843 0 851.817 0C851.79 0 851.764 0 851.738 0C851.711 0 851.685 0 851.658 0C851.632 0 851.606 0 851.579 0C851.553 0 851.526 0 851.5 0C851.474 0 851.448 0 851.421 0C851.395 0 851.369 0 851.342 0C851.316 0 851.29 0 851.264 0C851.237 0 851.211 0 851.185 0C851.159 0 851.132 0 851.106 0C851.08 0 851.054 0 851.028 0C851.002 0 850.975 0 850.949 0C850.923 0 850.897 0 850.871 0C850.845 0 850.819 0 850.793 0C850.767 0 850.74 0 850.714 0C850.688 0 850.662 0 850.636 0C850.61 0 850.584 0 850.558 0C850.532 0 850.506 0 850.48 0C850.454 0 850.429 0 850.403 0C850.377 0 850.351 0 850.325 0C850.299 0 850.273 0 850.247 0C850.221 0 850.196 0 850.17 0C850.144 0 850.118 0 850.092 0C850.067 0 850.041 0 850.015 0C849.989 0 849.963 0 849.938 0C849.912 0 849.886 0 849.861 0C849.835 0 849.809 0 849.784 0C849.758 0 849.732 0 849.707 0C849.681 0 849.655 0 849.63 0C849.604 0 849.578 0 849.553 0C849.527 0 849.502 0 849.476 0C849.451 0 849.425 0 849.4 0C849.374 0 849.349 0 849.323 0C849.298 0 849.272 0 849.247 0C849.221 0 849.196 0 849.171 0C849.145 0 849.12 0 849.094 0C849.069 0 849.044 0 849.018 0C848.993 0 848.968 0 848.942 0C848.917 0 848.892 0 848.866 0C848.841 0 848.816 0 848.791 0C848.765 0 848.74 0 848.715 0C848.69 0 848.665 0 848.639 0C848.614 0 848.589 0 848.564 0C848.539 0 848.514 0 848.489 0C848.464 0 848.438 0 848.413 0C848.388 0 848.363 0 848.338 0C848.313 0 848.288 0 848.263 0C848.238 0 848.213 0 848.188 0C848.163 0 848.138 0 848.114 0C848.089 0 848.064 0 848.039 0C848.014 0 847.989 0 847.964 0C847.939 0 847.914 0 847.89 0C847.865 0 847.84 0 847.815 0C847.791 0 847.766 0 847.741 0C847.716 0 847.692 0 847.667 0C847.642 0 847.617 0 847.593 0C847.568 0 847.544 0 847.519 0C847.494 0 847.47 0 847.445 0C847.42 0 847.396 0 847.371 0C847.347 0 847.322 0 847.298 0C847.273 0 847.249 0 847.224 0C847.2 0 847.175 0 847.151 0C847.126 0 847.102 0 847.078 0C847.053 0 847.029 0 847.004 0C846.98 0 846.956 0 846.931 0C846.907 0 846.883 0 846.858 0C846.834 0 846.81 0 846.786 0C846.761 0 846.737 0 846.713 0C846.689 0 846.665 0 846.64 0C846.616 0 846.592 0 846.568 0C846.544 0 846.52 0 846.496 0C846.471 0 846.447 0 846.423 0C846.399 0 846.375 0 846.351 0C846.327 0 846.303 0 846.279 0C846.255 0 846.231 0 846.207 0C846.184 0 846.16 0 846.136 0C846.112 0 846.088 0 846.064 0C846.04 0 846.016 0 845.993 0C845.969 0 845.945 0 845.921 0C845.898 0 845.874 0 845.85 0C845.826 0 845.803 0 845.779 0C845.755 0 845.732 0 845.708 0C845.684 0 845.661 0 845.637 0C845.613 0 845.59 0 845.566 0C845.543 0 845.519 0 845.496 0C845.472 0 845.449 0 845.425 0C845.402 0 845.378 0 845.355 0C845.331 0 845.308 0 845.285 0C845.261 0 845.238 0 845.214 0C845.191 0 845.168 0 845.144 0C845.121 0 845.098 0 845.075 0C845.051 0 845.028 0 845.005 0C844.982 0 844.958 0 844.935 0C844.912 0 844.889 0 844.866 0C844.843 0 844.82 0 844.796 0C844.773 0 844.75 0 844.727 0C844.704 0 844.681 0 844.658 0C844.635 0 844.612 0 844.589 0C844.566 0 844.543 0 844.52 0C844.497 0 844.475 0 844.452 0C844.429 0 844.406 0 844.383 0C844.36 0 844.338 0 844.315 0C844.292 0 844.269 0 844.246 0C844.224 0 844.201 0 844.178 0C844.156 0 844.133 0 844.11 0C844.088 0 844.065 0 844.042 0C844.02 0 843.997 0 843.975 0C843.952 0 843.93 0 843.907 0C843.885 0 843.862 0 843.84 0C843.817 0 843.795 0 843.772 0C843.75 0 843.727 0 843.705 0C843.683 0 843.66 0 843.638 0C843.616 0 843.593 0 843.571 0C843.549 0 843.527 0 843.504 0C843.482 0 843.46 0 843.438 0C843.416 0 843.393 0 843.371 0C843.349 0 843.327 0 843.305 0C843.283 0 843.261 0 843.239 0C843.217 0 843.195 0 843.173 0C843.151 0 843.129 0 843.107 0C843.085 0 843.063 0 843.041 0C843.019 0 842.997 0 842.975 0C842.953 0 842.932 0 842.91 0C842.888 0 842.866 0 842.845 0C842.823 0 842.801 0 842.779 0C842.758 0 842.736 0 842.714 0C842.693 0 842.671 0 842.649 0C842.628 0 842.606 0 842.585 0C842.563 0 842.542 0 842.52 0C842.499 0 842.477 0 842.456 0C842.434 0 842.413 0 842.391 0C842.37 0 842.349 0 842.327 0C842.306 0 842.284 0 842.263 0C842.242 0 842.221 0 842.199 0C842.178 0 842.157 0 842.136 0C842.114 0 842.093 0 842.072 0C842.051 0 842.03 0 842.009 0C841.988 0 841.966 0 841.945 0C841.924 0 841.903 0 841.882 0C841.861 0 841.84 0 841.819 0C841.798 0 841.777 0 841.757 0C841.736 0 841.715 0 841.694 0C841.673 0 841.652 0 841.631 0C841.611 0 841.59 0 841.569 0C841.548 0 841.528 0 841.507 0C841.486 0 841.466 0 841.445 0C841.424 0 841.404 0 841.383 0C841.362 0 841.342 0 841.321 0C841.301 0 841.28 0 841.26 0C841.239 0 841.219 0 841.198 0C841.178 0 841.158 0 841.137 0C841.117 0 841.096 0 841.076 0C841.056 0 841.036 0 841.015 0C840.995 0 840.975 0 840.955 0C840.934 0 840.914 0 840.894 0C840.874 0 840.854 0 840.834 0C840.813 0 840.793 0 840.773 0C840.753 0 840.733 0 840.713 0C840.693 0 840.673 0 840.653 0C840.633 0 840.613 0 840.594 0C840.574 0 840.554 0 840.534 0C840.514 0 840.494 0 840.474 0C840.455 0 840.435 0 840.415 0C840.395 0 840.376 0 840.356 0C840.336 0 840.317 0 840.297 0C840.277 0 840.258 0 840.238 0C840.219 0 840.199 0 840.18 0C840.16 0 840.141 0 840.121 0C840.102 0 840.082 0 840.063 0C840.044 0 840.024 0 840.005 0C839.986 0 839.966 0 839.947 0C839.928 0 839.908 0 839.889 0C839.87 0 839.851 0 839.832 0C839.812 0 839.793 0 839.774 0C839.755 0 839.736 0 839.717 0C839.698 0 839.679 0 839.66 0C839.641 0 839.622 0 839.603 0C839.584 0 839.565 0 839.546 0C839.527 0 839.508 0 839.49 0C839.471 0 839.452 0 839.433 0C839.414 0 839.396 0 839.377 0C839.358 0 839.34 0 839.321 0C839.302 0 839.284 0 839.265 0C839.247 0 839.228 0 839.209 0C839.191 0 839.172 0 839.154 0C839.135 0 839.117 0 839.099 0C839.08 0 839.062 0 839.043 0C839.025 0 839.007 0 838.988 0C838.97 0 838.952 0 838.934 0C838.915 0 838.897 0 838.879 0C838.861 0 838.843 0 838.825 0C838.806 0 838.788 0 838.77 0C838.752 0 838.734 0 838.716 0C838.698 0 838.68 0 838.662 0C838.644 0 838.626 0 838.609 0C838.591 0 838.573 0 838.555 0C838.537 0 838.519 0 838.502 0C838.484 0 838.466 0 838.448 0C838.431 0 838.413 0 838.396 0C838.378 0 838.36 0 838.343 0C838.325 0 838.308 0 838.29 0C838.273 0 838.255 0 838.238 0C838.22 0 838.203 0 838.185 0C838.168 0 838.151 0 838.133 0C838.116 0 838.099 0 838.081 0C838.064 0 838.047 0 838.03 0C838.013 0 837.995 0 837.978 0C837.961 0 837.944 0 837.927 0C837.91 0 837.893 0 837.876 0C837.859 0 837.842 0 837.825 0C837.808 0 837.791 0 837.774 0C837.757 0 837.74 0 837.724 0C837.707 0 837.69 0 837.673 0C837.656 0 837.64 0 837.623 0C837.606 0 837.59 0 837.573 0C837.556 0 837.54 0 837.523 0C837.507 0 837.49 0 837.474 0C837.457 0 837.441 0 837.424 0C837.408 0 837.391 0 837.375 0C837.359 0 837.342 0 837.326 0C837.31 0 837.293 0 837.277 0C837.261 0 837.245 0 837.228 0C837.212 0 837.196 0 837.18 0C837.164 0 837.148 0 837.132 0C837.116 0 837.1 0 837.084 0C837.068 0 837.052 0 837.036 0C837.02 0 837.004 0 836.988 0C836.972 0 836.957 0 836.941 0C836.925 0 836.909 0 836.893 0C836.878 0 836.862 0 836.846 0C836.831 0 836.815 0 836.8 0C836.784 0 836.768 0 836.753 0C836.737 0 836.722 0 836.706 0C836.691 0 836.676 0 836.66 0C836.645 0 836.629 0 836.614 0C836.599 0 836.584 0 836.568 0C836.553 0 836.538 0 836.523 0C836.507 0 836.492 0 836.477 0C836.462 0 836.447 0 836.432 0C836.417 0 836.402 0 836.387 0C836.372 0 836.357 0 836.342 0C836.327 0 836.312 0 836.297 0C836.283 0 836.268 0 836.253 0C836.238 0 836.224 0 836.209 0C836.194 0 836.179 0 836.165 0C836.15 0 836.136 0 836.121 0C836.106 0 836.092 0 836.077 0C836.063 0 836.048 0 836.034 0C836.02 0 836.005 0 835.991 0C835.977 0 835.962 0 835.948 0C835.934 0 835.919 0 835.905 0C835.891 0 835.877 0 835.863 0C835.848 0 835.834 0 835.82 0C835.806 0 835.792 0 835.778 0C835.764 0 835.75 0 835.736 0C835.722 0 835.708 0 835.695 0C835.681 0 835.667 0 835.653 0C835.639 0 835.625 0 835.612 0C835.598 0 835.584 0 835.571 0C835.557 0 835.543 0 835.53 0C835.516 0 835.503 0 835.489 0C835.476 0 835.462 0 835.449 0C835.435 0 835.422 0 835.409 0C835.395 0 835.382 0 835.369 0C835.355 0 835.342 0 835.329 0C835.316 0 835.302 0 835.289 0C835.276 0 835.263 0 835.25 0C835.237 0 835.224 0 835.211 0C835.198 0 835.185 0 835.172 0C835.159 0 835.146 0 835.133 0C835.12 0 835.108 0 835.095 0C835.082 0 835.069 0 835.057 0C835.044 0 835.031 0 835.019 0C835.006 0 834.993 0 834.981 0V2ZM898 28V231H900V28H898ZM0 285V321H2V285H0ZM28 349H65V347H28V349ZM432 257H28V259H432V257ZM872 257H452.154V259H872V257ZM0 321C0 336.464 12.536 349 28 349V347C13.6406 347 2 335.359 2 321H0ZM2 285C2 270.641 13.6406 259 28 259V257C12.536 257 0 269.536 0 285H2ZM898 231C898 245.359 886.359 257 872 257V259C887.464 259 900 246.464 900 231H898ZM872.002 2C886.361 2 898 13.6405 898 28H900C900 12.5361 887.466 0 872.002 0V2Z" fill="url(#paint0_linear_19_9698)"/>
<path d="M442 257C442.552 257 443 257.448 443 258C443 258.552 442.552 259 442 259V257ZM440.293 258.707C439.902 258.317 439.902 257.683 440.293 257.293L446.657 250.929C447.047 250.538 447.681 250.538 448.071 250.929C448.462 251.319 448.462 251.953 448.071 252.343L442.414 258L448.071 263.657C448.462 264.047 448.462 264.681 448.071 265.071C447.681 265.462 447.047 265.462 446.657 265.071L440.293 258.707ZM442 259H441V257H442V259Z" fill="url(#paint1_linear_19_9698)"/>
<defs>
<linearGradient id="paint0_linear_19_9698" x1="910.008" y1="-32.4843" x2="876.418" y2="-32.4843" gradientUnits="userSpaceOnUse">
<stop stop-color="#00FFFF"/>
<stop offset="0.521875" stop-color="#00FFFF"/>
<stop offset="1" stop-color="#00FFFF"/>
</linearGradient>
<linearGradient id="paint1_linear_19_9698" x1="440.975" y1="258.497" x2="442" y2="258.497" gradientUnits="userSpaceOnUse">
<stop stop-color="#00FFFF"/>
<stop offset="0.521875" stop-color="#00FFFF"/>
<stop offset="1" stop-color="#00FFFF"/>
</linearGradient>
</defs>
</svg>
