<svg width="337" height="392" viewBox="0 0 337 392" fill="none" xmlns="http://www.w3.org/2000/svg">
<path d="M310.911 0.5C310.635 0.5 310.411 0.723858 310.411 1C310.411 1.27614 310.635 1.5 310.911 1.5V0.5ZM27.5143 194.354C27.7095 194.158 27.7095 193.842 27.5143 193.646L24.3323 190.464C24.137 190.269 23.8204 190.269 23.6252 190.464C23.4299 190.66 23.4299 190.976 23.6252 191.172L26.4536 194L23.6252 196.828C23.4299 197.024 23.4299 197.34 23.6252 197.536C23.8204 197.731 24.137 197.731 24.3323 197.536L27.5143 194.354ZM157 129.5C157.276 129.5 157.5 129.276 157.5 129C157.5 128.724 157.276 128.5 157 128.5V129.5ZM180.571 128.5C180.295 128.5 180.071 128.724 180.071 129C180.071 129.276 180.295 129.5 180.571 129.5V128.5ZM310.911 1.5C310.923 1.5 310.936 1.5 310.948 1.5C310.961 1.5 310.973 1.5 310.986 1.5C310.998 1.5 311.01 1.5 311.023 1.5C311.035 1.5 311.048 1.5 311.06 1.5C311.073 1.5 311.085 1.5 311.097 1.5C311.11 1.5 311.122 1.5 311.135 1.5C311.147 1.5 311.16 1.5 311.172 1.5C311.184 1.5 311.197 1.5 311.209 1.5C311.221 1.5 311.234 1.5 311.246 1.5C311.259 1.5 311.271 1.5 311.283 1.5C311.296 1.5 311.308 1.5 311.32 1.5C311.333 1.5 311.345 1.5 311.357 1.5C311.37 1.5 311.382 1.5 311.394 1.5C311.407 1.5 311.419 1.5 311.431 1.5C311.444 1.5 311.456 1.5 311.468 1.5C311.481 1.5 311.493 1.5 311.505 1.5C311.518 1.5 311.53 1.5 311.542 1.5C311.554 1.5 311.567 1.5 311.579 1.5C311.591 1.5 311.604 1.5 311.616 1.5C311.628 1.5 311.64 1.5 311.653 1.5C311.665 1.5 311.677 1.5 311.689 1.5C311.702 1.5 311.714 1.5 311.726 1.5C311.738 1.5 311.751 1.5 311.763 1.5C311.775 1.5 311.787 1.5 311.799 1.5C311.812 1.5 311.824 1.5 311.836 1.5C311.848 1.5 311.86 1.5 311.873 1.5C311.885 1.5 311.897 1.5 311.909 1.5C311.921 1.5 311.934 1.5 311.946 1.5C311.958 1.5 311.97 1.5 311.982 1.5C311.994 1.5 312.006 1.5 312.019 1.5C312.031 1.5 312.043 1.5 312.055 1.5C312.067 1.5 312.079 1.5 312.091 1.5C312.104 1.5 312.116 1.5 312.128 1.5C312.14 1.5 312.152 1.5 312.164 1.5C312.176 1.5 312.188 1.5 312.2 1.5C312.212 1.5 312.225 1.5 312.237 1.5C312.249 1.5 312.261 1.5 312.273 1.5C312.285 1.5 312.297 1.5 312.309 1.5C312.321 1.5 312.333 1.5 312.345 1.5C312.357 1.5 312.369 1.5 312.381 1.5C312.393 1.5 312.405 1.5 312.417 1.5C312.43 1.5 312.442 1.5 312.454 1.5C312.466 1.5 312.478 1.5 312.49 1.5C312.502 1.5 312.514 1.5 312.526 1.5C312.538 1.5 312.55 1.5 312.562 1.5C312.574 1.5 312.586 1.5 312.598 1.5C312.609 1.5 312.621 1.5 312.633 1.5C312.645 1.5 312.657 1.5 312.669 1.5C312.681 1.5 312.693 1.5 312.705 1.5C312.717 1.5 312.729 1.5 312.741 1.5C312.753 1.5 312.765 1.5 312.777 1.5C312.789 1.5 312.801 1.5 312.812 1.5C312.824 1.5 312.836 1.5 312.848 1.5C312.86 1.5 312.872 1.5 312.884 1.5C312.896 1.5 312.908 1.5 312.919 1.5C312.931 1.5 312.943 1.5 312.955 1.5C312.967 1.5 312.979 1.5 312.991 1.5C313.003 1.5 313.014 1.5 313.026 1.5C313.038 1.5 313.05 1.5 313.062 1.5C313.074 1.5 313.085 1.5 313.097 1.5C313.109 1.5 313.121 1.5 313.133 1.5C313.144 1.5 313.156 1.5 313.168 1.5C313.18 1.5 313.192 1.5 313.203 1.5C313.215 1.5 313.227 1.5 313.239 1.5C313.251 1.5 313.262 1.5 313.274 1.5C313.286 1.5 313.298 1.5 313.309 1.5C313.321 1.5 313.333 1.5 313.345 1.5C313.356 1.5 313.368 1.5 313.38 1.5C313.392 1.5 313.403 1.5 313.415 1.5C313.427 1.5 313.439 1.5 313.45 1.5C313.462 1.5 313.474 1.5 313.485 1.5C313.497 1.5 313.509 1.5 313.521 1.5C313.532 1.5 313.544 1.5 313.556 1.5C313.567 1.5 313.579 1.5 313.591 1.5C313.602 1.5 313.614 1.5 313.626 1.5C313.637 1.5 313.649 1.5 313.661 1.5C313.672 1.5 313.684 1.5 313.696 1.5C313.707 1.5 313.719 1.5 313.73 1.5C313.742 1.5 313.754 1.5 313.765 1.5C313.777 1.5 313.789 1.5 313.8 1.5C313.812 1.5 313.823 1.5 313.835 1.5C313.847 1.5 313.858 1.5 313.87 1.5C313.881 1.5 313.893 1.5 313.905 1.5C313.916 1.5 313.928 1.5 313.939 1.5C313.951 1.5 313.962 1.5 313.974 1.5C313.985 1.5 313.997 1.5 314.009 1.5C314.02 1.5 314.032 1.5 314.043 1.5C314.055 1.5 314.066 1.5 314.078 1.5C314.089 1.5 314.101 1.5 314.112 1.5C314.124 1.5 314.135 1.5 314.147 1.5C314.158 1.5 314.17 1.5 314.181 1.5C314.193 1.5 314.204 1.5 314.216 1.5C314.227 1.5 314.239 1.5 314.25 1.5C314.262 1.5 314.273 1.5 314.285 1.5C314.296 1.5 314.308 1.5 314.319 1.5C314.33 1.5 314.342 1.5 314.353 1.5C314.365 1.5 314.376 1.5 314.388 1.5C314.399 1.5 314.41 1.5 314.422 1.5C314.433 1.5 314.445 1.5 314.456 1.5C314.468 1.5 314.479 1.5 314.49 1.5C314.502 1.5 314.513 1.5 314.525 1.5C314.536 1.5 314.547 1.5 314.559 1.5C314.57 1.5 314.581 1.5 314.593 1.5C314.604 1.5 314.615 1.5 314.627 1.5C314.638 1.5 314.65 1.5 314.661 1.5C314.672 1.5 314.684 1.5 314.695 1.5C314.706 1.5 314.718 1.5 314.729 1.5C314.74 1.5 314.752 1.5 314.763 1.5C314.774 1.5 314.785 1.5 314.797 1.5C314.808 1.5 314.819 1.5 314.831 1.5C314.842 1.5 314.853 1.5 314.865 1.5C314.876 1.5 314.887 1.5 314.898 1.5C314.91 1.5 314.921 1.5 314.932 1.5C314.943 1.5 314.955 1.5 314.966 1.5C314.977 1.5 314.988 1.5 315 1.5C315.011 1.5 315.022 1.5 315.033 1.5C315.045 1.5 315.056 1.5 315.067 1.5C315.078 1.5 315.089 1.5 315.101 1.5C315.112 1.5 315.123 1.5 315.134 1.5C315.145 1.5 315.157 1.5 315.168 1.5C315.179 1.5 315.19 1.5 315.201 1.5C315.212 1.5 315.224 1.5 315.235 1.5C315.246 1.5 315.257 1.5 315.268 1.5C315.279 1.5 315.291 1.5 315.302 1.5C315.313 1.5 315.324 1.5 315.335 1.5C315.346 1.5 315.357 1.5 315.369 1.5C315.38 1.5 315.391 1.5 315.402 1.5C315.413 1.5 315.424 1.5 315.435 1.5C315.446 1.5 315.457 1.5 315.469 1.5C315.48 1.5 315.491 1.5 315.502 1.5C315.513 1.5 315.524 1.5 315.535 1.5C315.546 1.5 315.557 1.5 315.568 1.5C315.579 1.5 315.59 1.5 315.601 1.5C315.612 1.5 315.623 1.5 315.634 1.5C315.646 1.5 315.657 1.5 315.668 1.5C315.679 1.5 315.69 1.5 315.701 1.5C315.712 1.5 315.723 1.5 315.734 1.5C315.745 1.5 315.756 1.5 315.767 1.5C315.778 1.5 315.789 1.5 315.8 1.5C315.811 1.5 315.822 1.5 315.833 1.5C315.844 1.5 315.855 1.5 315.866 1.5C315.876 1.5 315.887 1.5 315.898 1.5C315.909 1.5 315.92 1.5 315.931 1.5C315.942 1.5 315.953 1.5 315.964 1.5C315.975 1.5 315.986 1.5 315.997 1.5C316.008 1.5 316.019 1.5 316.03 1.5C316.04 1.5 316.051 1.5 316.062 1.5C316.073 1.5 316.084 1.5 316.095 1.5C316.106 1.5 316.117 1.5 316.128 1.5C316.139 1.5 316.149 1.5 316.16 1.5C316.171 1.5 316.182 1.5 316.193 1.5C316.204 1.5 316.215 1.5 316.225 1.5C316.236 1.5 316.247 1.5 316.258 1.5C316.269 1.5 316.28 1.5 316.29 1.5C316.301 1.5 316.312 1.5 316.323 1.5C316.334 1.5 316.345 1.5 316.355 1.5C316.366 1.5 316.377 1.5 316.388 1.5C316.399 1.5 316.409 1.5 316.42 1.5C316.431 1.5 316.442 1.5 316.453 1.5C316.463 1.5 316.474 1.5 316.485 1.5C316.496 1.5 316.506 1.5 316.517 1.5C316.528 1.5 316.539 1.5 316.549 1.5C316.56 1.5 316.571 1.5 316.582 1.5C316.592 1.5 316.603 1.5 316.614 1.5C316.625 1.5 316.635 1.5 316.646 1.5C316.657 1.5 316.667 1.5 316.678 1.5C316.689 1.5 316.7 1.5 316.71 1.5C316.721 1.5 316.732 1.5 316.742 1.5C316.753 1.5 316.764 1.5 316.774 1.5C316.785 1.5 316.796 1.5 316.806 1.5C316.817 1.5 316.828 1.5 316.838 1.5C316.849 1.5 316.86 1.5 316.87 1.5C316.881 1.5 316.892 1.5 316.902 1.5C316.913 1.5 316.923 1.5 316.934 1.5C316.945 1.5 316.955 1.5 316.966 1.5C316.977 1.5 316.987 1.5 316.998 1.5C317.008 1.5 317.019 1.5 317.03 1.5C317.04 1.5 317.051 1.5 317.061 1.5C317.072 1.5 317.082 1.5 317.093 1.5C317.104 1.5 317.114 1.5 317.125 1.5C317.135 1.5 317.146 1.5 317.156 1.5C317.167 1.5 317.177 1.5 317.188 1.5C317.199 1.5 317.209 1.5 317.22 1.5C317.23 1.5 317.241 1.5 317.251 1.5C317.262 1.5 317.272 1.5 317.283 1.5C317.293 1.5 317.304 1.5 317.314 1.5C317.325 1.5 317.335 1.5 317.346 1.5C317.356 1.5 317.367 1.5 317.377 1.5C317.388 1.5 317.398 1.5 317.409 1.5C317.419 1.5 317.43 1.5 317.44 1.5C317.45 1.5 317.461 1.5 317.471 1.5C317.482 1.5 317.492 1.5 317.503 1.5C317.513 1.5 317.524 1.5 317.534 1.5C317.544 1.5 317.555 1.5 317.565 1.5C317.576 1.5 317.586 1.5 317.596 1.5C317.607 1.5 317.617 1.5 317.628 1.5C317.638 1.5 317.648 1.5 317.659 1.5C317.669 1.5 317.68 1.5 317.69 1.5C317.7 1.5 317.711 1.5 317.721 1.5C317.731 1.5 317.742 1.5 317.752 1.5C317.763 1.5 317.773 1.5 317.783 1.5C317.794 1.5 317.804 1.5 317.814 1.5C317.825 1.5 317.835 1.5 317.845 1.5C317.856 1.5 317.866 1.5 317.876 1.5C317.886 1.5 317.897 1.5 317.907 1.5C317.917 1.5 317.928 1.5 317.938 1.5C317.948 1.5 317.959 1.5 317.969 1.5C317.979 1.5 317.989 1.5 318 1.5C318.01 1.5 318.02 1.5 318.03 1.5C318.041 1.5 318.051 1.5 318.061 1.5C318.072 1.5 318.082 1.5 318.092 1.5C318.102 1.5 318.112 1.5 318.123 1.5C318.133 1.5 318.143 1.5 318.153 1.5C318.164 1.5 318.174 1.5 318.184 1.5C318.194 1.5 318.204 1.5 318.215 1.5C318.225 1.5 318.235 1.5 318.245 1.5C318.255 1.5 318.266 1.5 318.276 1.5C318.286 1.5 318.296 1.5 318.306 1.5C318.317 1.5 318.327 1.5 318.337 1.5C318.347 1.5 318.357 1.5 318.367 1.5C318.377 1.5 318.388 1.5 318.398 1.5C318.408 1.5 318.418 1.5 318.428 1.5C318.438 1.5 318.448 1.5 318.459 1.5C318.469 1.5 318.479 1.5 318.489 1.5C318.499 1.5 318.509 1.5 318.519 1.5C318.529 1.5 318.539 1.5 318.549 1.5C318.56 1.5 318.57 1.5 318.58 1.5C318.59 1.5 318.6 1.5 318.61 1.5C318.62 1.5 318.63 1.5 318.64 1.5C318.65 1.5 318.66 1.5 318.67 1.5C318.68 1.5 318.69 1.5 318.7 1.5C318.71 1.5 318.721 1.5 318.731 1.5C318.741 1.5 318.751 1.5 318.761 1.5C318.771 1.5 318.781 1.5 318.791 1.5C318.801 1.5 318.811 1.5 318.821 1.5C318.831 1.5 318.841 1.5 318.851 1.5C318.861 1.5 318.871 1.5 318.881 1.5C318.891 1.5 318.901 1.5 318.911 1.5C318.921 1.5 318.93 1.5 318.94 1.5C318.95 1.5 318.96 1.5 318.97 1.5C318.98 1.5 318.99 1.5 319 1.5C319.01 1.5 319.02 1.5 319.03 1.5C319.04 1.5 319.05 1.5 319.06 1.5C319.07 1.5 319.079 1.5 319.089 1.5C319.099 1.5 319.109 1.5 319.119 1.5C319.129 1.5 319.139 1.5 319.149 1.5C319.159 1.5 319.169 1.5 319.178 1.5C319.188 1.5 319.198 1.5 319.208 1.5C319.218 1.5 319.228 1.5 319.238 1.5C319.247 1.5 319.257 1.5 319.267 1.5C319.277 1.5 319.287 1.5 319.297 1.5C319.307 1.5 319.316 1.5 319.326 1.5C319.336 1.5 319.346 1.5 319.356 1.5C319.366 1.5 319.375 1.5 319.385 1.5C319.395 1.5 319.405 1.5 319.415 1.5C319.424 1.5 319.434 1.5 319.444 1.5C319.454 1.5 319.463 1.5 319.473 1.5C319.483 1.5 319.493 1.5 319.503 1.5C319.512 1.5 319.522 1.5 319.532 1.5C319.542 1.5 319.551 1.5 319.561 1.5C319.571 1.5 319.581 1.5 319.59 1.5C319.6 1.5 319.61 1.5 319.62 1.5C319.629 1.5 319.639 1.5 319.649 1.5C319.658 1.5 319.668 1.5 319.678 1.5C319.688 1.5 319.697 1.5 319.707 1.5C319.717 1.5 319.726 1.5 319.736 1.5C319.746 1.5 319.755 1.5 319.765 1.5C319.775 1.5 319.784 1.5 319.794 1.5C319.804 1.5 319.813 1.5 319.823 1.5C319.833 1.5 319.842 1.5 319.852 1.5C319.862 1.5 319.871 1.5 319.881 1.5C319.891 1.5 319.9 1.5 319.91 1.5C319.919 1.5 319.929 1.5 319.939 1.5C319.948 1.5 319.958 1.5 319.967 1.5C319.977 1.5 319.987 1.5 319.996 1.5C320.006 1.5 320.016 1.5 320.025 1.5C320.035 1.5 320.044 1.5 320.054 1.5C320.063 1.5 320.073 1.5 320.083 1.5C320.092 1.5 320.102 1.5 320.111 1.5C320.121 1.5 320.13 1.5 320.14 1.5C320.149 1.5 320.159 1.5 320.169 1.5C320.178 1.5 320.188 1.5 320.197 1.5C320.207 1.5 320.216 1.5 320.226 1.5C320.235 1.5 320.245 1.5 320.254 1.5C320.264 1.5 320.273 1.5 320.283 1.5C320.292 1.5 320.302 1.5 320.311 1.5C320.321 1.5 320.33 1.5 320.34 1.5C320.349 1.5 320.359 1.5 320.368 1.5C320.378 1.5 320.387 1.5 320.396 1.5C320.406 1.5 320.415 1.5 320.425 1.5C320.434 1.5 320.444 1.5 320.453 1.5C320.463 1.5 320.472 1.5 320.481 1.5C320.491 1.5 320.5 1.5 320.51 1.5C320.519 1.5 320.529 1.5 320.538 1.5C320.547 1.5 320.557 1.5 320.566 1.5C320.576 1.5 320.585 1.5 320.594 1.5C320.604 1.5 320.613 1.5 320.622 1.5C320.632 1.5 320.641 1.5 320.651 1.5C320.66 1.5 320.669 1.5 320.679 1.5C320.688 1.5 320.697 1.5 320.707 1.5C320.716 1.5 320.725 1.5 320.735 1.5C320.744 1.5 320.753 1.5 320.763 1.5C320.772 1.5 320.781 1.5 320.791 1.5C320.8 1.5 320.809 1.5 320.819 1.5C320.828 1.5 320.837 1.5 320.847 1.5C320.856 1.5 320.865 1.5 320.874 1.5C320.884 1.5 320.893 1.5 320.902 1.5C320.912 1.5 320.921 1.5 320.93 1.5C320.939 1.5 320.949 1.5 320.958 1.5C320.967 1.5 320.976 1.5 320.986 1.5C320.995 1.5 321.004 1.5 321.013 1.5C321.023 1.5 321.032 1.5 321.041 1.5C321.05 1.5 321.06 1.5 321.069 1.5C321.078 1.5 321.087 1.5 321.096 1.5C321.106 1.5 321.115 1.5 321.124 1.5C321.133 1.5 321.142 1.5 321.152 1.5C321.161 1.5 321.17 1.5 321.179 1.5C321.188 1.5 321.198 1.5 321.207 1.5C321.216 1.5 321.225 1.5 321.234 1.5C321.243 1.5 321.253 1.5 321.262 1.5C321.271 1.5 321.28 1.5 321.289 1.5C321.298 1.5 321.307 1.5 321.317 1.5C321.326 1.5 321.335 1.5 321.344 1.5C321.353 1.5 321.362 1.5 321.371 1.5C321.38 1.5 321.389 1.5 321.399 1.5C321.408 1.5 321.417 1.5 321.426 1.5C321.435 1.5 321.444 1.5 321.453 1.5C321.462 1.5 321.471 1.5 321.48 1.5C321.489 1.5 321.498 1.5 321.508 1.5C321.517 1.5 321.526 1.5 321.535 1.5C321.544 1.5 321.553 1.5 321.562 1.5C321.571 1.5 321.58 1.5 321.589 1.5C321.598 1.5 321.607 1.5 321.616 1.5C321.625 1.5 321.634 1.5 321.643 1.5C321.652 1.5 321.661 1.5 321.67 1.5C321.679 1.5 321.688 1.5 321.697 1.5C321.706 1.5 321.715 1.5 321.724 1.5C321.733 1.5 321.742 1.5 321.751 1.5C321.76 1.5 321.769 1.5 321.778 1.5C321.787 1.5 321.796 1.5 321.805 1.5C321.814 1.5 321.823 1.5 321.832 1.5C321.841 1.5 321.85 1.5 321.859 1.5C321.867 1.5 321.876 1.5 321.885 1.5C321.894 1.5 321.903 1.5 321.912 1.5C321.921 1.5 321.93 1.5 321.939 1.5C321.948 1.5 321.957 1.5 321.966 1.5C321.974 1.5 321.983 1.5 321.992 1.5C322.001 1.5 322.01 1.5 322.019 1.5C322.028 1.5 322.037 1.5 322.045 1.5C322.054 1.5 322.063 1.5 322.072 1.5C322.081 1.5 322.09 1.5 322.099 1.5C322.107 1.5 322.116 1.5 322.125 1.5C322.134 1.5 322.143 1.5 322.152 1.5C322.16 1.5 322.169 1.5 322.178 1.5C322.187 1.5 322.196 1.5 322.205 1.5C322.213 1.5 322.222 1.5 322.231 1.5C322.24 1.5 322.249 1.5 322.257 1.5C322.266 1.5 322.275 1.5 322.284 1.5C322.292 1.5 322.301 1.5 322.31 1.5C322.319 1.5 322.328 1.5 322.336 1.5C322.345 1.5 322.354 1.5 322.363 1.5C322.371 1.5 322.38 1.5 322.389 1.5C322.398 1.5 322.406 1.5 322.415 1.5C322.424 1.5 322.432 1.5 322.441 1.5C322.45 1.5 322.459 1.5 322.467 1.5C322.476 1.5 322.485 1.5 322.493 1.5C322.502 1.5 322.511 1.5 322.52 1.5C322.528 1.5 322.537 1.5 322.546 1.5C322.554 1.5 322.563 1.5 322.572 1.5C322.58 1.5 322.589 1.5 322.598 1.5C322.606 1.5 322.615 1.5 322.624 1.5C322.632 1.5 322.641 1.5 322.65 1.5C322.658 1.5 322.667 1.5 322.676 1.5C322.684 1.5 322.693 1.5 322.701 1.5C322.71 1.5 322.719 1.5 322.727 1.5C322.736 1.5 322.745 1.5 322.753 1.5C322.762 1.5 322.77 1.5 322.779 1.5C322.788 1.5 322.796 1.5 322.805 1.5C322.813 1.5 322.822 1.5 322.83 1.5C322.839 1.5 322.848 1.5 322.856 1.5C322.865 1.5 322.873 1.5 322.882 1.5C322.89 1.5 322.899 1.5 322.908 1.5C322.916 1.5 322.925 1.5 322.933 1.5C322.942 1.5 322.95 1.5 322.959 1.5C322.967 1.5 322.976 1.5 322.984 1.5C322.993 1.5 323.001 1.5 323.01 1.5C323.018 1.5 323.027 1.5 323.035 1.5C323.044 1.5 323.052 1.5 323.061 1.5C323.069 1.5 323.078 1.5 323.086 1.5C323.095 1.5 323.103 1.5 323.112 1.5C323.12 1.5 323.129 1.5 323.137 1.5C323.146 1.5 323.154 1.5 323.163 1.5C323.171 1.5 323.179 1.5 323.188 1.5C323.196 1.5 323.205 1.5 323.213 1.5C323.222 1.5 323.23 1.5 323.238 1.5C323.247 1.5 323.255 1.5 323.264 1.5C323.272 1.5 323.281 1.5 323.289 1.5C323.297 1.5 323.306 1.5 323.314 1.5C323.323 1.5 323.331 1.5 323.339 1.5C323.348 1.5 323.356 1.5 323.364 1.5C323.373 1.5 323.381 1.5 323.39 1.5C323.398 1.5 323.406 1.5 323.415 1.5C323.423 1.5 323.431 1.5 323.44 1.5C323.448 1.5 323.456 1.5 323.465 1.5C323.473 1.5 323.481 1.5 323.49 1.5C323.498 1.5 323.506 1.5 323.515 1.5C323.523 1.5 323.531 1.5 323.54 1.5C323.548 1.5 323.556 1.5 323.565 1.5C323.573 1.5 323.581 1.5 323.589 1.5C323.598 1.5 323.606 1.5 323.614 1.5C323.623 1.5 323.631 1.5 323.639 1.5C323.647 1.5 323.656 1.5 323.664 1.5C323.672 1.5 323.68 1.5 323.689 1.5C323.697 1.5 323.705 1.5 323.713 1.5C323.722 1.5 323.73 1.5 323.738 1.5C323.746 1.5 323.755 1.5 323.763 1.5C323.771 1.5 323.779 1.5 323.788 1.5C323.796 1.5 323.804 1.5 323.812 1.5C323.82 1.5 323.829 1.5 323.837 1.5C323.845 1.5 323.853 1.5 323.861 1.5C323.869 1.5 323.878 1.5 323.886 1.5C323.894 1.5 323.902 1.5 323.91 1.5C323.919 1.5 323.927 1.5 323.935 1.5C323.943 1.5 323.951 1.5 323.959 1.5C323.967 1.5 323.976 1.5 323.984 1.5C323.992 1.5 324 1.5 324.008 1.5C324.016 1.5 324.024 1.5 324.033 1.5C324.041 1.5 324.049 1.5 324.057 1.5C324.065 1.5 324.073 1.5 324.081 1.5C324.089 1.5 324.097 1.5 324.105 1.5C324.114 1.5 324.122 1.5 324.13 1.5C324.138 1.5 324.146 1.5 324.154 1.5C324.162 1.5 324.17 1.5 324.178 1.5C324.186 1.5 324.194 1.5 324.202 1.5C324.21 1.5 324.218 1.5 324.226 1.5C324.235 1.5 324.243 1.5 324.251 1.5C324.259 1.5 324.267 1.5 324.275 1.5C324.283 1.5 324.291 1.5 324.299 1.5C324.307 1.5 324.315 1.5 324.323 1.5C324.331 1.5 324.339 1.5 324.347 1.5C324.355 1.5 324.363 1.5 324.371 1.5C324.379 1.5 324.387 1.5 324.395 1.5C324.403 1.5 324.411 1.5 324.419 1.5C324.427 1.5 324.435 1.5 324.443 1.5C324.45 1.5 324.458 1.5 324.466 1.5C324.474 1.5 324.482 1.5 324.49 1.5C324.498 1.5 324.506 1.5 324.514 1.5C324.522 1.5 324.53 1.5 324.538 1.5C324.546 1.5 324.554 1.5 324.562 1.5C324.569 1.5 324.577 1.5 324.585 1.5C324.593 1.5 324.601 1.5 324.609 1.5C324.617 1.5 324.625 1.5 324.633 1.5C324.641 1.5 324.648 1.5 324.656 1.5C324.664 1.5 324.672 1.5 324.68 1.5C324.688 1.5 324.696 1.5 324.703 1.5C324.711 1.5 324.719 1.5 324.727 1.5C324.735 1.5 324.743 1.5 324.751 1.5C324.758 1.5 324.766 1.5 324.774 1.5C324.782 1.5 324.79 1.5 324.798 1.5C324.805 1.5 324.813 1.5 324.821 1.5C324.829 1.5 324.837 1.5 324.844 1.5C324.852 1.5 324.86 1.5 324.868 1.5C324.876 1.5 324.883 1.5 324.891 1.5C324.899 1.5 324.907 1.5 324.914 1.5C324.922 1.5 324.93 1.5 324.938 1.5C324.946 1.5 324.953 1.5 324.961 1.5C324.969 1.5 324.977 1.5 324.984 1.5C324.992 1.5 325 1.5 325.008 1.5C325.015 1.5 325.023 1.5 325.031 1.5C325.038 1.5 325.046 1.5 325.054 1.5C325.062 1.5 325.069 1.5 325.077 1.5C325.085 1.5 325.092 1.5 325.1 1.5C325.108 1.5 325.115 1.5 325.123 1.5C325.131 1.5 325.139 1.5 325.146 1.5C325.154 1.5 325.162 1.5 325.169 1.5C325.177 1.5 325.185 1.5 325.192 1.5C325.2 1.5 325.208 1.5 325.215 1.5C325.223 1.5 325.231 1.5 325.238 1.5C325.246 1.5 325.253 1.5 325.261 1.5C325.269 1.5 325.276 1.5 325.284 1.5C325.292 1.5 325.299 1.5 325.307 1.5C325.314 1.5 325.322 1.5 325.33 1.5C325.337 1.5 325.345 1.5 325.352 1.5C325.36 1.5 325.368 1.5 325.375 1.5C325.383 1.5 325.39 1.5 325.398 1.5C325.406 1.5 325.413 1.5 325.421 1.5C325.428 1.5 325.436 1.5 325.443 1.5C325.451 1.5 325.458 1.5 325.466 1.5C325.474 1.5 325.481 1.5 325.489 1.5C325.496 1.5 325.504 1.5 325.511 1.5C325.519 1.5 325.526 1.5 325.534 1.5C325.541 1.5 325.549 1.5 325.556 1.5C325.564 1.5 325.571 1.5 325.579 1.5C325.586 1.5 325.594 1.5 325.601 1.5C325.609 1.5 325.616 1.5 325.624 1.5C325.631 1.5 325.639 1.5 325.646 1.5C325.654 1.5 325.661 1.5 325.669 1.5C325.676 1.5 325.684 1.5 325.691 1.5C325.699 1.5 325.706 1.5 325.714 1.5C325.721 1.5 325.728 1.5 325.736 1.5C325.743 1.5 325.751 1.5 325.758 1.5C325.766 1.5 325.773 1.5 325.78 1.5C325.788 1.5 325.795 1.5 325.803 1.5C325.81 1.5 325.817 1.5 325.825 1.5C325.832 1.5 325.84 1.5 325.847 1.5C325.854 1.5 325.862 1.5 325.869 1.5C325.877 1.5 325.884 1.5 325.891 1.5C325.899 1.5 325.906 1.5 325.913 1.5C325.921 1.5 325.928 1.5 325.936 1.5C325.943 1.5 325.95 1.5 325.958 1.5C325.965 1.5 325.972 1.5 325.98 1.5C325.987 1.5 325.994 1.5 326.002 1.5V0.5C325.994 0.5 325.987 0.5 325.98 0.5C325.972 0.5 325.965 0.5 325.958 0.5C325.95 0.5 325.943 0.5 325.936 0.5C325.928 0.5 325.921 0.5 325.913 0.5C325.906 0.5 325.899 0.5 325.891 0.5C325.884 0.5 325.877 0.5 325.869 0.5C325.862 0.5 325.854 0.5 325.847 0.5C325.84 0.5 325.832 0.5 325.825 0.5C325.817 0.5 325.81 0.5 325.803 0.5C325.795 0.5 325.788 0.5 325.78 0.5C325.773 0.5 325.766 0.5 325.758 0.5C325.751 0.5 325.743 0.5 325.736 0.5C325.728 0.5 325.721 0.5 325.714 0.5C325.706 0.5 325.699 0.5 325.691 0.5C325.684 0.5 325.676 0.5 325.669 0.5C325.661 0.5 325.654 0.5 325.646 0.5C325.639 0.5 325.631 0.5 325.624 0.5C325.616 0.5 325.609 0.5 325.601 0.5C325.594 0.5 325.586 0.5 325.579 0.5C325.571 0.5 325.564 0.5 325.556 0.5C325.549 0.5 325.541 0.5 325.534 0.5C325.526 0.5 325.519 0.5 325.511 0.5C325.504 0.5 325.496 0.5 325.489 0.5C325.481 0.5 325.474 0.5 325.466 0.5C325.458 0.5 325.451 0.5 325.443 0.5C325.436 0.5 325.428 0.5 325.421 0.5C325.413 0.5 325.406 0.5 325.398 0.5C325.39 0.5 325.383 0.5 325.375 0.5C325.368 0.5 325.36 0.5 325.352 0.5C325.345 0.5 325.337 0.5 325.33 0.5C325.322 0.5 325.314 0.5 325.307 0.5C325.299 0.5 325.292 0.5 325.284 0.5C325.276 0.5 325.269 0.5 325.261 0.5C325.253 0.5 325.246 0.5 325.238 0.5C325.231 0.5 325.223 0.5 325.215 0.5C325.208 0.5 325.2 0.5 325.192 0.5C325.185 0.5 325.177 0.5 325.169 0.5C325.162 0.5 325.154 0.5 325.146 0.5C325.139 0.5 325.131 0.5 325.123 0.5C325.115 0.5 325.108 0.5 325.1 0.5C325.092 0.5 325.085 0.5 325.077 0.5C325.069 0.5 325.062 0.5 325.054 0.5C325.046 0.5 325.038 0.5 325.031 0.5C325.023 0.5 325.015 0.5 325.008 0.5C325 0.5 324.992 0.5 324.984 0.5C324.977 0.5 324.969 0.5 324.961 0.5C324.953 0.5 324.946 0.5 324.938 0.5C324.93 0.5 324.922 0.5 324.914 0.5C324.907 0.5 324.899 0.5 324.891 0.5C324.883 0.5 324.876 0.5 324.868 0.5C324.86 0.5 324.852 0.5 324.844 0.5C324.837 0.5 324.829 0.5 324.821 0.5C324.813 0.5 324.805 0.5 324.798 0.5C324.79 0.5 324.782 0.5 324.774 0.5C324.766 0.5 324.758 0.5 324.751 0.5C324.743 0.5 324.735 0.5 324.727 0.5C324.719 0.5 324.711 0.5 324.703 0.5C324.696 0.5 324.688 0.5 324.68 0.5C324.672 0.5 324.664 0.5 324.656 0.5C324.648 0.5 324.641 0.5 324.633 0.5C324.625 0.5 324.617 0.5 324.609 0.5C324.601 0.5 324.593 0.5 324.585 0.5C324.577 0.5 324.569 0.5 324.562 0.5C324.554 0.5 324.546 0.5 324.538 0.5C324.53 0.5 324.522 0.5 324.514 0.5C324.506 0.5 324.498 0.5 324.49 0.5C324.482 0.5 324.474 0.5 324.466 0.5C324.458 0.5 324.45 0.5 324.443 0.5C324.435 0.5 324.427 0.5 324.419 0.5C324.411 0.5 324.403 0.5 324.395 0.5C324.387 0.5 324.379 0.5 324.371 0.5C324.363 0.5 324.355 0.5 324.347 0.5C324.339 0.5 324.331 0.5 324.323 0.5C324.315 0.5 324.307 0.5 324.299 0.5C324.291 0.5 324.283 0.5 324.275 0.5C324.267 0.5 324.259 0.5 324.251 0.5C324.243 0.5 324.235 0.5 324.226 0.5C324.218 0.5 324.21 0.5 324.202 0.5C324.194 0.5 324.186 0.5 324.178 0.5C324.17 0.5 324.162 0.5 324.154 0.5C324.146 0.5 324.138 0.5 324.13 0.5C324.122 0.5 324.114 0.5 324.105 0.5C324.097 0.5 324.089 0.5 324.081 0.5C324.073 0.5 324.065 0.5 324.057 0.5C324.049 0.5 324.041 0.5 324.033 0.5C324.024 0.5 324.016 0.5 324.008 0.5C324 0.5 323.992 0.5 323.984 0.5C323.976 0.5 323.967 0.5 323.959 0.5C323.951 0.5 323.943 0.5 323.935 0.5C323.927 0.5 323.919 0.5 323.91 0.5C323.902 0.5 323.894 0.5 323.886 0.5C323.878 0.5 323.869 0.5 323.861 0.5C323.853 0.5 323.845 0.5 323.837 0.5C323.829 0.5 323.82 0.5 323.812 0.5C323.804 0.5 323.796 0.5 323.788 0.5C323.779 0.5 323.771 0.5 323.763 0.5C323.755 0.5 323.746 0.5 323.738 0.5C323.73 0.5 323.722 0.5 323.713 0.5C323.705 0.5 323.697 0.5 323.689 0.5C323.68 0.5 323.672 0.5 323.664 0.5C323.656 0.5 323.647 0.5 323.639 0.5C323.631 0.5 323.623 0.5 323.614 0.5C323.606 0.5 323.598 0.5 323.589 0.5C323.581 0.5 323.573 0.5 323.565 0.5C323.556 0.5 323.548 0.5 323.54 0.5C323.531 0.5 323.523 0.5 323.515 0.5C323.506 0.5 323.498 0.5 323.49 0.5C323.481 0.5 323.473 0.5 323.465 0.5C323.456 0.5 323.448 0.5 323.44 0.5C323.431 0.5 323.423 0.5 323.415 0.5C323.406 0.5 323.398 0.5 323.39 0.5C323.381 0.5 323.373 0.5 323.364 0.5C323.356 0.5 323.348 0.5 323.339 0.5C323.331 0.5 323.323 0.5 323.314 0.5C323.306 0.5 323.297 0.5 323.289 0.5C323.281 0.5 323.272 0.5 323.264 0.5C323.255 0.5 323.247 0.5 323.238 0.5C323.23 0.5 323.222 0.5 323.213 0.5C323.205 0.5 323.196 0.5 323.188 0.5C323.179 0.5 323.171 0.5 323.163 0.5C323.154 0.5 323.146 0.5 323.137 0.5C323.129 0.5 323.12 0.5 323.112 0.5C323.103 0.5 323.095 0.5 323.086 0.5C323.078 0.5 323.069 0.5 323.061 0.5C323.052 0.5 323.044 0.5 323.035 0.5C323.027 0.5 323.018 0.5 323.01 0.5C323.001 0.5 322.993 0.5 322.984 0.5C322.976 0.5 322.967 0.5 322.959 0.5C322.95 0.5 322.942 0.5 322.933 0.5C322.925 0.5 322.916 0.5 322.908 0.5C322.899 0.5 322.89 0.5 322.882 0.5C322.873 0.5 322.865 0.5 322.856 0.5C322.848 0.5 322.839 0.5 322.83 0.5C322.822 0.5 322.813 0.5 322.805 0.5C322.796 0.5 322.788 0.5 322.779 0.5C322.77 0.5 322.762 0.5 322.753 0.5C322.745 0.5 322.736 0.5 322.727 0.5C322.719 0.5 322.71 0.5 322.701 0.5C322.693 0.5 322.684 0.5 322.676 0.5C322.667 0.5 322.658 0.5 322.65 0.5C322.641 0.5 322.632 0.5 322.624 0.5C322.615 0.5 322.606 0.5 322.598 0.5C322.589 0.5 322.58 0.5 322.572 0.5C322.563 0.5 322.554 0.5 322.546 0.5C322.537 0.5 322.528 0.5 322.52 0.5C322.511 0.5 322.502 0.5 322.493 0.5C322.485 0.5 322.476 0.5 322.467 0.5C322.459 0.5 322.45 0.5 322.441 0.5C322.432 0.5 322.424 0.5 322.415 0.5C322.406 0.5 322.398 0.5 322.389 0.5C322.38 0.5 322.371 0.5 322.363 0.5C322.354 0.5 322.345 0.5 322.336 0.5C322.328 0.5 322.319 0.5 322.31 0.5C322.301 0.5 322.292 0.5 322.284 0.5C322.275 0.5 322.266 0.5 322.257 0.5C322.249 0.5 322.24 0.5 322.231 0.5C322.222 0.5 322.213 0.5 322.205 0.5C322.196 0.5 322.187 0.5 322.178 0.5C322.169 0.5 322.16 0.5 322.152 0.5C322.143 0.5 322.134 0.5 322.125 0.5C322.116 0.5 322.107 0.5 322.099 0.5C322.09 0.5 322.081 0.5 322.072 0.5C322.063 0.5 322.054 0.5 322.045 0.5C322.037 0.5 322.028 0.5 322.019 0.5C322.01 0.5 322.001 0.5 321.992 0.5C321.983 0.5 321.974 0.5 321.966 0.5C321.957 0.5 321.948 0.5 321.939 0.5C321.93 0.5 321.921 0.5 321.912 0.5C321.903 0.5 321.894 0.5 321.885 0.5C321.876 0.5 321.867 0.5 321.859 0.5C321.85 0.5 321.841 0.5 321.832 0.5C321.823 0.5 321.814 0.5 321.805 0.5C321.796 0.5 321.787 0.5 321.778 0.5C321.769 0.5 321.76 0.5 321.751 0.5C321.742 0.5 321.733 0.5 321.724 0.5C321.715 0.5 321.706 0.5 321.697 0.5C321.688 0.5 321.679 0.5 321.67 0.5C321.661 0.5 321.652 0.5 321.643 0.5C321.634 0.5 321.625 0.5 321.616 0.5C321.607 0.5 321.598 0.5 321.589 0.5C321.58 0.5 321.571 0.5 321.562 0.5C321.553 0.5 321.544 0.5 321.535 0.5C321.526 0.5 321.517 0.5 321.508 0.5C321.498 0.5 321.489 0.5 321.48 0.5C321.471 0.5 321.462 0.5 321.453 0.5C321.444 0.5 321.435 0.5 321.426 0.5C321.417 0.5 321.408 0.5 321.399 0.5C321.389 0.5 321.38 0.5 321.371 0.5C321.362 0.5 321.353 0.5 321.344 0.5C321.335 0.5 321.326 0.5 321.317 0.5C321.307 0.5 321.298 0.5 321.289 0.5C321.28 0.5 321.271 0.5 321.262 0.5C321.253 0.5 321.243 0.5 321.234 0.5C321.225 0.5 321.216 0.5 321.207 0.5C321.198 0.5 321.188 0.5 321.179 0.5C321.17 0.5 321.161 0.5 321.152 0.5C321.142 0.5 321.133 0.5 321.124 0.5C321.115 0.5 321.106 0.5 321.096 0.5C321.087 0.5 321.078 0.5 321.069 0.5C321.06 0.5 321.05 0.5 321.041 0.5C321.032 0.5 321.023 0.5 321.013 0.5C321.004 0.5 320.995 0.5 320.986 0.5C320.976 0.5 320.967 0.5 320.958 0.5C320.949 0.5 320.939 0.5 320.93 0.5C320.921 0.5 320.912 0.5 320.902 0.5C320.893 0.5 320.884 0.5 320.874 0.5C320.865 0.5 320.856 0.5 320.847 0.5C320.837 0.5 320.828 0.5 320.819 0.5C320.809 0.5 320.8 0.5 320.791 0.5C320.781 0.5 320.772 0.5 320.763 0.5C320.753 0.5 320.744 0.5 320.735 0.5C320.725 0.5 320.716 0.5 320.707 0.5C320.697 0.5 320.688 0.5 320.679 0.5C320.669 0.5 320.66 0.5 320.651 0.5C320.641 0.5 320.632 0.5 320.622 0.5C320.613 0.5 320.604 0.5 320.594 0.5C320.585 0.5 320.576 0.5 320.566 0.5C320.557 0.5 320.547 0.5 320.538 0.5C320.529 0.5 320.519 0.5 320.51 0.5C320.5 0.5 320.491 0.5 320.481 0.5C320.472 0.5 320.463 0.5 320.453 0.5C320.444 0.5 320.434 0.5 320.425 0.5C320.415 0.5 320.406 0.5 320.396 0.5C320.387 0.5 320.378 0.5 320.368 0.5C320.359 0.5 320.349 0.5 320.34 0.5C320.33 0.5 320.321 0.5 320.311 0.5C320.302 0.5 320.292 0.5 320.283 0.5C320.273 0.5 320.264 0.5 320.254 0.5C320.245 0.5 320.235 0.5 320.226 0.5C320.216 0.5 320.207 0.5 320.197 0.5C320.188 0.5 320.178 0.5 320.169 0.5C320.159 0.5 320.149 0.5 320.14 0.5C320.13 0.5 320.121 0.5 320.111 0.5C320.102 0.5 320.092 0.5 320.083 0.5C320.073 0.5 320.063 0.5 320.054 0.5C320.044 0.5 320.035 0.5 320.025 0.5C320.016 0.5 320.006 0.5 319.996 0.5C319.987 0.5 319.977 0.5 319.967 0.5C319.958 0.5 319.948 0.5 319.939 0.5C319.929 0.5 319.919 0.5 319.91 0.5C319.9 0.5 319.891 0.5 319.881 0.5C319.871 0.5 319.862 0.5 319.852 0.5C319.842 0.5 319.833 0.5 319.823 0.5C319.813 0.5 319.804 0.5 319.794 0.5C319.784 0.5 319.775 0.5 319.765 0.5C319.755 0.5 319.746 0.5 319.736 0.5C319.726 0.5 319.717 0.5 319.707 0.5C319.697 0.5 319.688 0.5 319.678 0.5C319.668 0.5 319.658 0.5 319.649 0.5C319.639 0.5 319.629 0.5 319.62 0.5C319.61 0.5 319.6 0.5 319.59 0.5C319.581 0.5 319.571 0.5 319.561 0.5C319.551 0.5 319.542 0.5 319.532 0.5C319.522 0.5 319.512 0.5 319.503 0.5C319.493 0.5 319.483 0.5 319.473 0.5C319.463 0.5 319.454 0.5 319.444 0.5C319.434 0.5 319.424 0.5 319.415 0.5C319.405 0.5 319.395 0.5 319.385 0.5C319.375 0.5 319.366 0.5 319.356 0.5C319.346 0.5 319.336 0.5 319.326 0.5C319.316 0.5 319.307 0.5 319.297 0.5C319.287 0.5 319.277 0.5 319.267 0.5C319.257 0.5 319.247 0.5 319.238 0.5C319.228 0.5 319.218 0.5 319.208 0.5C319.198 0.5 319.188 0.5 319.178 0.5C319.169 0.5 319.159 0.5 319.149 0.5C319.139 0.5 319.129 0.5 319.119 0.5C319.109 0.5 319.099 0.5 319.089 0.5C319.079 0.5 319.07 0.5 319.06 0.5C319.05 0.5 319.04 0.5 319.03 0.5C319.02 0.5 319.01 0.5 319 0.5C318.99 0.5 318.98 0.5 318.97 0.5C318.96 0.5 318.95 0.5 318.94 0.5C318.93 0.5 318.921 0.5 318.911 0.5C318.901 0.5 318.891 0.5 318.881 0.5C318.871 0.5 318.861 0.5 318.851 0.5C318.841 0.5 318.831 0.5 318.821 0.5C318.811 0.5 318.801 0.5 318.791 0.5C318.781 0.5 318.771 0.5 318.761 0.5C318.751 0.5 318.741 0.5 318.731 0.5C318.721 0.5 318.71 0.5 318.7 0.5C318.69 0.5 318.68 0.5 318.67 0.5C318.66 0.5 318.65 0.5 318.64 0.5C318.63 0.5 318.62 0.5 318.61 0.5C318.6 0.5 318.59 0.5 318.58 0.5C318.57 0.5 318.56 0.5 318.549 0.5C318.539 0.5 318.529 0.5 318.519 0.5C318.509 0.5 318.499 0.5 318.489 0.5C318.479 0.5 318.469 0.5 318.459 0.5C318.448 0.5 318.438 0.5 318.428 0.5C318.418 0.5 318.408 0.5 318.398 0.5C318.388 0.5 318.377 0.5 318.367 0.5C318.357 0.5 318.347 0.5 318.337 0.5C318.327 0.5 318.317 0.5 318.306 0.5C318.296 0.5 318.286 0.5 318.276 0.5C318.266 0.5 318.255 0.5 318.245 0.5C318.235 0.5 318.225 0.5 318.215 0.5C318.204 0.5 318.194 0.5 318.184 0.5C318.174 0.5 318.164 0.5 318.153 0.5C318.143 0.5 318.133 0.5 318.123 0.5C318.112 0.5 318.102 0.5 318.092 0.5C318.082 0.5 318.072 0.5 318.061 0.5C318.051 0.5 318.041 0.5 318.03 0.5C318.02 0.5 318.01 0.5 318 0.5C317.989 0.5 317.979 0.5 317.969 0.5C317.959 0.5 317.948 0.5 317.938 0.5C317.928 0.5 317.917 0.5 317.907 0.5C317.897 0.5 317.886 0.5 317.876 0.5C317.866 0.5 317.856 0.5 317.845 0.5C317.835 0.5 317.825 0.5 317.814 0.5C317.804 0.5 317.794 0.5 317.783 0.5C317.773 0.5 317.763 0.5 317.752 0.5C317.742 0.5 317.731 0.5 317.721 0.5C317.711 0.5 317.7 0.5 317.69 0.5C317.68 0.5 317.669 0.5 317.659 0.5C317.648 0.5 317.638 0.5 317.628 0.5C317.617 0.5 317.607 0.5 317.596 0.5C317.586 0.5 317.576 0.5 317.565 0.5C317.555 0.5 317.544 0.5 317.534 0.5C317.524 0.5 317.513 0.5 317.503 0.5C317.492 0.5 317.482 0.5 317.471 0.5C317.461 0.5 317.45 0.5 317.44 0.5C317.43 0.5 317.419 0.5 317.409 0.5C317.398 0.5 317.388 0.5 317.377 0.5C317.367 0.5 317.356 0.5 317.346 0.5C317.335 0.5 317.325 0.5 317.314 0.5C317.304 0.5 317.293 0.5 317.283 0.5C317.272 0.5 317.262 0.5 317.251 0.5C317.241 0.5 317.23 0.5 317.22 0.5C317.209 0.5 317.199 0.5 317.188 0.5C317.177 0.5 317.167 0.5 317.156 0.5C317.146 0.5 317.135 0.5 317.125 0.5C317.114 0.5 317.104 0.5 317.093 0.5C317.082 0.5 317.072 0.5 317.061 0.5C317.051 0.5 317.04 0.5 317.03 0.5C317.019 0.5 317.008 0.5 316.998 0.5C316.987 0.5 316.977 0.5 316.966 0.5C316.955 0.5 316.945 0.5 316.934 0.5C316.923 0.5 316.913 0.5 316.902 0.5C316.892 0.5 316.881 0.5 316.87 0.5C316.86 0.5 316.849 0.5 316.838 0.5C316.828 0.5 316.817 0.5 316.806 0.5C316.796 0.5 316.785 0.5 316.774 0.5C316.764 0.5 316.753 0.5 316.742 0.5C316.732 0.5 316.721 0.5 316.71 0.5C316.7 0.5 316.689 0.5 316.678 0.5C316.667 0.5 316.657 0.5 316.646 0.5C316.635 0.5 316.625 0.5 316.614 0.5C316.603 0.5 316.592 0.5 316.582 0.5C316.571 0.5 316.56 0.5 316.549 0.5C316.539 0.5 316.528 0.5 316.517 0.5C316.506 0.5 316.496 0.5 316.485 0.5C316.474 0.5 316.463 0.5 316.453 0.5C316.442 0.5 316.431 0.5 316.42 0.5C316.409 0.5 316.399 0.5 316.388 0.5C316.377 0.5 316.366 0.5 316.355 0.5C316.345 0.5 316.334 0.5 316.323 0.5C316.312 0.5 316.301 0.5 316.29 0.5C316.28 0.5 316.269 0.5 316.258 0.5C316.247 0.5 316.236 0.5 316.225 0.5C316.215 0.5 316.204 0.5 316.193 0.5C316.182 0.5 316.171 0.5 316.16 0.5C316.149 0.5 316.139 0.5 316.128 0.5C316.117 0.5 316.106 0.5 316.095 0.5C316.084 0.5 316.073 0.5 316.062 0.5C316.051 0.5 316.04 0.5 316.03 0.5C316.019 0.5 316.008 0.5 315.997 0.5C315.986 0.5 315.975 0.5 315.964 0.5C315.953 0.5 315.942 0.5 315.931 0.5C315.92 0.5 315.909 0.5 315.898 0.5C315.887 0.5 315.876 0.5 315.866 0.5C315.855 0.5 315.844 0.5 315.833 0.5C315.822 0.5 315.811 0.5 315.8 0.5C315.789 0.5 315.778 0.5 315.767 0.5C315.756 0.5 315.745 0.5 315.734 0.5C315.723 0.5 315.712 0.5 315.701 0.5C315.69 0.5 315.679 0.5 315.668 0.5C315.657 0.5 315.646 0.5 315.634 0.5C315.623 0.5 315.612 0.5 315.601 0.5C315.59 0.5 315.579 0.5 315.568 0.5C315.557 0.5 315.546 0.5 315.535 0.5C315.524 0.5 315.513 0.5 315.502 0.5C315.491 0.5 315.48 0.5 315.469 0.5C315.457 0.5 315.446 0.5 315.435 0.5C315.424 0.5 315.413 0.5 315.402 0.5C315.391 0.5 315.38 0.5 315.369 0.5C315.357 0.5 315.346 0.5 315.335 0.5C315.324 0.5 315.313 0.5 315.302 0.5C315.291 0.5 315.279 0.5 315.268 0.5C315.257 0.5 315.246 0.5 315.235 0.5C315.224 0.5 315.212 0.5 315.201 0.5C315.19 0.5 315.179 0.5 315.168 0.5C315.157 0.5 315.145 0.5 315.134 0.5C315.123 0.5 315.112 0.5 315.101 0.5C315.089 0.5 315.078 0.5 315.067 0.5C315.056 0.5 315.045 0.5 315.033 0.5C315.022 0.5 315.011 0.5 315 0.5C314.988 0.5 314.977 0.5 314.966 0.5C314.955 0.5 314.943 0.5 314.932 0.5C314.921 0.5 314.91 0.5 314.898 0.5C314.887 0.5 314.876 0.5 314.865 0.5C314.853 0.5 314.842 0.5 314.831 0.5C314.819 0.5 314.808 0.5 314.797 0.5C314.785 0.5 314.774 0.5 314.763 0.5C314.752 0.5 314.74 0.5 314.729 0.5C314.718 0.5 314.706 0.5 314.695 0.5C314.684 0.5 314.672 0.5 314.661 0.5C314.65 0.5 314.638 0.5 314.627 0.5C314.615 0.5 314.604 0.5 314.593 0.5C314.581 0.5 314.57 0.5 314.559 0.5C314.547 0.5 314.536 0.5 314.525 0.5C314.513 0.5 314.502 0.5 314.49 0.5C314.479 0.5 314.468 0.5 314.456 0.5C314.445 0.5 314.433 0.5 314.422 0.5C314.41 0.5 314.399 0.5 314.388 0.5C314.376 0.5 314.365 0.5 314.353 0.5C314.342 0.5 314.33 0.5 314.319 0.5C314.308 0.5 314.296 0.5 314.285 0.5C314.273 0.5 314.262 0.5 314.25 0.5C314.239 0.5 314.227 0.5 314.216 0.5C314.204 0.5 314.193 0.5 314.181 0.5C314.17 0.5 314.158 0.5 314.147 0.5C314.135 0.5 314.124 0.5 314.112 0.5C314.101 0.5 314.089 0.5 314.078 0.5C314.066 0.5 314.055 0.5 314.043 0.5C314.032 0.5 314.02 0.5 314.009 0.5C313.997 0.5 313.985 0.5 313.974 0.5C313.962 0.5 313.951 0.5 313.939 0.5C313.928 0.5 313.916 0.5 313.905 0.5C313.893 0.5 313.881 0.5 313.87 0.5C313.858 0.5 313.847 0.5 313.835 0.5C313.823 0.5 313.812 0.5 313.8 0.5C313.789 0.5 313.777 0.5 313.765 0.5C313.754 0.5 313.742 0.5 313.73 0.5C313.719 0.5 313.707 0.5 313.696 0.5C313.684 0.5 313.672 0.5 313.661 0.5C313.649 0.5 313.637 0.5 313.626 0.5C313.614 0.5 313.602 0.5 313.591 0.5C313.579 0.5 313.567 0.5 313.556 0.5C313.544 0.5 313.532 0.5 313.521 0.5C313.509 0.5 313.497 0.5 313.485 0.5C313.474 0.5 313.462 0.5 313.45 0.5C313.439 0.5 313.427 0.5 313.415 0.5C313.403 0.5 313.392 0.5 313.38 0.5C313.368 0.5 313.356 0.5 313.345 0.5C313.333 0.5 313.321 0.5 313.309 0.5C313.298 0.5 313.286 0.5 313.274 0.5C313.262 0.5 313.251 0.5 313.239 0.5C313.227 0.5 313.215 0.5 313.203 0.5C313.192 0.5 313.18 0.5 313.168 0.5C313.156 0.5 313.144 0.5 313.133 0.5C313.121 0.5 313.109 0.5 313.097 0.5C313.085 0.5 313.074 0.5 313.062 0.5C313.05 0.5 313.038 0.5 313.026 0.5C313.014 0.5 313.003 0.5 312.991 0.5C312.979 0.5 312.967 0.5 312.955 0.5C312.943 0.5 312.931 0.5 312.919 0.5C312.908 0.5 312.896 0.5 312.884 0.5C312.872 0.5 312.86 0.5 312.848 0.5C312.836 0.5 312.824 0.5 312.812 0.5C312.801 0.5 312.789 0.5 312.777 0.5C312.765 0.5 312.753 0.5 312.741 0.5C312.729 0.5 312.717 0.5 312.705 0.5C312.693 0.5 312.681 0.5 312.669 0.5C312.657 0.5 312.645 0.5 312.633 0.5C312.621 0.5 312.609 0.5 312.598 0.5C312.586 0.5 312.574 0.5 312.562 0.5C312.55 0.5 312.538 0.5 312.526 0.5C312.514 0.5 312.502 0.5 312.49 0.5C312.478 0.5 312.466 0.5 312.454 0.5C312.442 0.5 312.43 0.5 312.417 0.5C312.405 0.5 312.393 0.5 312.381 0.5C312.369 0.5 312.357 0.5 312.345 0.5C312.333 0.5 312.321 0.5 312.309 0.5C312.297 0.5 312.285 0.5 312.273 0.5C312.261 0.5 312.249 0.5 312.237 0.5C312.225 0.5 312.212 0.5 312.2 0.5C312.188 0.5 312.176 0.5 312.164 0.5C312.152 0.5 312.14 0.5 312.128 0.5C312.116 0.5 312.104 0.5 312.091 0.5C312.079 0.5 312.067 0.5 312.055 0.5C312.043 0.5 312.031 0.5 312.019 0.5C312.006 0.5 311.994 0.5 311.982 0.5C311.97 0.5 311.958 0.5 311.946 0.5C311.934 0.5 311.921 0.5 311.909 0.5C311.897 0.5 311.885 0.5 311.873 0.5C311.86 0.5 311.848 0.5 311.836 0.5C311.824 0.5 311.812 0.5 311.799 0.5C311.787 0.5 311.775 0.5 311.763 0.5C311.751 0.5 311.738 0.5 311.726 0.5C311.714 0.5 311.702 0.5 311.689 0.5C311.677 0.5 311.665 0.5 311.653 0.5C311.64 0.5 311.628 0.5 311.616 0.5C311.604 0.5 311.591 0.5 311.579 0.5C311.567 0.5 311.554 0.5 311.542 0.5C311.53 0.5 311.518 0.5 311.505 0.5C311.493 0.5 311.481 0.5 311.468 0.5C311.456 0.5 311.444 0.5 311.431 0.5C311.419 0.5 311.407 0.5 311.394 0.5C311.382 0.5 311.37 0.5 311.357 0.5C311.345 0.5 311.333 0.5 311.32 0.5C311.308 0.5 311.296 0.5 311.283 0.5C311.271 0.5 311.259 0.5 311.246 0.5C311.234 0.5 311.221 0.5 311.209 0.5C311.197 0.5 311.184 0.5 311.172 0.5C311.16 0.5 311.147 0.5 311.135 0.5C311.122 0.5 311.11 0.5 311.097 0.5C311.085 0.5 311.073 0.5 311.06 0.5C311.048 0.5 311.035 0.5 311.023 0.5C311.01 0.5 310.998 0.5 310.986 0.5C310.973 0.5 310.961 0.5 310.948 0.5C310.936 0.5 310.923 0.5 310.911 0.5V1.5ZM335.5 11V119H336.5V11H335.5ZM0.5 139V184H1.5V139H0.5ZM11 194.5H27.1607V193.5H11V194.5ZM157 128.5H11V129.5H157V128.5ZM326 128.5H180.571V129.5H326V128.5ZM0.5 184C0.5 189.799 5.20101 194.5 11 194.5V193.5C5.7533 193.5 1.5 189.247 1.5 184H0.5ZM1.5 139C1.5 133.753 5.7533 129.5 11 129.5V128.5C5.20101 128.5 0.5 133.201 0.5 139H1.5ZM335.5 119C335.5 124.247 331.247 128.5 326 128.5V129.5C331.799 129.5 336.5 124.799 336.5 119H335.5ZM326.002 1.5C331.248 1.5 335.5 5.75319 335.5 11H336.5C336.5 5.20112 331.801 0.5 326.002 0.5V1.5Z" fill="url(#paint0_linear_19_9736)"/>
<path d="M168 128.5C168.276 128.5 168.5 128.724 168.5 129C168.5 129.276 168.276 129.5 168 129.5V128.5ZM166.646 129.354C166.451 129.158 166.451 128.842 166.646 128.646L169.828 125.464C170.024 125.269 170.34 125.269 170.536 125.464C170.731 125.66 170.731 125.976 170.536 126.172L167.707 129L170.536 131.828C170.731 132.024 170.731 132.34 170.536 132.536C170.34 132.731 170.024 132.731 169.828 132.536L166.646 129.354ZM168 129.5H167V128.5H168V129.5Z" fill="url(#paint1_linear_19_9736)"/>
<path d="M310.911 194.5C310.635 194.5 310.411 194.724 310.411 195C310.411 195.276 310.635 195.5 310.911 195.5V194.5ZM27.5143 388.354C27.7095 388.158 27.7095 387.842 27.5143 387.646L24.3323 384.464C24.137 384.269 23.8204 384.269 23.6252 384.464C23.4299 384.66 23.4299 384.976 23.6252 385.172L26.4536 388L23.6252 390.828C23.4299 391.024 23.4299 391.34 23.6252 391.536C23.8204 391.731 24.137 391.731 24.3323 391.536L27.5143 388.354ZM157 323.5C157.276 323.5 157.5 323.276 157.5 323C157.5 322.724 157.276 322.5 157 322.5V323.5ZM180.571 322.5C180.295 322.5 180.071 322.724 180.071 323C180.071 323.276 180.295 323.5 180.571 323.5V322.5ZM310.911 195.5C310.923 195.5 310.936 195.5 310.948 195.5C310.961 195.5 310.973 195.5 310.986 195.5C310.998 195.5 311.01 195.5 311.023 195.5C311.035 195.5 311.048 195.5 311.06 195.5C311.073 195.5 311.085 195.5 311.097 195.5C311.11 195.5 311.122 195.5 311.135 195.5C311.147 195.5 311.16 195.5 311.172 195.5C311.184 195.5 311.197 195.5 311.209 195.5C311.221 195.5 311.234 195.5 311.246 195.5C311.259 195.5 311.271 195.5 311.283 195.5C311.296 195.5 311.308 195.5 311.32 195.5C311.333 195.5 311.345 195.5 311.357 195.5C311.37 195.5 311.382 195.5 311.394 195.5C311.407 195.5 311.419 195.5 311.431 195.5C311.444 195.5 311.456 195.5 311.468 195.5C311.481 195.5 311.493 195.5 311.505 195.5C311.518 195.5 311.53 195.5 311.542 195.5C311.554 195.5 311.567 195.5 311.579 195.5C311.591 195.5 311.604 195.5 311.616 195.5C311.628 195.5 311.64 195.5 311.653 195.5C311.665 195.5 311.677 195.5 311.689 195.5C311.702 195.5 311.714 195.5 311.726 195.5C311.738 195.5 311.751 195.5 311.763 195.5C311.775 195.5 311.787 195.5 311.799 195.5C311.812 195.5 311.824 195.5 311.836 195.5C311.848 195.5 311.86 195.5 311.873 195.5C311.885 195.5 311.897 195.5 311.909 195.5C311.921 195.5 311.934 195.5 311.946 195.5C311.958 195.5 311.97 195.5 311.982 195.5C311.994 195.5 312.006 195.5 312.019 195.5C312.031 195.5 312.043 195.5 312.055 195.5C312.067 195.5 312.079 195.5 312.091 195.5C312.104 195.5 312.116 195.5 312.128 195.5C312.14 195.5 312.152 195.5 312.164 195.5C312.176 195.5 312.188 195.5 312.2 195.5C312.212 195.5 312.225 195.5 312.237 195.5C312.249 195.5 312.261 195.5 312.273 195.5C312.285 195.5 312.297 195.5 312.309 195.5C312.321 195.5 312.333 195.5 312.345 195.5C312.357 195.5 312.369 195.5 312.381 195.5C312.393 195.5 312.405 195.5 312.417 195.5C312.43 195.5 312.442 195.5 312.454 195.5C312.466 195.5 312.478 195.5 312.49 195.5C312.502 195.5 312.514 195.5 312.526 195.5C312.538 195.5 312.55 195.5 312.562 195.5C312.574 195.5 312.586 195.5 312.598 195.5C312.609 195.5 312.621 195.5 312.633 195.5C312.645 195.5 312.657 195.5 312.669 195.5C312.681 195.5 312.693 195.5 312.705 195.5C312.717 195.5 312.729 195.5 312.741 195.5C312.753 195.5 312.765 195.5 312.777 195.5C312.789 195.5 312.801 195.5 312.812 195.5C312.824 195.5 312.836 195.5 312.848 195.5C312.86 195.5 312.872 195.5 312.884 195.5C312.896 195.5 312.908 195.5 312.919 195.5C312.931 195.5 312.943 195.5 312.955 195.5C312.967 195.5 312.979 195.5 312.991 195.5C313.003 195.5 313.014 195.5 313.026 195.5C313.038 195.5 313.05 195.5 313.062 195.5C313.074 195.5 313.085 195.5 313.097 195.5C313.109 195.5 313.121 195.5 313.133 195.5C313.144 195.5 313.156 195.5 313.168 195.5C313.18 195.5 313.192 195.5 313.203 195.5C313.215 195.5 313.227 195.5 313.239 195.5C313.251 195.5 313.262 195.5 313.274 195.5C313.286 195.5 313.298 195.5 313.309 195.5C313.321 195.5 313.333 195.5 313.345 195.5C313.356 195.5 313.368 195.5 313.38 195.5C313.392 195.5 313.403 195.5 313.415 195.5C313.427 195.5 313.439 195.5 313.45 195.5C313.462 195.5 313.474 195.5 313.485 195.5C313.497 195.5 313.509 195.5 313.521 195.5C313.532 195.5 313.544 195.5 313.556 195.5C313.567 195.5 313.579 195.5 313.591 195.5C313.602 195.5 313.614 195.5 313.626 195.5C313.637 195.5 313.649 195.5 313.661 195.5C313.672 195.5 313.684 195.5 313.696 195.5C313.707 195.5 313.719 195.5 313.73 195.5C313.742 195.5 313.754 195.5 313.765 195.5C313.777 195.5 313.789 195.5 313.8 195.5C313.812 195.5 313.823 195.5 313.835 195.5C313.847 195.5 313.858 195.5 313.87 195.5C313.881 195.5 313.893 195.5 313.905 195.5C313.916 195.5 313.928 195.5 313.939 195.5C313.951 195.5 313.962 195.5 313.974 195.5C313.985 195.5 313.997 195.5 314.009 195.5C314.02 195.5 314.032 195.5 314.043 195.5C314.055 195.5 314.066 195.5 314.078 195.5C314.089 195.5 314.101 195.5 314.112 195.5C314.124 195.5 314.135 195.5 314.147 195.5C314.158 195.5 314.17 195.5 314.181 195.5C314.193 195.5 314.204 195.5 314.216 195.5C314.227 195.5 314.239 195.5 314.25 195.5C314.262 195.5 314.273 195.5 314.285 195.5C314.296 195.5 314.308 195.5 314.319 195.5C314.33 195.5 314.342 195.5 314.353 195.5C314.365 195.5 314.376 195.5 314.388 195.5C314.399 195.5 314.41 195.5 314.422 195.5C314.433 195.5 314.445 195.5 314.456 195.5C314.468 195.5 314.479 195.5 314.49 195.5C314.502 195.5 314.513 195.5 314.525 195.5C314.536 195.5 314.547 195.5 314.559 195.5C314.57 195.5 314.581 195.5 314.593 195.5C314.604 195.5 314.615 195.5 314.627 195.5C314.638 195.5 314.65 195.5 314.661 195.5C314.672 195.5 314.684 195.5 314.695 195.5C314.706 195.5 314.718 195.5 314.729 195.5C314.74 195.5 314.752 195.5 314.763 195.5C314.774 195.5 314.785 195.5 314.797 195.5C314.808 195.5 314.819 195.5 314.831 195.5C314.842 195.5 314.853 195.5 314.865 195.5C314.876 195.5 314.887 195.5 314.898 195.5C314.91 195.5 314.921 195.5 314.932 195.5C314.943 195.5 314.955 195.5 314.966 195.5C314.977 195.5 314.988 195.5 315 195.5C315.011 195.5 315.022 195.5 315.033 195.5C315.045 195.5 315.056 195.5 315.067 195.5C315.078 195.5 315.089 195.5 315.101 195.5C315.112 195.5 315.123 195.5 315.134 195.5C315.145 195.5 315.157 195.5 315.168 195.5C315.179 195.5 315.19 195.5 315.201 195.5C315.212 195.5 315.224 195.5 315.235 195.5C315.246 195.5 315.257 195.5 315.268 195.5C315.279 195.5 315.291 195.5 315.302 195.5C315.313 195.5 315.324 195.5 315.335 195.5C315.346 195.5 315.357 195.5 315.369 195.5C315.38 195.5 315.391 195.5 315.402 195.5C315.413 195.5 315.424 195.5 315.435 195.5C315.446 195.5 315.457 195.5 315.469 195.5C315.48 195.5 315.491 195.5 315.502 195.5C315.513 195.5 315.524 195.5 315.535 195.5C315.546 195.5 315.557 195.5 315.568 195.5C315.579 195.5 315.59 195.5 315.601 195.5C315.612 195.5 315.623 195.5 315.634 195.5C315.646 195.5 315.657 195.5 315.668 195.5C315.679 195.5 315.69 195.5 315.701 195.5C315.712 195.5 315.723 195.5 315.734 195.5C315.745 195.5 315.756 195.5 315.767 195.5C315.778 195.5 315.789 195.5 315.8 195.5C315.811 195.5 315.822 195.5 315.833 195.5C315.844 195.5 315.855 195.5 315.866 195.5C315.876 195.5 315.887 195.5 315.898 195.5C315.909 195.5 315.92 195.5 315.931 195.5C315.942 195.5 315.953 195.5 315.964 195.5C315.975 195.5 315.986 195.5 315.997 195.5C316.008 195.5 316.019 195.5 316.03 195.5C316.04 195.5 316.051 195.5 316.062 195.5C316.073 195.5 316.084 195.5 316.095 195.5C316.106 195.5 316.117 195.5 316.128 195.5C316.139 195.5 316.149 195.5 316.16 195.5C316.171 195.5 316.182 195.5 316.193 195.5C316.204 195.5 316.215 195.5 316.225 195.5C316.236 195.5 316.247 195.5 316.258 195.5C316.269 195.5 316.28 195.5 316.29 195.5C316.301 195.5 316.312 195.5 316.323 195.5C316.334 195.5 316.345 195.5 316.355 195.5C316.366 195.5 316.377 195.5 316.388 195.5C316.399 195.5 316.409 195.5 316.42 195.5C316.431 195.5 316.442 195.5 316.453 195.5C316.463 195.5 316.474 195.5 316.485 195.5C316.496 195.5 316.506 195.5 316.517 195.5C316.528 195.5 316.539 195.5 316.549 195.5C316.56 195.5 316.571 195.5 316.582 195.5C316.592 195.5 316.603 195.5 316.614 195.5C316.625 195.5 316.635 195.5 316.646 195.5C316.657 195.5 316.667 195.5 316.678 195.5C316.689 195.5 316.7 195.5 316.71 195.5C316.721 195.5 316.732 195.5 316.742 195.5C316.753 195.5 316.764 195.5 316.774 195.5C316.785 195.5 316.796 195.5 316.806 195.5C316.817 195.5 316.828 195.5 316.838 195.5C316.849 195.5 316.86 195.5 316.87 195.5C316.881 195.5 316.892 195.5 316.902 195.5C316.913 195.5 316.923 195.5 316.934 195.5C316.945 195.5 316.955 195.5 316.966 195.5C316.977 195.5 316.987 195.5 316.998 195.5C317.008 195.5 317.019 195.5 317.03 195.5C317.04 195.5 317.051 195.5 317.061 195.5C317.072 195.5 317.082 195.5 317.093 195.5C317.104 195.5 317.114 195.5 317.125 195.5C317.135 195.5 317.146 195.5 317.156 195.5C317.167 195.5 317.177 195.5 317.188 195.5C317.199 195.5 317.209 195.5 317.22 195.5C317.23 195.5 317.241 195.5 317.251 195.5C317.262 195.5 317.272 195.5 317.283 195.5C317.293 195.5 317.304 195.5 317.314 195.5C317.325 195.5 317.335 195.5 317.346 195.5C317.356 195.5 317.367 195.5 317.377 195.5C317.388 195.5 317.398 195.5 317.409 195.5C317.419 195.5 317.43 195.5 317.44 195.5C317.45 195.5 317.461 195.5 317.471 195.5C317.482 195.5 317.492 195.5 317.503 195.5C317.513 195.5 317.524 195.5 317.534 195.5C317.544 195.5 317.555 195.5 317.565 195.5C317.576 195.5 317.586 195.5 317.596 195.5C317.607 195.5 317.617 195.5 317.628 195.5C317.638 195.5 317.648 195.5 317.659 195.5C317.669 195.5 317.68 195.5 317.69 195.5C317.7 195.5 317.711 195.5 317.721 195.5C317.731 195.5 317.742 195.5 317.752 195.5C317.763 195.5 317.773 195.5 317.783 195.5C317.794 195.5 317.804 195.5 317.814 195.5C317.825 195.5 317.835 195.5 317.845 195.5C317.856 195.5 317.866 195.5 317.876 195.5C317.886 195.5 317.897 195.5 317.907 195.5C317.917 195.5 317.928 195.5 317.938 195.5C317.948 195.5 317.959 195.5 317.969 195.5C317.979 195.5 317.989 195.5 318 195.5C318.01 195.5 318.02 195.5 318.03 195.5C318.041 195.5 318.051 195.5 318.061 195.5C318.072 195.5 318.082 195.5 318.092 195.5C318.102 195.5 318.112 195.5 318.123 195.5C318.133 195.5 318.143 195.5 318.153 195.5C318.164 195.5 318.174 195.5 318.184 195.5C318.194 195.5 318.204 195.5 318.215 195.5C318.225 195.5 318.235 195.5 318.245 195.5C318.255 195.5 318.266 195.5 318.276 195.5C318.286 195.5 318.296 195.5 318.306 195.5C318.317 195.5 318.327 195.5 318.337 195.5C318.347 195.5 318.357 195.5 318.367 195.5C318.377 195.5 318.388 195.5 318.398 195.5C318.408 195.5 318.418 195.5 318.428 195.5C318.438 195.5 318.448 195.5 318.459 195.5C318.469 195.5 318.479 195.5 318.489 195.5C318.499 195.5 318.509 195.5 318.519 195.5C318.529 195.5 318.539 195.5 318.549 195.5C318.56 195.5 318.57 195.5 318.58 195.5C318.59 195.5 318.6 195.5 318.61 195.5C318.62 195.5 318.63 195.5 318.64 195.5C318.65 195.5 318.66 195.5 318.67 195.5C318.68 195.5 318.69 195.5 318.7 195.5C318.71 195.5 318.721 195.5 318.731 195.5C318.741 195.5 318.751 195.5 318.761 195.5C318.771 195.5 318.781 195.5 318.791 195.5C318.801 195.5 318.811 195.5 318.821 195.5C318.831 195.5 318.841 195.5 318.851 195.5C318.861 195.5 318.871 195.5 318.881 195.5C318.891 195.5 318.901 195.5 318.911 195.5C318.921 195.5 318.93 195.5 318.94 195.5C318.95 195.5 318.96 195.5 318.97 195.5C318.98 195.5 318.99 195.5 319 195.5C319.01 195.5 319.02 195.5 319.03 195.5C319.04 195.5 319.05 195.5 319.06 195.5C319.07 195.5 319.079 195.5 319.089 195.5C319.099 195.5 319.109 195.5 319.119 195.5C319.129 195.5 319.139 195.5 319.149 195.5C319.159 195.5 319.169 195.5 319.178 195.5C319.188 195.5 319.198 195.5 319.208 195.5C319.218 195.5 319.228 195.5 319.238 195.5C319.247 195.5 319.257 195.5 319.267 195.5C319.277 195.5 319.287 195.5 319.297 195.5C319.307 195.5 319.316 195.5 319.326 195.5C319.336 195.5 319.346 195.5 319.356 195.5C319.366 195.5 319.375 195.5 319.385 195.5C319.395 195.5 319.405 195.5 319.415 195.5C319.424 195.5 319.434 195.5 319.444 195.5C319.454 195.5 319.463 195.5 319.473 195.5C319.483 195.5 319.493 195.5 319.503 195.5C319.512 195.5 319.522 195.5 319.532 195.5C319.542 195.5 319.551 195.5 319.561 195.5C319.571 195.5 319.581 195.5 319.59 195.5C319.6 195.5 319.61 195.5 319.62 195.5C319.629 195.5 319.639 195.5 319.649 195.5C319.658 195.5 319.668 195.5 319.678 195.5C319.688 195.5 319.697 195.5 319.707 195.5C319.717 195.5 319.726 195.5 319.736 195.5C319.746 195.5 319.755 195.5 319.765 195.5C319.775 195.5 319.784 195.5 319.794 195.5C319.804 195.5 319.813 195.5 319.823 195.5C319.833 195.5 319.842 195.5 319.852 195.5C319.862 195.5 319.871 195.5 319.881 195.5C319.891 195.5 319.9 195.5 319.91 195.5C319.919 195.5 319.929 195.5 319.939 195.5C319.948 195.5 319.958 195.5 319.967 195.5C319.977 195.5 319.987 195.5 319.996 195.5C320.006 195.5 320.016 195.5 320.025 195.5C320.035 195.5 320.044 195.5 320.054 195.5C320.063 195.5 320.073 195.5 320.083 195.5C320.092 195.5 320.102 195.5 320.111 195.5C320.121 195.5 320.13 195.5 320.14 195.5C320.149 195.5 320.159 195.5 320.169 195.5C320.178 195.5 320.188 195.5 320.197 195.5C320.207 195.5 320.216 195.5 320.226 195.5C320.235 195.5 320.245 195.5 320.254 195.5C320.264 195.5 320.273 195.5 320.283 195.5C320.292 195.5 320.302 195.5 320.311 195.5C320.321 195.5 320.33 195.5 320.34 195.5C320.349 195.5 320.359 195.5 320.368 195.5C320.378 195.5 320.387 195.5 320.396 195.5C320.406 195.5 320.415 195.5 320.425 195.5C320.434 195.5 320.444 195.5 320.453 195.5C320.463 195.5 320.472 195.5 320.481 195.5C320.491 195.5 320.5 195.5 320.51 195.5C320.519 195.5 320.529 195.5 320.538 195.5C320.547 195.5 320.557 195.5 320.566 195.5C320.576 195.5 320.585 195.5 320.594 195.5C320.604 195.5 320.613 195.5 320.622 195.5C320.632 195.5 320.641 195.5 320.651 195.5C320.66 195.5 320.669 195.5 320.679 195.5C320.688 195.5 320.697 195.5 320.707 195.5C320.716 195.5 320.725 195.5 320.735 195.5C320.744 195.5 320.753 195.5 320.763 195.5C320.772 195.5 320.781 195.5 320.791 195.5C320.8 195.5 320.809 195.5 320.819 195.5C320.828 195.5 320.837 195.5 320.847 195.5C320.856 195.5 320.865 195.5 320.874 195.5C320.884 195.5 320.893 195.5 320.902 195.5C320.912 195.5 320.921 195.5 320.93 195.5C320.939 195.5 320.949 195.5 320.958 195.5C320.967 195.5 320.976 195.5 320.986 195.5C320.995 195.5 321.004 195.5 321.013 195.5C321.023 195.5 321.032 195.5 321.041 195.5C321.05 195.5 321.06 195.5 321.069 195.5C321.078 195.5 321.087 195.5 321.096 195.5C321.106 195.5 321.115 195.5 321.124 195.5C321.133 195.5 321.142 195.5 321.152 195.5C321.161 195.5 321.17 195.5 321.179 195.5C321.188 195.5 321.198 195.5 321.207 195.5C321.216 195.5 321.225 195.5 321.234 195.5C321.243 195.5 321.253 195.5 321.262 195.5C321.271 195.5 321.28 195.5 321.289 195.5C321.298 195.5 321.307 195.5 321.317 195.5C321.326 195.5 321.335 195.5 321.344 195.5C321.353 195.5 321.362 195.5 321.371 195.5C321.38 195.5 321.389 195.5 321.399 195.5C321.408 195.5 321.417 195.5 321.426 195.5C321.435 195.5 321.444 195.5 321.453 195.5C321.462 195.5 321.471 195.5 321.48 195.5C321.489 195.5 321.498 195.5 321.508 195.5C321.517 195.5 321.526 195.5 321.535 195.5C321.544 195.5 321.553 195.5 321.562 195.5C321.571 195.5 321.58 195.5 321.589 195.5C321.598 195.5 321.607 195.5 321.616 195.5C321.625 195.5 321.634 195.5 321.643 195.5C321.652 195.5 321.661 195.5 321.67 195.5C321.679 195.5 321.688 195.5 321.697 195.5C321.706 195.5 321.715 195.5 321.724 195.5C321.733 195.5 321.742 195.5 321.751 195.5C321.76 195.5 321.769 195.5 321.778 195.5C321.787 195.5 321.796 195.5 321.805 195.5C321.814 195.5 321.823 195.5 321.832 195.5C321.841 195.5 321.85 195.5 321.859 195.5C321.867 195.5 321.876 195.5 321.885 195.5C321.894 195.5 321.903 195.5 321.912 195.5C321.921 195.5 321.93 195.5 321.939 195.5C321.948 195.5 321.957 195.5 321.966 195.5C321.974 195.5 321.983 195.5 321.992 195.5C322.001 195.5 322.01 195.5 322.019 195.5C322.028 195.5 322.037 195.5 322.045 195.5C322.054 195.5 322.063 195.5 322.072 195.5C322.081 195.5 322.09 195.5 322.099 195.5C322.107 195.5 322.116 195.5 322.125 195.5C322.134 195.5 322.143 195.5 322.152 195.5C322.16 195.5 322.169 195.5 322.178 195.5C322.187 195.5 322.196 195.5 322.205 195.5C322.213 195.5 322.222 195.5 322.231 195.5C322.24 195.5 322.249 195.5 322.257 195.5C322.266 195.5 322.275 195.5 322.284 195.5C322.292 195.5 322.301 195.5 322.31 195.5C322.319 195.5 322.328 195.5 322.336 195.5C322.345 195.5 322.354 195.5 322.363 195.5C322.371 195.5 322.38 195.5 322.389 195.5C322.398 195.5 322.406 195.5 322.415 195.5C322.424 195.5 322.432 195.5 322.441 195.5C322.45 195.5 322.459 195.5 322.467 195.5C322.476 195.5 322.485 195.5 322.493 195.5C322.502 195.5 322.511 195.5 322.52 195.5C322.528 195.5 322.537 195.5 322.546 195.5C322.554 195.5 322.563 195.5 322.572 195.5C322.58 195.5 322.589 195.5 322.598 195.5C322.606 195.5 322.615 195.5 322.624 195.5C322.632 195.5 322.641 195.5 322.65 195.5C322.658 195.5 322.667 195.5 322.676 195.5C322.684 195.5 322.693 195.5 322.701 195.5C322.71 195.5 322.719 195.5 322.727 195.5C322.736 195.5 322.745 195.5 322.753 195.5C322.762 195.5 322.77 195.5 322.779 195.5C322.788 195.5 322.796 195.5 322.805 195.5C322.813 195.5 322.822 195.5 322.83 195.5C322.839 195.5 322.848 195.5 322.856 195.5C322.865 195.5 322.873 195.5 322.882 195.5C322.89 195.5 322.899 195.5 322.908 195.5C322.916 195.5 322.925 195.5 322.933 195.5C322.942 195.5 322.95 195.5 322.959 195.5C322.967 195.5 322.976 195.5 322.984 195.5C322.993 195.5 323.001 195.5 323.01 195.5C323.018 195.5 323.027 195.5 323.035 195.5C323.044 195.5 323.052 195.5 323.061 195.5C323.069 195.5 323.078 195.5 323.086 195.5C323.095 195.5 323.103 195.5 323.112 195.5C323.12 195.5 323.129 195.5 323.137 195.5C323.146 195.5 323.154 195.5 323.163 195.5C323.171 195.5 323.179 195.5 323.188 195.5C323.196 195.5 323.205 195.5 323.213 195.5C323.222 195.5 323.23 195.5 323.238 195.5C323.247 195.5 323.255 195.5 323.264 195.5C323.272 195.5 323.281 195.5 323.289 195.5C323.297 195.5 323.306 195.5 323.314 195.5C323.323 195.5 323.331 195.5 323.339 195.5C323.348 195.5 323.356 195.5 323.364 195.5C323.373 195.5 323.381 195.5 323.39 195.5C323.398 195.5 323.406 195.5 323.415 195.5C323.423 195.5 323.431 195.5 323.44 195.5C323.448 195.5 323.456 195.5 323.465 195.5C323.473 195.5 323.481 195.5 323.49 195.5C323.498 195.5 323.506 195.5 323.515 195.5C323.523 195.5 323.531 195.5 323.54 195.5C323.548 195.5 323.556 195.5 323.565 195.5C323.573 195.5 323.581 195.5 323.589 195.5C323.598 195.5 323.606 195.5 323.614 195.5C323.623 195.5 323.631 195.5 323.639 195.5C323.647 195.5 323.656 195.5 323.664 195.5C323.672 195.5 323.68 195.5 323.689 195.5C323.697 195.5 323.705 195.5 323.713 195.5C323.722 195.5 323.73 195.5 323.738 195.5C323.746 195.5 323.755 195.5 323.763 195.5C323.771 195.5 323.779 195.5 323.788 195.5C323.796 195.5 323.804 195.5 323.812 195.5C323.82 195.5 323.829 195.5 323.837 195.5C323.845 195.5 323.853 195.5 323.861 195.5C323.869 195.5 323.878 195.5 323.886 195.5C323.894 195.5 323.902 195.5 323.91 195.5C323.919 195.5 323.927 195.5 323.935 195.5C323.943 195.5 323.951 195.5 323.959 195.5C323.967 195.5 323.976 195.5 323.984 195.5C323.992 195.5 324 195.5 324.008 195.5C324.016 195.5 324.024 195.5 324.033 195.5C324.041 195.5 324.049 195.5 324.057 195.5C324.065 195.5 324.073 195.5 324.081 195.5C324.089 195.5 324.097 195.5 324.105 195.5C324.114 195.5 324.122 195.5 324.13 195.5C324.138 195.5 324.146 195.5 324.154 195.5C324.162 195.5 324.17 195.5 324.178 195.5C324.186 195.5 324.194 195.5 324.202 195.5C324.21 195.5 324.218 195.5 324.226 195.5C324.235 195.5 324.243 195.5 324.251 195.5C324.259 195.5 324.267 195.5 324.275 195.5C324.283 195.5 324.291 195.5 324.299 195.5C324.307 195.5 324.315 195.5 324.323 195.5C324.331 195.5 324.339 195.5 324.347 195.5C324.355 195.5 324.363 195.5 324.371 195.5C324.379 195.5 324.387 195.5 324.395 195.5C324.403 195.5 324.411 195.5 324.419 195.5C324.427 195.5 324.435 195.5 324.443 195.5C324.45 195.5 324.458 195.5 324.466 195.5C324.474 195.5 324.482 195.5 324.49 195.5C324.498 195.5 324.506 195.5 324.514 195.5C324.522 195.5 324.53 195.5 324.538 195.5C324.546 195.5 324.554 195.5 324.562 195.5C324.569 195.5 324.577 195.5 324.585 195.5C324.593 195.5 324.601 195.5 324.609 195.5C324.617 195.5 324.625 195.5 324.633 195.5C324.641 195.5 324.648 195.5 324.656 195.5C324.664 195.5 324.672 195.5 324.68 195.5C324.688 195.5 324.696 195.5 324.703 195.5C324.711 195.5 324.719 195.5 324.727 195.5C324.735 195.5 324.743 195.5 324.751 195.5C324.758 195.5 324.766 195.5 324.774 195.5C324.782 195.5 324.79 195.5 324.798 195.5C324.805 195.5 324.813 195.5 324.821 195.5C324.829 195.5 324.837 195.5 324.844 195.5C324.852 195.5 324.86 195.5 324.868 195.5C324.876 195.5 324.883 195.5 324.891 195.5C324.899 195.5 324.907 195.5 324.914 195.5C324.922 195.5 324.93 195.5 324.938 195.5C324.946 195.5 324.953 195.5 324.961 195.5C324.969 195.5 324.977 195.5 324.984 195.5C324.992 195.5 325 195.5 325.008 195.5C325.015 195.5 325.023 195.5 325.031 195.5C325.038 195.5 325.046 195.5 325.054 195.5C325.062 195.5 325.069 195.5 325.077 195.5C325.085 195.5 325.092 195.5 325.1 195.5C325.108 195.5 325.115 195.5 325.123 195.5C325.131 195.5 325.139 195.5 325.146 195.5C325.154 195.5 325.162 195.5 325.169 195.5C325.177 195.5 325.185 195.5 325.192 195.5C325.2 195.5 325.208 195.5 325.215 195.5C325.223 195.5 325.231 195.5 325.238 195.5C325.246 195.5 325.253 195.5 325.261 195.5C325.269 195.5 325.276 195.5 325.284 195.5C325.292 195.5 325.299 195.5 325.307 195.5C325.314 195.5 325.322 195.5 325.33 195.5C325.337 195.5 325.345 195.5 325.352 195.5C325.36 195.5 325.368 195.5 325.375 195.5C325.383 195.5 325.39 195.5 325.398 195.5C325.406 195.5 325.413 195.5 325.421 195.5C325.428 195.5 325.436 195.5 325.443 195.5C325.451 195.5 325.458 195.5 325.466 195.5C325.474 195.5 325.481 195.5 325.489 195.5C325.496 195.5 325.504 195.5 325.511 195.5C325.519 195.5 325.526 195.5 325.534 195.5C325.541 195.5 325.549 195.5 325.556 195.5C325.564 195.5 325.571 195.5 325.579 195.5C325.586 195.5 325.594 195.5 325.601 195.5C325.609 195.5 325.616 195.5 325.624 195.5C325.631 195.5 325.639 195.5 325.646 195.5C325.654 195.5 325.661 195.5 325.669 195.5C325.676 195.5 325.684 195.5 325.691 195.5C325.699 195.5 325.706 195.5 325.714 195.5C325.721 195.5 325.728 195.5 325.736 195.5C325.743 195.5 325.751 195.5 325.758 195.5C325.766 195.5 325.773 195.5 325.78 195.5C325.788 195.5 325.795 195.5 325.803 195.5C325.81 195.5 325.817 195.5 325.825 195.5C325.832 195.5 325.84 195.5 325.847 195.5C325.854 195.5 325.862 195.5 325.869 195.5C325.877 195.5 325.884 195.5 325.891 195.5C325.899 195.5 325.906 195.5 325.913 195.5C325.921 195.5 325.928 195.5 325.936 195.5C325.943 195.5 325.95 195.5 325.958 195.5C325.965 195.5 325.972 195.5 325.98 195.5C325.987 195.5 325.994 195.5 326.002 195.5V194.5C325.994 194.5 325.987 194.5 325.98 194.5C325.972 194.5 325.965 194.5 325.958 194.5C325.95 194.5 325.943 194.5 325.936 194.5C325.928 194.5 325.921 194.5 325.913 194.5C325.906 194.5 325.899 194.5 325.891 194.5C325.884 194.5 325.877 194.5 325.869 194.5C325.862 194.5 325.854 194.5 325.847 194.5C325.84 194.5 325.832 194.5 325.825 194.5C325.817 194.5 325.81 194.5 325.803 194.5C325.795 194.5 325.788 194.5 325.78 194.5C325.773 194.5 325.766 194.5 325.758 194.5C325.751 194.5 325.743 194.5 325.736 194.5C325.728 194.5 325.721 194.5 325.714 194.5C325.706 194.5 325.699 194.5 325.691 194.5C325.684 194.5 325.676 194.5 325.669 194.5C325.661 194.5 325.654 194.5 325.646 194.5C325.639 194.5 325.631 194.5 325.624 194.5C325.616 194.5 325.609 194.5 325.601 194.5C325.594 194.5 325.586 194.5 325.579 194.5C325.571 194.5 325.564 194.5 325.556 194.5C325.549 194.5 325.541 194.5 325.534 194.5C325.526 194.5 325.519 194.5 325.511 194.5C325.504 194.5 325.496 194.5 325.489 194.5C325.481 194.5 325.474 194.5 325.466 194.5C325.458 194.5 325.451 194.5 325.443 194.5C325.436 194.5 325.428 194.5 325.421 194.5C325.413 194.5 325.406 194.5 325.398 194.5C325.39 194.5 325.383 194.5 325.375 194.5C325.368 194.5 325.36 194.5 325.352 194.5C325.345 194.5 325.337 194.5 325.33 194.5C325.322 194.5 325.314 194.5 325.307 194.5C325.299 194.5 325.292 194.5 325.284 194.5C325.276 194.5 325.269 194.5 325.261 194.5C325.253 194.5 325.246 194.5 325.238 194.5C325.231 194.5 325.223 194.5 325.215 194.5C325.208 194.5 325.2 194.5 325.192 194.5C325.185 194.5 325.177 194.5 325.169 194.5C325.162 194.5 325.154 194.5 325.146 194.5C325.139 194.5 325.131 194.5 325.123 194.5C325.115 194.5 325.108 194.5 325.1 194.5C325.092 194.5 325.085 194.5 325.077 194.5C325.069 194.5 325.062 194.5 325.054 194.5C325.046 194.5 325.038 194.5 325.031 194.5C325.023 194.5 325.015 194.5 325.008 194.5C325 194.5 324.992 194.5 324.984 194.5C324.977 194.5 324.969 194.5 324.961 194.5C324.953 194.5 324.946 194.5 324.938 194.5C324.93 194.5 324.922 194.5 324.914 194.5C324.907 194.5 324.899 194.5 324.891 194.5C324.883 194.5 324.876 194.5 324.868 194.5C324.86 194.5 324.852 194.5 324.844 194.5C324.837 194.5 324.829 194.5 324.821 194.5C324.813 194.5 324.805 194.5 324.798 194.5C324.79 194.5 324.782 194.5 324.774 194.5C324.766 194.5 324.758 194.5 324.751 194.5C324.743 194.5 324.735 194.5 324.727 194.5C324.719 194.5 324.711 194.5 324.703 194.5C324.696 194.5 324.688 194.5 324.68 194.5C324.672 194.5 324.664 194.5 324.656 194.5C324.648 194.5 324.641 194.5 324.633 194.5C324.625 194.5 324.617 194.5 324.609 194.5C324.601 194.5 324.593 194.5 324.585 194.5C324.577 194.5 324.569 194.5 324.562 194.5C324.554 194.5 324.546 194.5 324.538 194.5C324.53 194.5 324.522 194.5 324.514 194.5C324.506 194.5 324.498 194.5 324.49 194.5C324.482 194.5 324.474 194.5 324.466 194.5C324.458 194.5 324.45 194.5 324.443 194.5C324.435 194.5 324.427 194.5 324.419 194.5C324.411 194.5 324.403 194.5 324.395 194.5C324.387 194.5 324.379 194.5 324.371 194.5C324.363 194.5 324.355 194.5 324.347 194.5C324.339 194.5 324.331 194.5 324.323 194.5C324.315 194.5 324.307 194.5 324.299 194.5C324.291 194.5 324.283 194.5 324.275 194.5C324.267 194.5 324.259 194.5 324.251 194.5C324.243 194.5 324.235 194.5 324.226 194.5C324.218 194.5 324.21 194.5 324.202 194.5C324.194 194.5 324.186 194.5 324.178 194.5C324.17 194.5 324.162 194.5 324.154 194.5C324.146 194.5 324.138 194.5 324.13 194.5C324.122 194.5 324.114 194.5 324.105 194.5C324.097 194.5 324.089 194.5 324.081 194.5C324.073 194.5 324.065 194.5 324.057 194.5C324.049 194.5 324.041 194.5 324.033 194.5C324.024 194.5 324.016 194.5 324.008 194.5C324 194.5 323.992 194.5 323.984 194.5C323.976 194.5 323.967 194.5 323.959 194.5C323.951 194.5 323.943 194.5 323.935 194.5C323.927 194.5 323.919 194.5 323.91 194.5C323.902 194.5 323.894 194.5 323.886 194.5C323.878 194.5 323.869 194.5 323.861 194.5C323.853 194.5 323.845 194.5 323.837 194.5C323.829 194.5 323.82 194.5 323.812 194.5C323.804 194.5 323.796 194.5 323.788 194.5C323.779 194.5 323.771 194.5 323.763 194.5C323.755 194.5 323.746 194.5 323.738 194.5C323.73 194.5 323.722 194.5 323.713 194.5C323.705 194.5 323.697 194.5 323.689 194.5C323.68 194.5 323.672 194.5 323.664 194.5C323.656 194.5 323.647 194.5 323.639 194.5C323.631 194.5 323.623 194.5 323.614 194.5C323.606 194.5 323.598 194.5 323.589 194.5C323.581 194.5 323.573 194.5 323.565 194.5C323.556 194.5 323.548 194.5 323.54 194.5C323.531 194.5 323.523 194.5 323.515 194.5C323.506 194.5 323.498 194.5 323.49 194.5C323.481 194.5 323.473 194.5 323.465 194.5C323.456 194.5 323.448 194.5 323.44 194.5C323.431 194.5 323.423 194.5 323.415 194.5C323.406 194.5 323.398 194.5 323.39 194.5C323.381 194.5 323.373 194.5 323.364 194.5C323.356 194.5 323.348 194.5 323.339 194.5C323.331 194.5 323.323 194.5 323.314 194.5C323.306 194.5 323.297 194.5 323.289 194.5C323.281 194.5 323.272 194.5 323.264 194.5C323.255 194.5 323.247 194.5 323.238 194.5C323.23 194.5 323.222 194.5 323.213 194.5C323.205 194.5 323.196 194.5 323.188 194.5C323.179 194.5 323.171 194.5 323.163 194.5C323.154 194.5 323.146 194.5 323.137 194.5C323.129 194.5 323.12 194.5 323.112 194.5C323.103 194.5 323.095 194.5 323.086 194.5C323.078 194.5 323.069 194.5 323.061 194.5C323.052 194.5 323.044 194.5 323.035 194.5C323.027 194.5 323.018 194.5 323.01 194.5C323.001 194.5 322.993 194.5 322.984 194.5C322.976 194.5 322.967 194.5 322.959 194.5C322.95 194.5 322.942 194.5 322.933 194.5C322.925 194.5 322.916 194.5 322.908 194.5C322.899 194.5 322.89 194.5 322.882 194.5C322.873 194.5 322.865 194.5 322.856 194.5C322.848 194.5 322.839 194.5 322.83 194.5C322.822 194.5 322.813 194.5 322.805 194.5C322.796 194.5 322.788 194.5 322.779 194.5C322.77 194.5 322.762 194.5 322.753 194.5C322.745 194.5 322.736 194.5 322.727 194.5C322.719 194.5 322.71 194.5 322.701 194.5C322.693 194.5 322.684 194.5 322.676 194.5C322.667 194.5 322.658 194.5 322.65 194.5C322.641 194.5 322.632 194.5 322.624 194.5C322.615 194.5 322.606 194.5 322.598 194.5C322.589 194.5 322.58 194.5 322.572 194.5C322.563 194.5 322.554 194.5 322.546 194.5C322.537 194.5 322.528 194.5 322.52 194.5C322.511 194.5 322.502 194.5 322.493 194.5C322.485 194.5 322.476 194.5 322.467 194.5C322.459 194.5 322.45 194.5 322.441 194.5C322.432 194.5 322.424 194.5 322.415 194.5C322.406 194.5 322.398 194.5 322.389 194.5C322.38 194.5 322.371 194.5 322.363 194.5C322.354 194.5 322.345 194.5 322.336 194.5C322.328 194.5 322.319 194.5 322.31 194.5C322.301 194.5 322.292 194.5 322.284 194.5C322.275 194.5 322.266 194.5 322.257 194.5C322.249 194.5 322.24 194.5 322.231 194.5C322.222 194.5 322.213 194.5 322.205 194.5C322.196 194.5 322.187 194.5 322.178 194.5C322.169 194.5 322.16 194.5 322.152 194.5C322.143 194.5 322.134 194.5 322.125 194.5C322.116 194.5 322.107 194.5 322.099 194.5C322.09 194.5 322.081 194.5 322.072 194.5C322.063 194.5 322.054 194.5 322.045 194.5C322.037 194.5 322.028 194.5 322.019 194.5C322.01 194.5 322.001 194.5 321.992 194.5C321.983 194.5 321.974 194.5 321.966 194.5C321.957 194.5 321.948 194.5 321.939 194.5C321.93 194.5 321.921 194.5 321.912 194.5C321.903 194.5 321.894 194.5 321.885 194.5C321.876 194.5 321.867 194.5 321.859 194.5C321.85 194.5 321.841 194.5 321.832 194.5C321.823 194.5 321.814 194.5 321.805 194.5C321.796 194.5 321.787 194.5 321.778 194.5C321.769 194.5 321.76 194.5 321.751 194.5C321.742 194.5 321.733 194.5 321.724 194.5C321.715 194.5 321.706 194.5 321.697 194.5C321.688 194.5 321.679 194.5 321.67 194.5C321.661 194.5 321.652 194.5 321.643 194.5C321.634 194.5 321.625 194.5 321.616 194.5C321.607 194.5 321.598 194.5 321.589 194.5C321.58 194.5 321.571 194.5 321.562 194.5C321.553 194.5 321.544 194.5 321.535 194.5C321.526 194.5 321.517 194.5 321.508 194.5C321.498 194.5 321.489 194.5 321.48 194.5C321.471 194.5 321.462 194.5 321.453 194.5C321.444 194.5 321.435 194.5 321.426 194.5C321.417 194.5 321.408 194.5 321.399 194.5C321.389 194.5 321.38 194.5 321.371 194.5C321.362 194.5 321.353 194.5 321.344 194.5C321.335 194.5 321.326 194.5 321.317 194.5C321.307 194.5 321.298 194.5 321.289 194.5C321.28 194.5 321.271 194.5 321.262 194.5C321.253 194.5 321.243 194.5 321.234 194.5C321.225 194.5 321.216 194.5 321.207 194.5C321.198 194.5 321.188 194.5 321.179 194.5C321.17 194.5 321.161 194.5 321.152 194.5C321.142 194.5 321.133 194.5 321.124 194.5C321.115 194.5 321.106 194.5 321.096 194.5C321.087 194.5 321.078 194.5 321.069 194.5C321.06 194.5 321.05 194.5 321.041 194.5C321.032 194.5 321.023 194.5 321.013 194.5C321.004 194.5 320.995 194.5 320.986 194.5C320.976 194.5 320.967 194.5 320.958 194.5C320.949 194.5 320.939 194.5 320.93 194.5C320.921 194.5 320.912 194.5 320.902 194.5C320.893 194.5 320.884 194.5 320.874 194.5C320.865 194.5 320.856 194.5 320.847 194.5C320.837 194.5 320.828 194.5 320.819 194.5C320.809 194.5 320.8 194.5 320.791 194.5C320.781 194.5 320.772 194.5 320.763 194.5C320.753 194.5 320.744 194.5 320.735 194.5C320.725 194.5 320.716 194.5 320.707 194.5C320.697 194.5 320.688 194.5 320.679 194.5C320.669 194.5 320.66 194.5 320.651 194.5C320.641 194.5 320.632 194.5 320.622 194.5C320.613 194.5 320.604 194.5 320.594 194.5C320.585 194.5 320.576 194.5 320.566 194.5C320.557 194.5 320.547 194.5 320.538 194.5C320.529 194.5 320.519 194.5 320.51 194.5C320.5 194.5 320.491 194.5 320.481 194.5C320.472 194.5 320.463 194.5 320.453 194.5C320.444 194.5 320.434 194.5 320.425 194.5C320.415 194.5 320.406 194.5 320.396 194.5C320.387 194.5 320.378 194.5 320.368 194.5C320.359 194.5 320.349 194.5 320.34 194.5C320.33 194.5 320.321 194.5 320.311 194.5C320.302 194.5 320.292 194.5 320.283 194.5C320.273 194.5 320.264 194.5 320.254 194.5C320.245 194.5 320.235 194.5 320.226 194.5C320.216 194.5 320.207 194.5 320.197 194.5C320.188 194.5 320.178 194.5 320.169 194.5C320.159 194.5 320.149 194.5 320.14 194.5C320.13 194.5 320.121 194.5 320.111 194.5C320.102 194.5 320.092 194.5 320.083 194.5C320.073 194.5 320.063 194.5 320.054 194.5C320.044 194.5 320.035 194.5 320.025 194.5C320.016 194.5 320.006 194.5 319.996 194.5C319.987 194.5 319.977 194.5 319.967 194.5C319.958 194.5 319.948 194.5 319.939 194.5C319.929 194.5 319.919 194.5 319.91 194.5C319.9 194.5 319.891 194.5 319.881 194.5C319.871 194.5 319.862 194.5 319.852 194.5C319.842 194.5 319.833 194.5 319.823 194.5C319.813 194.5 319.804 194.5 319.794 194.5C319.784 194.5 319.775 194.5 319.765 194.5C319.755 194.5 319.746 194.5 319.736 194.5C319.726 194.5 319.717 194.5 319.707 194.5C319.697 194.5 319.688 194.5 319.678 194.5C319.668 194.5 319.658 194.5 319.649 194.5C319.639 194.5 319.629 194.5 319.62 194.5C319.61 194.5 319.6 194.5 319.59 194.5C319.581 194.5 319.571 194.5 319.561 194.5C319.551 194.5 319.542 194.5 319.532 194.5C319.522 194.5 319.512 194.5 319.503 194.5C319.493 194.5 319.483 194.5 319.473 194.5C319.463 194.5 319.454 194.5 319.444 194.5C319.434 194.5 319.424 194.5 319.415 194.5C319.405 194.5 319.395 194.5 319.385 194.5C319.375 194.5 319.366 194.5 319.356 194.5C319.346 194.5 319.336 194.5 319.326 194.5C319.316 194.5 319.307 194.5 319.297 194.5C319.287 194.5 319.277 194.5 319.267 194.5C319.257 194.5 319.247 194.5 319.238 194.5C319.228 194.5 319.218 194.5 319.208 194.5C319.198 194.5 319.188 194.5 319.178 194.5C319.169 194.5 319.159 194.5 319.149 194.5C319.139 194.5 319.129 194.5 319.119 194.5C319.109 194.5 319.099 194.5 319.089 194.5C319.079 194.5 319.07 194.5 319.06 194.5C319.05 194.5 319.04 194.5 319.03 194.5C319.02 194.5 319.01 194.5 319 194.5C318.99 194.5 318.98 194.5 318.97 194.5C318.96 194.5 318.95 194.5 318.94 194.5C318.93 194.5 318.921 194.5 318.911 194.5C318.901 194.5 318.891 194.5 318.881 194.5C318.871 194.5 318.861 194.5 318.851 194.5C318.841 194.5 318.831 194.5 318.821 194.5C318.811 194.5 318.801 194.5 318.791 194.5C318.781 194.5 318.771 194.5 318.761 194.5C318.751 194.5 318.741 194.5 318.731 194.5C318.721 194.5 318.71 194.5 318.7 194.5C318.69 194.5 318.68 194.5 318.67 194.5C318.66 194.5 318.65 194.5 318.64 194.5C318.63 194.5 318.62 194.5 318.61 194.5C318.6 194.5 318.59 194.5 318.58 194.5C318.57 194.5 318.56 194.5 318.549 194.5C318.539 194.5 318.529 194.5 318.519 194.5C318.509 194.5 318.499 194.5 318.489 194.5C318.479 194.5 318.469 194.5 318.459 194.5C318.448 194.5 318.438 194.5 318.428 194.5C318.418 194.5 318.408 194.5 318.398 194.5C318.388 194.5 318.377 194.5 318.367 194.5C318.357 194.5 318.347 194.5 318.337 194.5C318.327 194.5 318.317 194.5 318.306 194.5C318.296 194.5 318.286 194.5 318.276 194.5C318.266 194.5 318.255 194.5 318.245 194.5C318.235 194.5 318.225 194.5 318.215 194.5C318.204 194.5 318.194 194.5 318.184 194.5C318.174 194.5 318.164 194.5 318.153 194.5C318.143 194.5 318.133 194.5 318.123 194.5C318.112 194.5 318.102 194.5 318.092 194.5C318.082 194.5 318.072 194.5 318.061 194.5C318.051 194.5 318.041 194.5 318.03 194.5C318.02 194.5 318.01 194.5 318 194.5C317.989 194.5 317.979 194.5 317.969 194.5C317.959 194.5 317.948 194.5 317.938 194.5C317.928 194.5 317.917 194.5 317.907 194.5C317.897 194.5 317.886 194.5 317.876 194.5C317.866 194.5 317.856 194.5 317.845 194.5C317.835 194.5 317.825 194.5 317.814 194.5C317.804 194.5 317.794 194.5 317.783 194.5C317.773 194.5 317.763 194.5 317.752 194.5C317.742 194.5 317.731 194.5 317.721 194.5C317.711 194.5 317.7 194.5 317.69 194.5C317.68 194.5 317.669 194.5 317.659 194.5C317.648 194.5 317.638 194.5 317.628 194.5C317.617 194.5 317.607 194.5 317.596 194.5C317.586 194.5 317.576 194.5 317.565 194.5C317.555 194.5 317.544 194.5 317.534 194.5C317.524 194.5 317.513 194.5 317.503 194.5C317.492 194.5 317.482 194.5 317.471 194.5C317.461 194.5 317.45 194.5 317.44 194.5C317.43 194.5 317.419 194.5 317.409 194.5C317.398 194.5 317.388 194.5 317.377 194.5C317.367 194.5 317.356 194.5 317.346 194.5C317.335 194.5 317.325 194.5 317.314 194.5C317.304 194.5 317.293 194.5 317.283 194.5C317.272 194.5 317.262 194.5 317.251 194.5C317.241 194.5 317.23 194.5 317.22 194.5C317.209 194.5 317.199 194.5 317.188 194.5C317.177 194.5 317.167 194.5 317.156 194.5C317.146 194.5 317.135 194.5 317.125 194.5C317.114 194.5 317.104 194.5 317.093 194.5C317.082 194.5 317.072 194.5 317.061 194.5C317.051 194.5 317.04 194.5 317.03 194.5C317.019 194.5 317.008 194.5 316.998 194.5C316.987 194.5 316.977 194.5 316.966 194.5C316.955 194.5 316.945 194.5 316.934 194.5C316.923 194.5 316.913 194.5 316.902 194.5C316.892 194.5 316.881 194.5 316.87 194.5C316.86 194.5 316.849 194.5 316.838 194.5C316.828 194.5 316.817 194.5 316.806 194.5C316.796 194.5 316.785 194.5 316.774 194.5C316.764 194.5 316.753 194.5 316.742 194.5C316.732 194.5 316.721 194.5 316.71 194.5C316.7 194.5 316.689 194.5 316.678 194.5C316.667 194.5 316.657 194.5 316.646 194.5C316.635 194.5 316.625 194.5 316.614 194.5C316.603 194.5 316.592 194.5 316.582 194.5C316.571 194.5 316.56 194.5 316.549 194.5C316.539 194.5 316.528 194.5 316.517 194.5C316.506 194.5 316.496 194.5 316.485 194.5C316.474 194.5 316.463 194.5 316.453 194.5C316.442 194.5 316.431 194.5 316.42 194.5C316.409 194.5 316.399 194.5 316.388 194.5C316.377 194.5 316.366 194.5 316.355 194.5C316.345 194.5 316.334 194.5 316.323 194.5C316.312 194.5 316.301 194.5 316.29 194.5C316.28 194.5 316.269 194.5 316.258 194.5C316.247 194.5 316.236 194.5 316.225 194.5C316.215 194.5 316.204 194.5 316.193 194.5C316.182 194.5 316.171 194.5 316.16 194.5C316.149 194.5 316.139 194.5 316.128 194.5C316.117 194.5 316.106 194.5 316.095 194.5C316.084 194.5 316.073 194.5 316.062 194.5C316.051 194.5 316.04 194.5 316.03 194.5C316.019 194.5 316.008 194.5 315.997 194.5C315.986 194.5 315.975 194.5 315.964 194.5C315.953 194.5 315.942 194.5 315.931 194.5C315.92 194.5 315.909 194.5 315.898 194.5C315.887 194.5 315.876 194.5 315.866 194.5C315.855 194.5 315.844 194.5 315.833 194.5C315.822 194.5 315.811 194.5 315.8 194.5C315.789 194.5 315.778 194.5 315.767 194.5C315.756 194.5 315.745 194.5 315.734 194.5C315.723 194.5 315.712 194.5 315.701 194.5C315.69 194.5 315.679 194.5 315.668 194.5C315.657 194.5 315.646 194.5 315.634 194.5C315.623 194.5 315.612 194.5 315.601 194.5C315.59 194.5 315.579 194.5 315.568 194.5C315.557 194.5 315.546 194.5 315.535 194.5C315.524 194.5 315.513 194.5 315.502 194.5C315.491 194.5 315.48 194.5 315.469 194.5C315.457 194.5 315.446 194.5 315.435 194.5C315.424 194.5 315.413 194.5 315.402 194.5C315.391 194.5 315.38 194.5 315.369 194.5C315.357 194.5 315.346 194.5 315.335 194.5C315.324 194.5 315.313 194.5 315.302 194.5C315.291 194.5 315.279 194.5 315.268 194.5C315.257 194.5 315.246 194.5 315.235 194.5C315.224 194.5 315.212 194.5 315.201 194.5C315.19 194.5 315.179 194.5 315.168 194.5C315.157 194.5 315.145 194.5 315.134 194.5C315.123 194.5 315.112 194.5 315.101 194.5C315.089 194.5 315.078 194.5 315.067 194.5C315.056 194.5 315.045 194.5 315.033 194.5C315.022 194.5 315.011 194.5 315 194.5C314.988 194.5 314.977 194.5 314.966 194.5C314.955 194.5 314.943 194.5 314.932 194.5C314.921 194.5 314.91 194.5 314.898 194.5C314.887 194.5 314.876 194.5 314.865 194.5C314.853 194.5 314.842 194.5 314.831 194.5C314.819 194.5 314.808 194.5 314.797 194.5C314.785 194.5 314.774 194.5 314.763 194.5C314.752 194.5 314.74 194.5 314.729 194.5C314.718 194.5 314.706 194.5 314.695 194.5C314.684 194.5 314.672 194.5 314.661 194.5C314.65 194.5 314.638 194.5 314.627 194.5C314.615 194.5 314.604 194.5 314.593 194.5C314.581 194.5 314.57 194.5 314.559 194.5C314.547 194.5 314.536 194.5 314.525 194.5C314.513 194.5 314.502 194.5 314.49 194.5C314.479 194.5 314.468 194.5 314.456 194.5C314.445 194.5 314.433 194.5 314.422 194.5C314.41 194.5 314.399 194.5 314.388 194.5C314.376 194.5 314.365 194.5 314.353 194.5C314.342 194.5 314.33 194.5 314.319 194.5C314.308 194.5 314.296 194.5 314.285 194.5C314.273 194.5 314.262 194.5 314.25 194.5C314.239 194.5 314.227 194.5 314.216 194.5C314.204 194.5 314.193 194.5 314.181 194.5C314.17 194.5 314.158 194.5 314.147 194.5C314.135 194.5 314.124 194.5 314.112 194.5C314.101 194.5 314.089 194.5 314.078 194.5C314.066 194.5 314.055 194.5 314.043 194.5C314.032 194.5 314.02 194.5 314.009 194.5C313.997 194.5 313.985 194.5 313.974 194.5C313.962 194.5 313.951 194.5 313.939 194.5C313.928 194.5 313.916 194.5 313.905 194.5C313.893 194.5 313.881 194.5 313.87 194.5C313.858 194.5 313.847 194.5 313.835 194.5C313.823 194.5 313.812 194.5 313.8 194.5C313.789 194.5 313.777 194.5 313.765 194.5C313.754 194.5 313.742 194.5 313.73 194.5C313.719 194.5 313.707 194.5 313.696 194.5C313.684 194.5 313.672 194.5 313.661 194.5C313.649 194.5 313.637 194.5 313.626 194.5C313.614 194.5 313.602 194.5 313.591 194.5C313.579 194.5 313.567 194.5 313.556 194.5C313.544 194.5 313.532 194.5 313.521 194.5C313.509 194.5 313.497 194.5 313.485 194.5C313.474 194.5 313.462 194.5 313.45 194.5C313.439 194.5 313.427 194.5 313.415 194.5C313.403 194.5 313.392 194.5 313.38 194.5C313.368 194.5 313.356 194.5 313.345 194.5C313.333 194.5 313.321 194.5 313.309 194.5C313.298 194.5 313.286 194.5 313.274 194.5C313.262 194.5 313.251 194.5 313.239 194.5C313.227 194.5 313.215 194.5 313.203 194.5C313.192 194.5 313.18 194.5 313.168 194.5C313.156 194.5 313.144 194.5 313.133 194.5C313.121 194.5 313.109 194.5 313.097 194.5C313.085 194.5 313.074 194.5 313.062 194.5C313.05 194.5 313.038 194.5 313.026 194.5C313.014 194.5 313.003 194.5 312.991 194.5C312.979 194.5 312.967 194.5 312.955 194.5C312.943 194.5 312.931 194.5 312.919 194.5C312.908 194.5 312.896 194.5 312.884 194.5C312.872 194.5 312.86 194.5 312.848 194.5C312.836 194.5 312.824 194.5 312.812 194.5C312.801 194.5 312.789 194.5 312.777 194.5C312.765 194.5 312.753 194.5 312.741 194.5C312.729 194.5 312.717 194.5 312.705 194.5C312.693 194.5 312.681 194.5 312.669 194.5C312.657 194.5 312.645 194.5 312.633 194.5C312.621 194.5 312.609 194.5 312.598 194.5C312.586 194.5 312.574 194.5 312.562 194.5C312.55 194.5 312.538 194.5 312.526 194.5C312.514 194.5 312.502 194.5 312.49 194.5C312.478 194.5 312.466 194.5 312.454 194.5C312.442 194.5 312.43 194.5 312.417 194.5C312.405 194.5 312.393 194.5 312.381 194.5C312.369 194.5 312.357 194.5 312.345 194.5C312.333 194.5 312.321 194.5 312.309 194.5C312.297 194.5 312.285 194.5 312.273 194.5C312.261 194.5 312.249 194.5 312.237 194.5C312.225 194.5 312.212 194.5 312.2 194.5C312.188 194.5 312.176 194.5 312.164 194.5C312.152 194.5 312.14 194.5 312.128 194.5C312.116 194.5 312.104 194.5 312.091 194.5C312.079 194.5 312.067 194.5 312.055 194.5C312.043 194.5 312.031 194.5 312.019 194.5C312.006 194.5 311.994 194.5 311.982 194.5C311.97 194.5 311.958 194.5 311.946 194.5C311.934 194.5 311.921 194.5 311.909 194.5C311.897 194.5 311.885 194.5 311.873 194.5C311.86 194.5 311.848 194.5 311.836 194.5C311.824 194.5 311.812 194.5 311.799 194.5C311.787 194.5 311.775 194.5 311.763 194.5C311.751 194.5 311.738 194.5 311.726 194.5C311.714 194.5 311.702 194.5 311.689 194.5C311.677 194.5 311.665 194.5 311.653 194.5C311.64 194.5 311.628 194.5 311.616 194.5C311.604 194.5 311.591 194.5 311.579 194.5C311.567 194.5 311.554 194.5 311.542 194.5C311.53 194.5 311.518 194.5 311.505 194.5C311.493 194.5 311.481 194.5 311.468 194.5C311.456 194.5 311.444 194.5 311.431 194.5C311.419 194.5 311.407 194.5 311.394 194.5C311.382 194.5 311.37 194.5 311.357 194.5C311.345 194.5 311.333 194.5 311.32 194.5C311.308 194.5 311.296 194.5 311.283 194.5C311.271 194.5 311.259 194.5 311.246 194.5C311.234 194.5 311.221 194.5 311.209 194.5C311.197 194.5 311.184 194.5 311.172 194.5C311.16 194.5 311.147 194.5 311.135 194.5C311.122 194.5 311.11 194.5 311.097 194.5C311.085 194.5 311.073 194.5 311.06 194.5C311.048 194.5 311.035 194.5 311.023 194.5C311.01 194.5 310.998 194.5 310.986 194.5C310.973 194.5 310.961 194.5 310.948 194.5C310.936 194.5 310.923 194.5 310.911 194.5V195.5ZM335.5 205V313H336.5V205H335.5ZM0.5 333V378H1.5V333H0.5ZM11 388.5H27.1607V387.5H11V388.5ZM157 322.5H11V323.5H157V322.5ZM326 322.5H180.571V323.5H326V322.5ZM0.5 378C0.5 383.799 5.20101 388.5 11 388.5V387.5C5.7533 387.5 1.5 383.247 1.5 378H0.5ZM1.5 333C1.5 327.753 5.7533 323.5 11 323.5V322.5C5.20101 322.5 0.5 327.201 0.5 333H1.5ZM335.5 313C335.5 318.247 331.247 322.5 326 322.5V323.5C331.799 323.5 336.5 318.799 336.5 313H335.5ZM326.002 195.5C331.248 195.5 335.5 199.753 335.5 205H336.5C336.5 199.201 331.801 194.5 326.002 194.5V195.5Z" fill="url(#paint2_linear_19_9736)"/>
<path d="M168 322.5C168.276 322.5 168.5 322.724 168.5 323C168.5 323.276 168.276 323.5 168 323.5V322.5ZM166.646 323.354C166.451 323.158 166.451 322.842 166.646 322.646L169.828 319.464C170.024 319.269 170.34 319.269 170.536 319.464C170.731 319.66 170.731 319.976 170.536 320.172L167.707 323L170.536 325.828C170.731 326.024 170.731 326.34 170.536 326.536C170.34 326.731 170.024 326.731 169.828 326.536L166.646 323.354ZM168 323.5H167V322.5H168V323.5Z" fill="url(#paint3_linear_19_9736)"/>
<defs>
<linearGradient id="paint0_linear_19_9736" x1="1410.58" y1="-294.535" x2="1361.57" y2="-294.535" gradientUnits="userSpaceOnUse">
<stop stop-color="#00FFFF"/>
<stop offset="0.521875" stop-color="#00FFFF"/>
<stop offset="1" stop-color="#00FFFF"/>
</linearGradient>
<linearGradient id="paint1_linear_19_9736" x1="166.975" y1="129.497" x2="168" y2="129.497" gradientUnits="userSpaceOnUse">
<stop stop-color="#00FFFF"/>
<stop offset="0.521875" stop-color="#00FFFF"/>
<stop offset="1" stop-color="#00FFFF"/>
</linearGradient>
<linearGradient id="paint2_linear_19_9736" x1="1410.58" y1="-100.535" x2="1361.57" y2="-100.535" gradientUnits="userSpaceOnUse">
<stop stop-color="#00FFFF"/>
<stop offset="0.521875" stop-color="#00FFFF"/>
<stop offset="1" stop-color="#00FFFF"/>
</linearGradient>
<linearGradient id="paint3_linear_19_9736" x1="166.975" y1="323.497" x2="168" y2="323.497" gradientUnits="userSpaceOnUse">
<stop stop-color="#00FFFF"/>
<stop offset="0.521875" stop-color="#00FFFF"/>
<stop offset="1" stop-color="#00FFFF"/>
</linearGradient>
</defs>
</svg>
