<svg width="52" height="52" viewBox="0 0 52 52" fill="none" xmlns="http://www.w3.org/2000/svg">
<path fill-rule="evenodd" clip-rule="evenodd" d="M52 26C52 40.3594 40.3594 52 26 52C11.6406 52 -1.76417e-06 40.3594 -1.1365e-06 26C-5.08827e-07 11.6406 11.6406 5.08827e-07 26 1.1365e-06C40.3594 1.76417e-06 52 11.6406 52 26ZM17.9193 25.4929C17.2846 24.8583 17.2846 23.8294 17.9193 23.1948C18.5539 22.5602 19.5827 22.5602 20.2174 23.1948L26.0137 28.9911L31.81 23.1948C32.4446 22.5602 33.4735 22.5602 34.1081 23.1948C34.7427 23.8294 34.7427 24.8583 34.1081 25.4929L27.9798 31.6211C26.8939 32.707 25.1334 32.707 24.0475 31.6211L17.9193 25.4929Z" fill="white"/>
</svg>
