<svg width="32" height="32" viewBox="0 0 32 32" fill="none" xmlns="http://www.w3.org/2000/svg">
<path fill-rule="evenodd" clip-rule="evenodd" d="M16 -1.01717e-06C24.8366 5.27865e-07 32 7.16345 32 16C32 24.8366 24.8366 32 16 32C7.16344 32 1.2525e-06 24.8366 2.79753e-06 16C4.34256e-06 7.16344 7.16345 -2.5622e-06 16 -1.01717e-06ZM15.6876 20.9741C15.2971 21.3646 14.6639 21.3646 14.2734 20.9741C13.8829 20.5836 13.8829 19.9504 14.2734 19.5599L17.8404 15.9929L14.2734 12.4259C13.8829 12.0354 13.8829 11.4022 14.2734 11.0117C14.6639 10.6212 15.2971 10.6212 15.6876 11.0117L19.4589 14.783C20.1271 15.4512 20.1271 16.5346 19.4589 17.2028L15.6876 20.9741Z" fill="white"/>
</svg>
