<svg width="43" height="42" viewBox="0 0 43 42" fill="none" xmlns="http://www.w3.org/2000/svg">
<g clip-path="url(#clip0_3_2293)">
<path d="M3 22H2C1.44772 22 1 21.5523 1 21V14C1 13.4477 1.44772 13 2 13H21.5M3 22V40C3 40.5523 3.44772 41 4 41H21.5M3 22H21.5M40 22H41C41.5523 22 42 21.5523 42 21V14C42 13.4477 41.5523 13 41 13H21.5M40 22V40C40 40.5523 39.5523 41 39 41H21.5M40 22H21.5M21.5 13V22M21.5 22V41" stroke="#BAA6FF" stroke-width="3" stroke-linejoin="round"/>
<path d="M29.9998 13C30.8649 12.9301 31.5201 12.7076 32.2963 12.1968C34.7613 10.5748 35.4447 7.26151 33.8227 4.79643C32.2007 2.33135 28.8874 1.64793 26.4223 3.26997C25.6474 3.77985 25.0486 4.45683 24.6421 5.22205C24.6389 5.22805 24.6331 5.23218 24.6264 5.23318V5.23318C24.6189 5.23429 24.6125 5.23932 24.6097 5.24637L24.5313 5.44274C24.4358 5.64449 24.3533 5.85162 24.2839 6.06277L22.0506 11.6275C21.7869 12.2846 22.2707 13 22.9786 13L29.9998 13Z" stroke="#BAA6FF" stroke-width="3" stroke-linejoin="round"/>
<path d="M13 13C12.1349 12.9301 11.4167 12.7075 10.6405 12.1968C8.17544 10.5748 7.49202 7.26151 9.11406 4.79643C10.7361 2.33135 14.0494 1.64793 16.5144 3.26997C17.2893 3.77985 17.8882 4.45683 18.2947 5.22205C18.2978 5.22805 18.3037 5.23218 18.3104 5.23317V5.23317C18.3179 5.23429 18.3243 5.23931 18.3271 5.24637L18.4054 5.44274C18.5009 5.64449 18.5835 5.85162 18.6528 6.06277L20.9338 11.6203C21.2038 12.2783 20.7199 13 20.0086 13L13 13Z" stroke="#BAA6FF" stroke-width="3" stroke-linejoin="round"/>
</g>
<defs>
<clipPath id="clip0_3_2293">
<rect width="43" height="42" fill="white"/>
</clipPath>
</defs>
</svg>
