<svg width="34" height="34" viewBox="0 0 34 34" fill="none" xmlns="http://www.w3.org/2000/svg">
<path fill-rule="evenodd" clip-rule="evenodd" d="M34 17C34 7.61116 26.3888 2.6612e-06 17 3.0716e-06C7.61116 3.482e-06 -1.15349e-06 7.61116 -7.43094e-07 17C-3.32694e-07 26.3888 7.61116 34 17 34C26.3888 34 34 26.3888 34 17ZM21.0065 8.92686C19.9609 8.88015 19.6483 8.86937 17.0003 8.86937C14.3523 8.86937 14.0397 8.88015 12.9941 8.92686C12.0276 8.96997 11.503 9.13166 11.1545 9.26819C10.691 9.44784 10.3641 9.65983 10.0155 10.0083C9.6706 10.3533 9.45503 10.6838 9.27538 11.1473C9.13884 11.4958 8.97716 12.0204 8.93404 12.9869C8.88733 14.0325 8.87655 14.3451 8.87655 16.9931C8.87655 19.6412 8.88733 19.9538 8.93404 20.9993C8.97716 21.9658 9.13884 22.4904 9.27538 22.8389C9.45503 23.3024 9.66701 23.6294 10.0155 23.9779C10.3605 24.3228 10.691 24.5384 11.1545 24.7181C11.503 24.8546 12.0276 25.0163 12.9941 25.0594C14.0397 25.1061 14.3523 25.1169 17.0003 25.1169C19.6483 25.1169 19.9609 25.1061 21.0065 25.0594C21.973 25.0163 22.4976 24.8546 22.8461 24.7181C23.3096 24.5384 23.6366 24.3264 23.9851 23.9779C24.33 23.633 24.5456 23.3024 24.7252 22.8389C24.8618 22.4904 25.0235 21.9658 25.0666 20.9993C25.1133 19.9538 25.1241 19.6412 25.1241 16.9931C25.1241 14.3451 25.1133 14.0325 25.0666 12.9869C25.0235 12.0204 24.8618 11.4958 24.7252 11.1473C24.5456 10.6838 24.3336 10.3569 23.9851 10.0083C23.6402 9.66342 23.3096 9.44784 22.8461 9.26819C22.4976 9.13166 21.973 8.96997 21.0065 8.92686ZM12.9115 7.14473C13.9714 7.09443 14.3092 7.08365 17.0003 7.08365C19.6951 7.08365 20.0328 7.09802 21.0891 7.14473C22.1455 7.19144 22.8641 7.36031 23.4964 7.60463C24.1504 7.85614 24.7037 8.19748 25.2534 8.74721C25.8031 9.30053 26.1409 9.85385 26.396 10.5042C26.6403 11.1365 26.8092 11.8551 26.8559 12.9115C26.9062 13.9714 26.917 14.3056 26.917 17.0003C26.917 19.6951 26.9026 20.0328 26.8559 21.0891C26.8092 22.1455 26.6403 22.8641 26.396 23.4964C26.1445 24.1504 25.8031 24.7037 25.2534 25.2534C24.7001 25.8031 24.1468 26.1409 23.4964 26.396C22.8641 26.6403 22.1455 26.8092 21.0891 26.8559C20.0292 26.9062 19.6951 26.917 17.0003 26.917C14.3056 26.917 13.9678 26.9026 12.9115 26.8559C11.8551 26.8092 11.1365 26.6403 10.5042 26.396C9.85025 26.1445 9.29693 25.8031 8.74721 25.2534C8.19748 24.7001 7.85974 24.1468 7.60463 23.4964C7.36031 22.8641 7.19144 22.1455 7.14473 21.0891C7.09443 20.0292 7.08365 19.6951 7.08365 17.0003C7.08365 14.3056 7.09802 13.9678 7.14473 12.9115C7.19144 11.8551 7.36031 11.1365 7.60463 10.5042C7.85614 9.85026 8.19748 9.29693 8.74721 8.74721C9.30053 8.19748 9.85385 7.85974 10.5042 7.60463C11.1365 7.36031 11.8551 7.19144 12.9115 7.14473ZM17.4306 11.6283C14.5408 11.6283 12.1942 13.9712 12.1942 16.8647C12.1942 19.7582 14.5371 22.1011 17.4306 22.1011C20.3241 22.1011 22.667 19.7582 22.667 16.8647C22.667 13.9712 20.3241 11.6283 17.4306 11.6283ZM17.4306 20.2608C15.5533 20.2608 14.0308 18.7383 14.0308 16.861C14.0308 14.9838 15.5533 13.4613 17.4306 13.4613C19.3078 13.4613 20.8304 14.9838 20.8304 16.861C20.8304 18.7383 19.3078 20.2608 17.4306 20.2608ZM23.6967 11.4224C23.6967 12.098 23.1491 12.6456 22.4735 12.6456C21.798 12.6456 21.2503 12.098 21.2503 11.4224C21.2503 10.7469 21.798 10.1992 22.4735 10.1992C23.1491 10.1992 23.6967 10.7469 23.6967 11.4224Z" fill="#00FFFF"/>
</svg>
