<svg width="113" height="96" viewBox="0 0 113 96" fill="none" xmlns="http://www.w3.org/2000/svg">
<path d="M37.7973 4.67642C34.4136 2.00471 30.1437 0.413086 25.4992 0.413086C14.5283 0.413086 5.6347 9.30673 5.6347 20.2776C5.6347 31.2484 14.5283 40.1421 25.4992 40.1421C26.154 40.1421 26.8008 40.1105 27.4383 40.0489C26.1847 36.6968 25.4993 33.0676 25.4993 29.2782C25.4993 19.2185 30.3296 10.287 37.7973 4.67642Z" fill="#00FFFF"/>
<path d="M74.7564 4.71477C78.1319 2.06739 82.3822 0.491786 87.0032 0.491786C97.9741 0.491786 106.868 9.38543 106.868 20.3563C106.868 31.3271 97.9741 40.2208 87.0032 40.2208C86.3388 40.2208 85.6826 40.1883 85.036 40.1248C86.3076 36.7517 87.0034 33.0962 87.0034 29.2782C87.0034 19.2414 82.1951 10.3276 74.7564 4.71477Z" fill="#00FFFF"/>
<path d="M81.6304 29.2782C81.6304 43.2947 70.2678 54.6572 56.2514 54.6572C42.2349 54.6572 30.8723 43.2947 30.8723 29.2782C30.8723 15.2617 42.2349 3.89914 56.2514 3.89914C70.2678 3.89914 81.6304 15.2617 81.6304 29.2782Z" fill="#00FFFF"/>
<path d="M30.5523 46.1744C28.8154 45.7379 27.1117 45.5204 25.4985 45.5204C14.3552 45.5204 0.262586 53.8197 0 72.3738C0.106032 72.4454 0.256146 72.5362 0.462495 72.6416C1.38568 73.113 2.87459 73.5969 4.88912 74.0379C8.38277 74.8027 12.9666 75.3359 17.703 75.6183C21.3451 65.4602 28.4607 57.7163 36.5443 52.8876C34.235 50.9578 32.2131 48.6955 30.5523 46.1744Z" fill="#00FFFF"/>
<path d="M81.8865 46.271C80.3435 48.5943 78.493 50.6958 76.3932 52.5174C84.5907 57.154 91.6936 64.8202 95.1468 75.6775C99.7598 75.3901 104.206 74.8644 107.614 74.1183C109.629 73.6773 111.118 73.1933 112.041 72.7219C112.247 72.6166 112.397 72.5257 112.503 72.4541C112.241 53.9001 98.1481 45.6008 87.0047 45.6008C85.3716 45.6008 83.6457 45.8237 81.8865 46.271Z" fill="#00FFFF"/>
<path d="M71.4685 56.0075C69.4152 57.179 67.2139 58.1207 64.8996 58.7976C64.8893 58.8458 64.8778 58.8939 64.8648 58.9418L62.5017 67.6826L67.4079 84.0878C67.7604 85.2662 67.2675 86.5335 66.2114 87.1641L57.6279 92.2894C56.7795 92.796 55.7216 92.796 54.8733 92.2894L46.2898 87.1641C45.2337 86.5335 44.7408 85.2662 45.0932 84.0878L49.9994 67.6826L47.6363 58.9418C47.6233 58.8937 47.6117 58.8455 47.6015 58.7971C45.4661 58.1724 43.4271 57.3223 41.5117 56.2743C30.2741 62.0204 20.5977 73.9594 20.4986 90.5286L20.515 90.545L20.5311 90.5604C20.7818 90.7998 21.2951 91.1503 22.1942 91.5527C23.9789 92.3514 26.6715 93.0889 30.0513 93.7143C36.7578 94.9554 45.5585 95.6478 53.7095 95.7682H58.7931C66.944 95.6478 75.7449 94.9554 82.4513 93.7143C85.8311 93.0889 88.5238 92.3514 90.3085 91.5527C91.2076 91.1503 91.7209 90.7998 91.9716 90.5604L91.9902 90.5425L92.0043 90.5285C91.9156 72.3761 82.4386 61.2336 71.4685 56.0075Z" fill="#00FFFF"/>
<path d="M54.793 70.4061L50.8402 83.6233L56.2506 86.8539L61.6609 83.6233L57.7081 70.4061H54.793Z" fill="#00FFFF"/>
<path d="M58.7622 60.9271L57.6521 65.0331H54.849L53.739 60.9271H58.7622Z" fill="#00FFFF"/>
</svg>
