<svg width="98" height="108" viewBox="0 0 98 108" fill="none" xmlns="http://www.w3.org/2000/svg">
<path d="M18.0615 23.0436C18.0615 11.7893 27.1849 2.66602 38.4391 2.66602C49.6933 2.66602 58.8166 11.7894 58.8166 23.0436C58.8166 34.2978 49.6933 43.4211 38.4391 43.4211C27.1849 43.4211 18.0615 34.2978 18.0615 23.0436Z" fill="#00FFFF"/>
<path d="M38.4384 48.7936C34.1421 48.7936 30.0915 47.7414 26.5302 45.8807C25.1887 46.5665 22.7638 47.9505 21.719 48.5567C11.3453 54.6533 2.77991 66.1334 2.6875 81.725C2.74489 81.7824 2.83815 81.8651 2.98411 81.9723C3.55783 82.3937 4.56005 82.8887 6.0655 83.3936C9.04153 84.3916 13.3144 85.2124 18.256 85.8153C19.3234 85.939 20.9516 86.1038 22.9389 86.2705V69.2966C22.9389 62.1516 28.7311 56.3594 35.8761 56.3594H65.5789C62.5695 52.7846 58.9703 49.9881 55.1185 47.9381C53.6643 47.1654 51.9995 46.3969 50.4281 45.8379C49.3173 46.4234 48.1574 46.9304 46.958 47.3508C44.2913 48.2854 41.4242 48.7936 38.4384 48.7936Z" fill="#00FFFF"/>
<path fill-rule="evenodd" clip-rule="evenodd" d="M28.3135 87.2837L28.3506 86.6589L28.3135 86.6566V69.2976C28.3135 65.12 31.7001 61.7334 35.8777 61.7334H87.1311C91.3087 61.7334 94.6953 65.12 94.6953 69.2976V97.3631C94.6953 101.541 91.3087 104.927 87.1311 104.927H35.8777C31.7001 104.927 28.3135 101.541 28.3135 97.3631V87.2837ZM71.3787 84.4342C73.0872 83.4478 73.0872 80.9819 71.3787 79.9955L58.2463 72.4136C56.5379 71.4272 54.4023 72.6602 54.4023 74.6329V89.7968C54.4023 91.7696 56.5379 93.0026 58.2463 92.0162L71.3787 84.4342Z" fill="#00FFFF"/>
</svg>
