<svg width="153" height="95" viewBox="0 0 153 95" fill="none" xmlns="http://www.w3.org/2000/svg">
<rect x="111.938" y="9.15918" width="17.91" height="50.1763" rx="1.791" transform="rotate(-30 111.938 9.15918)" fill="#00FFFF"/>
<rect width="17.91" height="50.1763" rx="1.791" transform="matrix(-0.866025 -0.5 -0.5 0.866025 40.5986 9.15918)" fill="#00FFFF"/>
<path d="M105.01 21.4777L111.49 18.562L130.743 52.591L125.818 55.2775L83.2217 29.1573C80.3415 27.3911 76.6396 27.7473 74.149 30.0303L65.6107 37.8571C63.7427 39.5695 60.8438 39.4564 59.1147 37.6039C57.3765 35.7415 57.4749 32.8232 59.3346 31.0822L72.514 18.7441C75.2932 16.1423 79.2595 15.2417 82.8898 16.3881L99.9461 21.7743C101.613 22.3007 103.416 22.1952 105.01 21.4777Z" fill="#00FFFF"/>
<rect x="40.0996" y="47.9727" width="9.55329" height="28.5049" rx="4.77664" transform="rotate(27.3295 40.0996 47.9727)" fill="#00FFFF"/>
<rect x="53.1494" y="52.4404" width="9.55329" height="29.9428" rx="4.77664" transform="rotate(27.3295 53.1494 52.4404)" fill="#00FFFF"/>
<rect x="65.6865" y="57.5156" width="9.55329" height="29.9428" rx="4.77664" transform="rotate(27.3295 65.6865 57.5156)" fill="#00FFFF"/>
<path fill-rule="evenodd" clip-rule="evenodd" d="M39.85 19.457L46.3387 21.8903C49.1539 22.946 52.1361 23.4868 55.1427 23.4868H60.4465L55.5097 28.621C52.0177 32.2527 52.0253 37.9965 55.527 41.6189C59.1993 45.4179 65.2858 45.4278 68.9704 41.6408L75.4718 34.9588C77.161 33.2227 79.824 32.8801 81.8976 34.1321L122.235 58.4866C124.187 59.6654 124.761 62.2351 123.496 64.1327C122.295 65.9338 119.88 66.4538 118.045 65.3066L105.179 57.2652C104.19 56.6473 102.893 56.8892 102.193 57.8219C101.411 58.8655 101.68 60.3543 102.778 61.0583L114.501 68.5734C116.509 69.8602 117.014 72.5741 115.604 74.497C114.302 76.2718 111.838 76.7153 109.999 75.5056L97.83 67.4995C96.957 66.9251 95.786 67.1434 95.1786 67.9938C94.5463 68.8789 94.763 70.1105 95.6594 70.7268L104.135 76.554C106.45 78.1455 107.002 81.3302 105.357 83.6075C103.782 85.7889 100.763 86.3339 98.5244 84.8414L90.682 79.6131C89.8015 79.0261 88.6141 79.2437 87.999 80.1048C87.3713 80.9836 87.5724 82.2046 88.4488 82.8356L94.8027 87.4104C96.6189 88.718 97.0742 91.2287 95.8328 93.0908C94.5801 94.9698 92.0567 95.5053 90.1488 94.297L80.1475 87.9628L79.8754 87.8049L84.7373 78.3969C86.8373 74.3334 85.2456 69.337 81.1821 67.237C79.4271 66.3301 77.4981 66.1117 75.7036 66.4837C76.9202 62.6711 75.2483 58.4252 71.5737 56.5262C68.8583 55.1229 65.7301 55.3531 63.311 56.8592C62.7502 54.6077 61.2601 52.5995 59.0367 51.4506C56.1025 49.9342 52.6863 50.3251 50.2036 52.1723C49.6026 50.0104 48.138 48.095 45.9873 46.9836C41.8862 44.8642 36.8435 46.4706 34.7241 50.5717L30.7499 58.262C28.7936 56.4195 27.0559 54.3455 25.5779 52.0793L23.2832 48.5608L39.85 19.457Z" fill="#00FFFF"/>
<rect x="75.3633" y="68.2617" width="9.39995" height="23.431" rx="4.69997" transform="rotate(27.3295 75.3633 68.2617)" fill="#00FFFF"/>
</svg>
