<svg width="80" height="80" viewBox="0 0 80 80" fill="none" xmlns="http://www.w3.org/2000/svg">
<g filter="url(#filter0_f_3_1465)">
<path d="M74.6111 40C74.6111 20.8848 59.1152 5.38888 40 5.38888C20.8848 5.38887 5.3889 20.8848 5.3889 40C5.38889 59.1152 20.8848 74.6111 40 74.6111C59.1152 74.6111 74.6111 59.1152 74.6111 40Z" stroke="#03FFFF" stroke-width="0.777778"/>
</g>
<circle cx="35" cy="35" r="34.6111" transform="matrix(1 1.74846e-07 1.74846e-07 -1 5 75)" fill="url(#paint0_radial_3_1465)" fill-opacity="0.21" stroke="#03FFFF" stroke-width="0.777778"/>
<path d="M36.2673 28.3481L50.9088 37.4354C52.7994 38.6089 52.7994 41.3599 50.9088 42.5333L36.2673 51.6207C34.2688 52.861 31.6853 51.4238 31.6852 49.0717L31.6853 30.897C31.6853 28.5449 34.2688 27.1077 36.2673 28.3481Z" fill="#03FFFF"/>
<defs>
<filter id="filter0_f_3_1465" x="0.177776" y="0.177767" width="79.6444" height="79.6445" filterUnits="userSpaceOnUse" color-interpolation-filters="sRGB">
<feFlood flood-opacity="0" result="BackgroundImageFix"/>
<feBlend mode="normal" in="SourceGraphic" in2="BackgroundImageFix" result="shape"/>
<feGaussianBlur stdDeviation="2.41111" result="effect1_foregroundBlur_3_1465"/>
</filter>
<radialGradient id="paint0_radial_3_1465" cx="0" cy="0" r="1" gradientUnits="userSpaceOnUse" gradientTransform="translate(35 35) rotate(90) scale(35)">
<stop stop-color="#03FFFF" stop-opacity="0"/>
<stop offset="1" stop-color="#03FFFF"/>
</radialGradient>
</defs>
</svg>
