<svg width="176" height="118" viewBox="0 0 176 118" fill="none" xmlns="http://www.w3.org/2000/svg">
<g clip-path="url(#clip0_18_1602)">
<path d="M28.8288 82.9097C18.0937 75.3437 11.0811 62.8497 11.0811 48.7179C11.0811 25.6314 29.7964 6.91614 52.8829 6.91614C75.9693 6.91614 94.6846 25.6314 94.6846 48.7179C94.6846 55.5344 93.053 61.9699 90.1591 67.655" stroke="#00FFFF" stroke-width="8"/>
<path d="M52.9994 21.0005V69.5005" stroke="#00FFFF" stroke-width="8" stroke-linecap="round"/>
<path d="M63.9932 38.2194C64.1277 34.4798 62.1369 28.0005 53.0979 28.0005C44.0589 28.0005 41.9337 34.2559 42.0009 37.9955C42.0009 41.8711 44.6239 49.0104 54.1068 49.0104C63.7941 49.0104 63.9932 57.7816 63.9932 59.8214C63.9932 64.3089 61.007 69.0005 53.0979 69.0005C43.2115 69.0005 42.0009 62.0652 42.0009 59.8214" stroke="#00FFFF" stroke-width="8" stroke-linecap="round"/>
</g>
<path d="M137 43.3913L136.494 39.4234C134.303 39.7028 132.753 41.7058 133.032 43.8972L137 43.3913ZM164.772 39.851L168.74 39.3451C168.606 38.2928 168.059 37.3368 167.22 36.6876C166.381 36.0383 165.318 35.7489 164.266 35.8831L164.772 39.851ZM137.673 48.6697V52.6697C138.822 52.6697 139.915 52.1756 140.675 51.3132C141.434 50.4509 141.786 49.3037 141.641 48.1639L137.673 48.6697ZM88.6795 69.6486V73.6486C90.0439 73.6486 91.3142 72.9531 92.0493 71.8037L88.6795 69.6486ZM59.4066 69.6486V65.6486C59.3234 65.6486 59.2401 65.6512 59.1571 65.6564L59.4066 69.6486ZM59.4066 96.3351C61.6157 96.3351 63.4066 94.5443 63.4066 92.3351C63.4066 90.126 61.6157 88.3351 59.4066 88.3351V96.3351ZM42.8186 92.3351L40.5878 95.6553C41.2474 96.0984 42.024 96.3351 42.8186 96.3351V92.3351ZM19.8433 76.8986L22.0741 73.5784L19.8433 76.8986ZM5.86302 79.4753L2.59515 77.1686H2.59515L5.86302 79.4753ZM8.46654 93.7593L6.22266 97.0706H6.22266L8.46654 93.7593ZM26.6758 106.098L28.9197 102.787L26.6758 106.098ZM104.165 110.042L102.811 106.278L104.165 110.042ZM143.683 95.8156L147.651 95.3098C147.497 94.1062 146.806 93.0373 145.771 92.4039C144.736 91.7705 143.47 91.6411 142.328 92.052L143.683 95.8156ZM144.229 100.097L140.261 100.603C140.395 101.655 140.942 102.611 141.781 103.26C142.62 103.91 143.682 104.199 144.735 104.065L144.229 100.097ZM172.001 96.5565L172.506 100.524C174.698 100.245 176.248 98.2421 175.969 96.0506L172.001 96.5565ZM137.506 47.3592L165.278 43.8188L164.266 35.8831L136.494 39.4234L137.506 47.3592ZM141.641 48.1639L140.968 42.8855L133.032 43.8972L133.705 49.1755L141.641 48.1639ZM126.999 52.6697H137.673V44.6697H126.999V52.6697ZM92.0493 71.8037C99.6733 59.8825 112.848 52.6697 126.999 52.6697V44.6697C110.119 44.6697 94.4039 53.2735 85.3097 67.4935L92.0493 71.8037ZM59.4066 73.6486H88.6795V65.6486H59.4066V73.6486ZM51.6974 81.3578C51.6974 78.3613 52.9413 76.6426 54.4625 75.5207C56.1559 74.2718 58.2983 73.7257 59.6561 73.6408L59.1571 65.6564C56.6118 65.8155 52.8996 66.733 49.7142 69.0823C46.3566 71.5585 43.6974 75.5723 43.6974 81.3578H51.6974ZM59.4066 88.3351C58.0453 88.3351 55.9515 87.9213 54.3262 86.8242C52.9149 85.8716 51.6974 84.3329 51.6974 81.3578H43.6974C43.6974 87.1645 46.383 91.1145 49.8505 93.455C53.1041 95.6512 56.8649 96.3351 59.4066 96.3351V88.3351ZM42.8186 96.3351H59.4066V88.3351H42.8186V96.3351ZM17.6125 80.2188L40.5878 95.6553L45.0494 89.0149L22.0741 73.5784L17.6125 80.2188ZM9.13089 81.782C11.064 79.0434 14.8301 78.3493 17.6125 80.2188L22.0741 73.5784C15.6839 69.285 7.03478 70.8791 2.59515 77.1686L9.13089 81.782ZM10.7104 90.4479C7.85128 88.5105 7.13918 84.6036 9.13089 81.782L2.59515 77.1686C-1.979 83.6486 -0.343598 92.6211 6.22266 97.0706L10.7104 90.4479ZM28.9197 102.787L10.7104 90.4479L6.22266 97.0706L24.432 109.41L28.9197 102.787ZM49.3918 109.07C42.093 109.07 34.9619 106.882 28.9197 102.787L24.432 109.41C31.7987 114.402 40.493 117.07 49.3918 117.07V109.07ZM86.8137 109.07H49.3918V117.07H86.8137V109.07ZM102.811 106.278C97.6794 108.126 92.2672 109.07 86.8137 109.07V117.07C93.1909 117.07 99.52 115.966 105.52 113.805L102.811 106.278ZM142.328 92.052L102.811 106.278L105.52 113.805L145.038 99.5791L142.328 92.052ZM148.197 99.591L147.651 95.3098L139.715 96.3214L140.261 100.603L148.197 99.591ZM171.495 92.5886L143.723 96.129L144.735 104.065L172.506 100.524L171.495 92.5886ZM160.804 40.3568L168.033 97.0623L175.969 96.0506L168.74 39.3451L160.804 40.3568Z" fill="#00FFFF"/>
<path d="M137.71 48.4221L143.686 96.4785" stroke="#00FFFF" stroke-width="8"/>
<path d="M90.9958 92.3363V96.3363H92.1724L93.1617 95.6991L90.9958 92.3363ZM107.554 86.4294C109.411 85.2332 109.947 82.7579 108.751 80.9006C107.555 79.0434 105.08 78.5075 103.222 79.7037L107.554 86.4294ZM59.2834 96.3363H90.9958V88.3363H59.2834V96.3363ZM93.1617 95.6991L107.554 86.4294L103.222 79.7037L88.8299 88.9734L93.1617 95.6991Z" fill="#00FFFF"/>
<defs>
<clipPath id="clip0_18_1602">
<rect width="92.9444" height="90.2581" fill="white" transform="translate(7.29236 0.0864258)"/>
</clipPath>
</defs>
</svg>
