<svg width="108" height="142" viewBox="0 0 108 142" fill="none" xmlns="http://www.w3.org/2000/svg">
<path d="M93.9993 18H72.4898H34.5842H13.9993C9.02871 18 4.99927 22.0294 4.99927 27V128C4.99927 132.971 9.03867 137 14.0092 137H93.9893C98.9599 137 102.999 132.971 102.999 128V27C102.999 22.0294 98.9698 18 93.9993 18Z" stroke="#00FFFF" stroke-width="8.37" stroke-linecap="round" stroke-linejoin="round"/>
<path d="M63.3338 18L59.4434 16.4575L57.1724 22.185H63.3338V18ZM45.6648 18V22.185H51.8261L49.5551 16.4574L45.6648 18ZM27.9993 18V13.815H23.8143V18H27.9993ZM80.9993 18H85.1843V13.815H80.9993V18ZM59.8143 14.5C59.8143 15.1992 59.6814 15.8572 59.4434 16.4575L67.2241 19.5425C67.845 17.9765 68.1843 16.2728 68.1843 14.5H59.8143ZM54.4993 9.185C57.4347 9.185 59.8143 11.5646 59.8143 14.5H68.1843C68.1843 6.94198 62.0573 0.815 54.4993 0.815V9.185ZM49.1843 14.5C49.1843 11.5646 51.5639 9.185 54.4993 9.185V0.815C46.9412 0.815 40.8143 6.94198 40.8143 14.5H49.1843ZM49.5551 16.4574C49.3171 15.8572 49.1843 15.1992 49.1843 14.5H40.8143C40.8143 16.2728 41.1535 17.9765 41.7744 19.5426L49.5551 16.4574ZM27.9993 22.185H45.6648V13.815H27.9993V22.185ZM32.1843 31V18H23.8143V31H32.1843ZM31.9993 30.815C32.1014 30.815 32.1843 30.8978 32.1843 31H23.8143C23.8143 35.5205 27.4788 39.185 31.9993 39.185V30.815ZM76.9993 30.815H31.9993V39.185H76.9993V30.815ZM76.8143 31C76.8143 30.8978 76.8971 30.815 76.9993 30.815V39.185C81.5197 39.185 85.1843 35.5205 85.1843 31H76.8143ZM76.8143 18V31H85.1843V18H76.8143ZM63.3338 22.185H80.9993V13.815H63.3338V22.185Z" fill="#00FFFF"/>
<path d="M17.5754 64.1199H45.9224M17.5754 99.2883H45.9224M60.3991 65.4084L67.2964 72.3056L82.0004 57.6016M60.3991 100.425L67.1448 107.171L82.0004 92.3153" stroke="#00FFFF" stroke-width="8" stroke-linecap="round" stroke-linejoin="round"/>
</svg>
