<svg width="24" height="24" viewBox="0 0 24 24" fill="none" xmlns="http://www.w3.org/2000/svg">
<ellipse opacity="0.5" cx="12" cy="12" rx="12" ry="12" transform="matrix(1.31134e-07 -1 -1 -1.31134e-07 24 24)" fill="#00FFFF"/>
<path fill-rule="evenodd" clip-rule="evenodd" d="M24 12C24 5.37257 18.6274 -1.41657e-05 12 -1.3876e-05C5.37257 -1.35863e-05 -1.6073e-05 5.37257 -1.57833e-05 12C-1.54936e-05 18.6274 5.37257 24 12 24C18.6274 24 24 18.6274 24 12ZM16.3777 6.75889C16.1993 6.73531 16.0176 6.75881 15.8516 6.82696L4.36583 11.5445C3.56519 11.8734 3.52421 13.003 4.36651 13.3437C4.98983 13.596 5.75353 13.803 6.57701 13.9367C7.02838 14.0101 7.40587 13.9367 8.12995 13.5069C8.95074 13.0194 11.4326 11.2877 12.9795 10.1489C13.6021 9.69024 13.8426 9.97788 13.3153 10.4765C13.1325 10.6492 12.9311 10.8379 12.7191 11.0366C11.373 12.2976 9.60097 13.9576 9.47331 14.4484C9.30136 15.1128 10.7005 16.0465 11.1572 16.338C12.0707 16.9205 13.0863 17.4788 13.7701 17.8411C14.5875 18.2742 15.5655 17.7756 15.7132 16.9061L17.2366 7.89234C17.2659 7.71899 17.2469 7.54118 17.1818 7.37739C17.1167 7.21361 17.0077 7.06985 16.8663 6.96107C16.7249 6.85229 16.5562 6.78248 16.3777 6.75889Z" fill="#00FFFF"/>
</svg>
