<svg width="34" height="34" viewBox="0 0 34 34" fill="none" xmlns="http://www.w3.org/2000/svg">
<path fill-rule="evenodd" clip-rule="evenodd" d="M34 17C34 7.61116 26.3888 2.6612e-06 17 3.0716e-06C7.61116 3.482e-06 -1.15349e-06 7.61116 -7.43094e-07 17C-3.32694e-07 26.3888 7.61116 34 17 34C26.3888 34 34 26.3888 34 17ZM25.008 15.132C25.1731 15.132 25.3349 15.1225 25.4968 15.1067L25.5 15.1067L25.5 11.808C22.9417 11.621 20.885 9.63102 20.6152 7.08333L17.7713 7.08333L17.7427 20.9277C17.7427 22.6261 16.2382 23.9634 14.537 23.9634C12.8357 23.9634 11.4582 22.5881 11.4582 20.8897C11.4582 19.1912 12.8357 17.8159 14.537 17.8159C14.6351 17.8159 14.7294 17.8292 14.8243 17.8425C14.8522 17.8464 14.8802 17.8504 14.9083 17.854L14.9083 14.8848C14.8671 14.8827 14.8261 14.8799 14.7852 14.8771C14.7034 14.8715 14.6216 14.8658 14.537 14.8658C11.2011 14.8658 8.5 17.5593 8.49999 20.8897C8.49999 24.22 11.2043 26.9166 14.537 26.9166C17.8697 26.9166 20.5707 24.2169 20.5707 20.8897L20.5707 12.7364C21.5515 14.2321 23.2179 15.132 25.008 15.132Z" fill="#00FFFF"/>
</svg>
