<svg width="24" height="24" viewBox="0 0 24 24" fill="none" xmlns="http://www.w3.org/2000/svg">
<ellipse opacity="0.5" cx="12" cy="12" rx="12" ry="12" transform="matrix(1.31134e-07 -1 -1 -1.31134e-07 24 24)" fill="#00FFFF"/>
<path fill-rule="evenodd" clip-rule="evenodd" d="M24 12C24 5.37257 18.6274 -1.41657e-05 12 -1.3876e-05C5.37257 -1.35863e-05 -1.22583e-05 5.37257 -1.19686e-05 12C-1.16789e-05 18.6274 5.37257 24 12 24C18.6274 24 24 18.6274 24 12ZM12.1449 6.74999L12.0531 6.74999L12.0531 6.75093L11.8541 6.75093C10.872 6.75408 9.89013 6.76996 8.90862 6.79858L8.73226 6.80511L8.64357 6.80792L8.46618 6.81352L8.29086 6.82006C7.1461 6.86678 6.056 6.94151 5.55375 7.06297C5.20348 7.14882 4.88429 7.31657 4.62816 7.54941C4.37203 7.78225 4.18797 8.072 4.09444 8.3896C3.99028 8.74368 3.91705 9.21454 3.86755 9.69941L3.85724 9.79658L3.83455 10.0395L3.8263 10.1366L3.8232 10.1852L3.81598 10.2814C3.76029 11.0475 3.75204 11.7417 3.74998 11.9425L3.74998 12.0575C3.75545 12.6922 3.78365 13.3265 3.83455 13.9596L3.8428 14.0567L3.85105 14.1548C3.90261 14.6892 3.97893 15.2208 4.09341 15.6104C4.1871 15.9278 4.37123 16.2174 4.62734 16.45C4.88346 16.6827 5.20258 16.8503 5.55272 16.9361C6.05497 17.0594 7.14507 17.1332 8.28983 17.179L8.46618 17.1855L8.64254 17.1921L8.73226 17.1958L8.90759 17.2014C10.2895 17.2444 11.6076 17.25 11.9262 17.25L12.0727 17.25C12.7028 17.2491 17.2499 17.2285 18.4462 16.937C18.7965 16.8512 19.1157 16.6834 19.3718 16.4506C19.6279 16.2177 19.812 15.928 19.9055 15.6104C20.02 15.2199 20.0963 14.6892 20.1479 14.1548L20.1572 14.0577L20.1654 13.9596C20.2397 13.0702 20.249 12.2163 20.25 12.035L20.25 11.965C20.249 11.7903 20.2407 10.9905 20.1737 10.1366L20.1654 10.0395L20.1427 9.79657L20.1324 9.69941C20.0829 9.21454 20.0097 8.74461 19.9055 8.3896C19.8117 8.07213 19.6276 7.78252 19.3715 7.54972C19.1154 7.31692 18.7963 7.14908 18.4462 7.06297C17.2881 6.78082 12.9926 6.7528 12.1449 6.74999ZM10.3504 14.2501L10.3504 9.74893L14.6376 12.0005L10.3504 14.2501Z" fill="#00FFFF"/>
</svg>
